<svg
          width="80"
          height="80"
          viewBox="0 0 177 177"
          fill="none"
          xmlns="http://www.w3.org/2000/svg"
        >
          <circle cx="88.5" cy="88.5" r="88.5" fill="#D9D9D9" />
          <path
            d="M72.4009 49V58.7004H82.1013V58.9916C65.6106 61.3195 53 75.5792 53 92.6519C53 111.374 68.2297 126.603 86.9515 126.603C105.673 126.603 120.903 111.374 120.903 92.6519C120.903 88.2867 119.933 84.2126 118.478 80.5264L109.651 84.2126C110.718 87.0257 111.203 89.7418 111.203 92.7489C111.203 106.233 100.435 117 86.9515 117C73.4679 117 62.7004 106.233 62.7004 92.7489C62.7004 79.2653 73.4679 68.4979 86.9515 68.4979C89.8616 68.4979 92.6748 68.9829 95.4879 70.0499L98.786 60.9315C96.5549 60.1555 94.2268 59.7675 91.8017 59.3795V58.7974H101.502V49.097H72.4009V49ZM120.903 60.2525C120.903 60.2525 85.4964 87.5107 83.6534 89.3538C81.8103 91.2939 81.8103 94.107 83.6534 96.0471C85.4964 97.9872 88.4066 97.9872 90.3466 96.0471C92.2867 94.107 121 60.2525 121 60.2525H120.903Z"
            fill="black"
          />
        </svg>