<svg xmlns="http://www.w3.org/2000/svg" width="20.124" height="20.124" viewBox="0 0 20.124 20.124">
  <path id="Icon_ionic-ios-checkmark-circle" data-name="Icon ionic-ios-checkmark-circle" d="M13.437,3.375A10.062,10.062,0,1,0,23.5,13.437,10.06,10.06,0,0,0,13.437,3.375Zm5.152,7.28-6.468,6.5h0a.874.874,0,0,1-.561.266.847.847,0,0,1-.566-.276L8.28,14.433a.193.193,0,0,1,0-.276l.861-.861a.187.187,0,0,1,.271,0l2.148,2.148,5.9-5.945a.191.191,0,0,1,.135-.058h0a.176.176,0,0,1,.135.058l.847.876A.191.191,0,0,1,18.589,10.655Z" transform="translate(-3.375 -3.375)"/>
</svg>
