<svg xmlns="http://www.w3.org/2000/svg" width="12.999" height="12.999" viewBox="0 0 12.999 12.999">
  <path id="Icon_ionic-ios-checkmark-circle" data-name="Icon ionic-ios-checkmark-circle" d="M9.874,3.375a6.5,6.5,0,1,0,0,13,6.817,6.817,0,0,0,2.879-.67,6.387,6.387,0,0,0,3.621-5.829A6.5,6.5,0,0,0,9.874,3.375Zm3.328,4.7-4.178,4.2h0a.564.564,0,0,1-.362.172.547.547,0,0,1-.366-.178l-1.75-1.75a.125.125,0,0,1,0-.178L7.1,9.784a.121.121,0,0,1,.175,0l1.387,1.387,3.812-3.84a.123.123,0,0,1,.087-.037h0a.113.113,0,0,1,.087.037L13.2,7.9A.123.123,0,0,1,13.2,8.078Z" transform="translate(-3.375 -3.375)" fill="#2073b2"/>
</svg>
