<svg xmlns="http://www.w3.org/2000/svg" width="19.45" height="21.611" viewBox="0 0 19.45 21.611"><defs><style>.a{fill:#4a4949;}</style></defs><path class="a" d="M10.983,12.725H8.822v2.161h2.161Zm4.322,0H13.144v2.161h2.161Zm4.322,0H17.467v2.161h2.161Zm2.161-7.564H20.708V3H18.547V5.161H9.9V3H7.742V5.161H6.661a2.151,2.151,0,0,0-2.15,2.161L4.5,22.45a2.161,2.161,0,0,0,2.161,2.161H21.789A2.167,2.167,0,0,0,23.95,22.45V7.322A2.167,2.167,0,0,0,21.789,5.161Zm0,17.289H6.661V10.564H21.789Z" transform="translate(-4.5 -3)"/></svg>