<svg xmlns="http://www.w3.org/2000/svg" width="18.837" height="16.744" viewBox="0 0 18.837 16.744">
  <path id="Icon_awesome-external-link-alt" data-name="Icon awesome-external-link-alt" d="M18.837.785V4.97a.785.785,0,0,1-1.34.555L16.33,4.358,8.365,12.322a.785.785,0,0,1-1.11,0l-.74-.74a.785.785,0,0,1,0-1.11L14.48,2.508,13.312,1.34A.785.785,0,0,1,13.867,0h4.185A.785.785,0,0,1,18.837.785ZM13.311,8.856l-.523.523a.785.785,0,0,0-.23.555v4.717H2.093V4.186h8.634a.785.785,0,0,0,.555-.23l.523-.523a.785.785,0,0,0-.555-1.34H1.57A1.57,1.57,0,0,0,0,3.663V15.174a1.57,1.57,0,0,0,1.57,1.57H13.081a1.57,1.57,0,0,0,1.57-1.57V9.411A.785.785,0,0,0,13.311,8.856Z"/>
</svg>
