<svg xmlns="http://www.w3.org/2000/svg" width="29" height="29" viewBox="0 0 29 29">
  <g id="Group_1129" data-name="Group 1129" transform="translate(-1197 -303)">
    <circle id="Ellipse_130" data-name="Ellipse 130" cx="14.5" cy="14.5" r="14.5" transform="translate(1197 303)" fill="#2f2f2f"/>
    <path id="Icon_metro-cross" data-name="Icon metro-cross" d="M12.574,10.038h0L9.511,6.976l3.062-3.063h0a.316.316,0,0,0,0-.446L11.127,2.02a.316.316,0,0,0-.446,0h0L7.618,5.083,4.556,2.02h0a.316.316,0,0,0-.446,0L2.663,3.467a.316.316,0,0,0,0,.446h0L5.725,6.976,2.663,10.038h0a.316.316,0,0,0,0,.446L4.11,11.931a.316.316,0,0,0,.446,0h0L7.618,8.868l3.063,3.063h0a.316.316,0,0,0,.446,0l1.447-1.447a.316.316,0,0,0,0-.446Z" transform="translate(1204.286 310.227)" fill="#fff"/>
  </g>
</svg>
