<svg xmlns="http://www.w3.org/2000/svg" width="31.744" height="25.867" viewBox="0 0 31.744 25.867">
  <path id="Icon_awesome-code" data-name="Icon awesome-code" d="M13.832,25.845l-3.025-.894A.609.609,0,0,1,10.4,24.2L17.17.44a.6.6,0,0,1,.739-.414L20.934.92a.609.609,0,0,1,.407.753L14.571,25.43a.593.593,0,0,1-.739.414ZM8.178,20.176l2.157-2.344a.614.614,0,0,0-.04-.869L5.8,12.935,10.3,8.908a.61.61,0,0,0,.04-.869L8.178,5.7a.588.588,0,0,0-.843-.025L.188,12.491a.61.61,0,0,0,0,.884L7.335,20.2a.584.584,0,0,0,.843-.025Zm16.228.03,7.147-6.826a.61.61,0,0,0,0-.884L24.406,5.665a.593.593,0,0,0-.843.025L21.405,8.034a.614.614,0,0,0,.04.869l4.493,4.032-4.493,4.027a.61.61,0,0,0-.04.869l2.157,2.344a.588.588,0,0,0,.843.03Z" transform="translate(0.002 -0.003)" fill="#707070"/>
</svg>
