<svg xmlns="http://www.w3.org/2000/svg" width="22.467" height="21.397" viewBox="0 0 22.467 21.397">
  <g id="crown" transform="translate(0 -9.08)">
    <path id="Path_2568" data-name="Path 2568" d="M7.4,327.32H26.5a1.324,1.324,0,0,1,1.325,1.322h0a1.323,1.323,0,0,1-1.325,1.322H7.4a1.323,1.323,0,0,1-1.325-1.322h0A1.324,1.324,0,0,1,7.4,327.32Z" transform="translate(-5.722 -299.488)" fill="#ce7419"/>
    <g id="Group_1276" data-name="Group 1276" transform="translate(1.683 11.673)">
      <path id="Path_2569" data-name="Path 2569" d="M28.56,56.71l6.274,4.115,3.276-7.745,3.276,7.745,6.274-4.115V69.24H28.56Z" transform="translate(-28.56 -53.08)" fill="#fcba29"/>
      <path id="Path_2570" data-name="Path 2570" d="M190.64,53.08l3.276,7.745,6.274-4.115V69.24H190.64Z" transform="translate(-181.089 -53.08)" fill="#e99a23"/>
    </g>
    <g id="Group_1277" data-name="Group 1277" transform="translate(0 9.08)">
      <circle id="Ellipse_194" data-name="Ellipse 194" cx="1.089" cy="1.089" r="1.089" transform="translate(0 4.167)" fill="#fcba29"/>
      <circle id="Ellipse_195" data-name="Ellipse 195" cx="1.089" cy="1.089" r="1.089" transform="translate(20.289 4.285)" fill="#fcba29"/>
      <circle id="Ellipse_196" data-name="Ellipse 196" cx="1.296" cy="1.296" r="1.296" transform="translate(9.937)" fill="#fcba29"/>
    </g>
    <g id="Group_1278" data-name="Group 1278" transform="translate(3.884 20.219)">
      <path id="Path_2571" data-name="Path 2571" d="M160.751,198.12l.933,1.245.938,1.245-.938,1.244-.933,1.245-.933-1.245-.938-1.244.938-1.245Z" transform="translate(-153.402 -198.12)" fill="#ce7419"/>
      <path id="Path_2572" data-name="Path 2572" d="M271.334,216.92l.669.886.665.891-.665.886-.669.886-.669-.886L270,218.7l.665-.891Z" transform="translate(-257.975 -215.812)" fill="#ce7419"/>
      <path id="Path_2573" data-name="Path 2573" d="M67.259,216.92l.669.886.665.891-.665.886-.669.886-.669-.886-.669-.886.669-.891Z" transform="translate(-65.92 -215.812)" fill="#ce7419"/>
    </g>
  </g>
</svg>
