<svg width="20" height="20" viewBox="0 0 20 20" fill="none" xmlns="http://www.w3.org/2000/svg">
<path d="M11.275 15.5H13.675V15.425L9.55 11.05L9.575 10.975H9.825C10.725 10.975 11.4708 10.7 12.0625 10.15C12.6542 9.6 13.0167 8.95833 13.15 8.225H14.15V7.05H13.125C13.075 6.8 12.9875 6.5625 12.8625 6.3375C12.7375 6.1125 12.5833 5.89167 12.4 5.675H14.15V4.5H5.85V5.925H9.75C10.1833 5.925 10.5375 6.03333 10.8125 6.25C11.0875 6.46667 11.275 6.73333 11.375 7.05H5.85V8.225H11.4C11.3 8.55833 11.1083 8.84583 10.825 9.0875C10.5417 9.32917 10.1583 9.45 9.675 9.45H7.175V11.05L11.275 15.5ZM10 20C8.61667 20 7.31667 19.7375 6.1 19.2125C4.88333 18.6875 3.825 17.975 2.925 17.075C2.025 16.175 1.3125 15.1167 0.7875 13.9C0.2625 12.6833 0 11.3833 0 10C0 8.61667 0.2625 7.31667 0.7875 6.1C1.3125 4.88333 2.025 3.825 2.925 2.925C3.825 2.025 4.88333 1.3125 6.1 0.7875C7.31667 0.2625 8.61667 0 10 0C11.3833 0 12.6833 0.2625 13.9 0.7875C15.1167 1.3125 16.175 2.025 17.075 2.925C17.975 3.825 18.6875 4.88333 19.2125 6.1C19.7375 7.31667 20 8.61667 20 10C20 11.3833 19.7375 12.6833 19.2125 13.9C18.6875 15.1167 17.975 16.175 17.075 17.075C16.175 17.975 15.1167 18.6875 13.9 19.2125C12.6833 19.7375 11.3833 20 10 20ZM10 18C12.2333 18 14.125 17.225 15.675 15.675C17.225 14.125 18 12.2333 18 10C18 7.76667 17.225 5.875 15.675 4.325C14.125 2.775 12.2333 2 10 2C7.76667 2 5.875 2.775 4.325 4.325C2.775 5.875 2 7.76667 2 10C2 12.2333 2.775 14.125 4.325 15.675C5.875 17.225 7.76667 18 10 18Z" fill="#1C1B1F"/>
</svg>
