<svg xmlns="http://www.w3.org/2000/svg" width="15.844" height="21.126" viewBox="0 0 15.844 21.126">
  <path id="Icon_awesome-file-download" data-name="Icon awesome-file-download" d="M9.242,5.611V0H.99A.988.988,0,0,0,0,.99V20.135a.988.988,0,0,0,.99.99H14.854a.988.988,0,0,0,.99-.99V6.6H10.233A.993.993,0,0,1,9.242,5.611ZM12.4,14.332,8.418,18.281a.7.7,0,0,1-.992,0L3.448,14.332A.66.66,0,0,1,3.912,13.2H6.6V9.9a.66.66,0,0,1,.66-.66h1.32a.66.66,0,0,1,.66.66v3.3h2.689A.66.66,0,0,1,12.4,14.332Zm3.159-10L11.516.289a.99.99,0,0,0-.7-.289h-.252V5.281h5.281V5.03A.987.987,0,0,0,15.555,4.332Z" fill="#187cf6"/>
</svg>
