<?xml version="1.0" standalone="no"?>
<!DOCTYPE svg PUBLIC "-//W3C//DTD SVG 20010904//EN"
 "http://www.w3.org/TR/2001/REC-SVG-20010904/DTD/svg10.dtd">
<svg version="1.0" xmlns="http://www.w3.org/2000/svg"
 width="500.000000pt" height="333.000000pt" viewBox="0 0 500.000000 333.000000"
 preserveAspectRatio="xMidYMid meet">
<metadata>
Created by potrace 1.16, written by Peter Selinger 2001-2019
</metadata>
<g transform="translate(0.000000,333.000000) scale(0.100000,-0.100000)"
fill="#000000" stroke="none">
<path d="M777 3273 c7 -87 2 -83 100 -83 57 -1 97 -6 113 -15 14 -8 37 -14 53
-15 33 0 41 17 51 108 l7 62 -165 0 -165 0 6 -57z"/>
<path d="M1969 3251 c-42 -13 -73 -32 -102 -63 -20 -22 -32 -28 -48 -23 -14 5
-19 3 -15 -3 3 -6 -4 -12 -15 -14 -13 -2 -29 -16 -38 -35 -10 -20 -30 -38 -52
-47 -23 -9 -40 -25 -47 -43 -15 -38 -32 -138 -32 -193 -2 -317 -2 -311 29
-400 37 -103 56 -124 115 -125 24 -1 53 -8 63 -15 17 -14 17 -14 2 5 -9 11
-23 34 -32 50 -17 34 -13 41 81 155 23 29 42 56 42 61 0 5 7 17 17 28 12 15
21 17 40 10 32 -12 36 -11 30 4 -3 9 12 12 57 13 84 1 178 32 306 99 34 18 94
30 86 17 -3 -5 6 -12 20 -15 36 -7 56 29 61 111 6 106 45 143 109 103 67 -41
114 -280 64 -326 -11 -10 -26 -15 -36 -11 -16 6 -16 5 0 -16 9 -13 30 -50 46
-83 26 -51 30 -71 30 -140 0 -47 -6 -90 -14 -106 -7 -14 -11 -40 -8 -58 2 -17
0 -51 -6 -74 -6 -23 -14 -58 -17 -78 -4 -28 -16 -45 -53 -74 -26 -20 -59 -39
-74 -42 -15 -3 -25 -9 -23 -14 7 -11 -50 -2 -77 12 -16 9 -23 9 -26 0 -2 -6
-11 -2 -22 11 -22 28 -16 42 12 27 36 -20 96 -5 128 33 28 31 43 87 20 73 -6
-4 -10 17 -10 54 0 37 4 61 11 61 6 0 18 7 26 16 9 8 25 13 35 10 17 -4 19 -1
13 22 -9 38 -26 52 -69 59 -36 6 -49 2 -163 -48 -45 -20 -53 -33 -28 -43 22
-8 19 -33 -12 -103 -23 -54 -31 -62 -60 -68 -40 -7 -68 7 -92 46 l-18 30 -34
-43 c-18 -24 -34 -45 -36 -48 -10 -13 -80 42 -124 97 -27 35 -53 62 -57 59 -5
-3 -14 -1 -22 5 -12 7 -10 9 8 9 33 0 61 -17 71 -43 8 -20 14 -22 71 -17 54 4
63 8 78 33 16 27 16 29 -5 46 -12 10 -20 20 -18 22 8 8 -133 2 -185 -8 -54
-11 -55 -11 -88 20 -22 21 -5 -10 52 -96 47 -70 97 -150 110 -179 26 -55 69
-108 87 -108 7 0 8 -7 4 -17 -4 -10 -8 -39 -10 -65 -4 -43 1 -53 21 -45 4 1
10 -8 15 -20 6 -16 13 -21 26 -16 16 6 17 5 3 -12 -13 -17 -13 -18 0 -13 18 7
42 -16 30 -28 -5 -5 -5 -15 0 -24 8 -13 13 -13 30 -2 22 13 45 8 35 -9 -4 -5
-3 -19 1 -31 6 -21 7 -21 20 -4 7 10 17 15 23 12 5 -4 12 2 16 13 3 10 13 18
23 17 14 -1 16 6 14 36 -2 31 0 37 13 32 11 -5 15 1 16 22 1 16 1 32 0 37 -2
15 17 6 32 -15 14 -20 16 -21 16 -5 1 10 8 32 17 48 12 24 13 34 3 45 -6 8 -9
17 -5 21 3 3 6 1 6 -6 0 -7 4 -10 8 -7 5 3 30 -56 57 -130 26 -74 49 -133 51
-131 2 2 -1 19 -6 38 -6 18 -10 46 -10 61 0 14 -11 48 -24 75 -29 58 -58 144
-52 151 3 2 13 -15 22 -39 63 -158 121 -229 189 -229 52 0 146 54 209 120 57
60 119 171 132 239 7 34 7 34 -25 28 -20 -4 -30 -3 -26 3 4 6 -15 10 -47 10
l-53 1 45 18 c25 11 66 27 91 37 36 14 45 22 41 37 -3 11 -10 16 -19 13 -8 -3
-11 -1 -8 5 12 19 18 289 6 289 -11 0 -45 33 -68 68 -15 21 -14 24 21 58 31
30 42 35 76 33 21 -2 42 -1 45 2 9 10 -129 37 -160 32 -28 -4 -33 1 -73 61
-71 109 -242 306 -265 306 -4 0 -5 -4 -2 -10 3 -6 -1 -7 -10 -3 -12 4 -13 8
-4 13 13 8 -26 48 -105 105 -23 16 -52 40 -66 53 -35 33 -161 90 -249 113 -75
19 -185 24 -232 10z"/>
<path d="M817 2520 c-67 -21 -112 -49 -215 -132 -66 -54 -76 -68 -118 -156
-73 -153 -82 -180 -74 -217 5 -28 9 -30 68 -38 34 -5 62 -12 62 -17 0 -4 -6
-20 -14 -35 -10 -20 -12 -36 -4 -63 10 -38 34 -65 49 -56 4 2 16 -7 25 -21 9
-14 25 -25 35 -25 27 0 24 -14 -11 -52 l-30 -33 -37 20 c-20 11 -50 31 -65 44
-41 33 -47 18 -9 -20 18 -17 31 -39 29 -48 -4 -21 48 -65 67 -57 9 3 19 15 23
26 l8 21 26 -20 c14 -12 40 -21 56 -21 16 0 49 -7 72 -15 23 -8 53 -15 67 -15
28 0 93 46 93 66 0 8 4 14 9 14 17 0 41 31 41 51 0 16 -5 19 -20 14 -11 -3
-20 -2 -20 4 0 5 -13 18 -30 27 -36 22 -28 35 32 54 24 7 52 22 64 32 24 21
41 23 46 6 5 -15 60 -19 69 -6 3 5 18 -3 32 -18 15 -15 30 -24 34 -20 14 14
53 -38 53 -71 0 -29 3 -33 25 -33 14 0 25 -6 26 -12 0 -7 5 2 10 20 8 26 14
32 29 27 11 -3 29 -1 41 6 19 10 21 9 16 -5 -4 -9 -9 -45 -13 -81 -4 -36 -12
-69 -18 -74 -6 -5 -30 -12 -53 -16 -40 -6 -43 -5 -43 15 0 30 18 60 35 60 8 0
15 5 15 10 0 6 -8 10 -18 10 -10 0 -23 5 -30 12 -9 9 -13 7 -17 -8 -4 -10 -13
-34 -21 -52 -8 -18 -12 -37 -9 -42 3 -4 -3 -6 -12 -4 -21 5 -34 -3 -49 -31
-14 -25 -100 -42 -126 -26 -10 6 -21 11 -25 11 -5 0 -2 -4 5 -8 8 -5 -6 -9
-34 -9 -39 0 -51 -4 -70 -26 -13 -15 -26 -27 -29 -27 -17 0 -75 55 -71 67 6
15 -29 18 -39 3 -3 -5 -17 -10 -31 -10 -13 0 -24 -4 -24 -10 0 -5 5 -10 11
-10 6 0 9 -10 7 -22 -4 -28 -48 -39 -48 -12 0 16 -1 16 -20 -1 -26 -24 -25
-32 5 -39 14 -4 25 -13 25 -22 0 -8 4 -13 8 -10 4 2 14 1 21 -4 11 -6 10 -11
-6 -21 -19 -11 -19 -14 -4 -31 9 -11 29 -18 50 -18 l35 0 -22 -20 c-27 -26
-27 -33 1 -73 29 -42 46 -54 83 -62 27 -5 33 -11 39 -42 4 -24 9 -32 15 -24 4
8 10 -5 15 -34 9 -66 14 -75 39 -75 13 0 33 -11 46 -25 13 -14 26 -25 30 -25
3 0 14 16 24 37 9 20 38 60 62 89 44 51 73 102 204 349 57 108 120 268 120
306 0 10 -9 28 -21 40 -16 16 -19 29 -15 52 3 23 -2 44 -18 72 -21 36 -27 40
-60 38 -31 -2 -37 1 -34 15 5 24 55 28 80 5 l20 -18 -4 140 c-4 136 -5 142
-38 209 -44 88 -136 183 -214 220 -101 48 -221 58 -319 26z"/>
<path d="M4050 2484 c0 -10 5 -35 10 -54 6 -19 13 -53 16 -75 3 -22 7 -51 10
-65 3 -19 2 -22 -6 -10 -8 13 -10 13 -10 -2 0 -10 5 -18 10 -18 6 0 8 -11 4
-26 -5 -21 -4 -25 6 -19 8 5 11 3 8 -6 -3 -8 1 -28 9 -46 7 -18 9 -34 4 -37
-5 -3 -2 -25 6 -48 8 -24 18 -71 20 -106 3 -34 9 -65 14 -67 4 -3 5 10 2 29
-3 19 -1 36 6 40 7 5 8 13 2 24 -13 26 -24 131 -11 112 7 -12 10 -8 10 15 0
24 -2 27 -11 15 -8 -12 -9 -10 -8 10 3 29 -10 98 -22 121 -4 9 -10 31 -13 50
-6 42 -42 168 -50 176 -3 4 -6 -2 -6 -13z"/>
<path d="M2271 2468 c-38 -24 -124 -151 -119 -176 2 -10 10 -17 18 -18 8 0 29
-4 47 -8 39 -9 129 19 160 51 28 29 40 82 22 94 -12 7 -12 12 0 31 7 13 -9 2
-36 -24 -53 -52 -85 -67 -38 -18 16 17 23 30 16 30 -11 0 -11 3 0 16 8 10 0 8
-24 -6 -20 -12 -40 -26 -43 -31 -7 -12 -24 -12 -24 1 0 5 14 25 31 45 36 41
35 42 -10 13z"/>
<path d="M4175 2430 c4 -19 16 -65 26 -103 11 -37 24 -107 30 -155 5 -48 14
-116 19 -152 5 -36 12 -105 16 -155 7 -96 22 -93 25 5 1 28 6 50 11 50 4 0 8
28 9 63 0 34 0 76 1 92 4 112 -25 208 -83 281 -16 20 -29 40 -30 43 -3 28 -9
45 -19 55 -9 8 -10 3 -5 -24z"/>
<path d="M3198 2258 c-37 -21 -38 -24 -39 -77 l-1 -56 -14 35 -14 35 5 -40 c3
-22 5 -57 5 -77 0 -21 5 -38 10 -38 6 0 10 7 10 15 0 14 3 14 30 0 25 -13 30
-21 30 -54 0 -41 13 -51 73 -51 39 0 34 22 -13 61 -82 68 -101 89 -94 100 4 7
6 30 6 53 -1 22 2 42 6 45 15 11 53 71 45 71 -4 0 -25 -10 -45 -22z"/>
<path d="M3705 2080 c-3 -5 -3 -15 1 -22 5 -8 2 -9 -9 -5 -10 3 -17 3 -17 -1
0 -17 -57 -31 -105 -24 -69 9 -134 7 -168 -7 -26 -10 -27 -12 -13 -27 9 -8 16
-26 16 -40 0 -17 6 -24 19 -24 11 0 23 5 26 10 4 6 19 0 38 -14 18 -13 45 -28
62 -33 39 -13 102 3 110 27 9 30 89 106 106 102 26 -5 31 36 6 50 -16 8 -22 8
-25 -1 -5 -16 -22 -14 -22 4 0 17 -16 20 -25 5z"/>
<path d="M3804 1970 c1 -44 5 -80 11 -80 5 0 4 -5 -2 -11 -6 -6 -7 -26 -3 -51
6 -32 4 -49 -10 -74 -10 -17 -17 -34 -15 -36 2 -2 -11 -12 -31 -23 -44 -23
-40 -36 13 -41 34 -3 43 0 57 21 9 13 13 32 10 42 -4 12 -3 14 3 6 20 -27 103
151 103 220 0 36 -29 74 -70 91 -65 26 -66 25 -66 -64z"/>
<path d="M4800 1609 c-12 -9 -12 -10 3 -5 13 4 20 0 24 -14 3 -11 10 -17 16
-13 6 4 8 0 4 -10 -6 -16 67 -177 81 -177 4 0 21 -12 37 -26 17 -15 22 -23 13
-20 -24 7 -23 -6 1 -21 18 -11 19 -7 20 100 1 65 -3 129 -11 154 l-12 43 -81
0 c-44 0 -87 -5 -95 -11z"/>
<path d="M1905 1510 c14 -15 40 -62 58 -106 26 -63 37 -80 56 -82 49 -7 53 4
22 60 -16 29 -36 77 -46 106 l-17 53 -49 -2 -49 -3 25 -26z"/>
<path d="M260 1519 c0 -4 16 -16 35 -28 44 -26 64 -71 58 -125 -5 -34 -3 -39
8 -28 7 6 29 12 49 12 29 0 45 10 93 57 l59 57 -15 32 -16 32 -135 -1 c-75 0
-136 -4 -136 -8z"/>
<path d="M4460 1518 c-1 -7 -14 -28 -30 -47 -16 -19 -27 -38 -24 -43 3 -4 -2
-8 -12 -8 -13 0 -14 -3 -5 -14 7 -9 8 -15 2 -18 -5 -1 -13 -19 -16 -38 -3 -19
-11 -40 -17 -48 -7 -8 -8 -16 -2 -20 12 -9 15 -45 7 -106 -4 -38 -8 -45 -15
-33 -5 10 -7 33 -4 52 3 19 1 37 -4 40 -6 3 -10 -4 -10 -18 0 -13 -10 -43 -22
-68 -11 -24 -21 -49 -21 -56 0 -7 -3 -11 -6 -10 -4 1 -32 -20 -64 -48 -32 -27
-82 -64 -112 -81 -30 -17 -52 -34 -48 -37 3 -4 1 -7 -5 -7 -7 0 -12 4 -12 8 0
5 -13 7 -30 4 -25 -3 -30 -9 -30 -31 0 -54 53 -97 98 -80 18 7 23 6 20 -3 -3
-7 -19 -14 -38 -16 -25 -3 -39 3 -64 27 -20 20 -36 27 -44 22 -8 -5 -13 -11
-13 -15 3 -20 0 -26 -9 -21 -5 3 -15 3 -22 -1 -8 -5 -6 -10 8 -15 17 -6 16 -8
-10 -18 -33 -13 -67 -51 -61 -68 2 -7 0 -13 -5 -13 -9 0 -26 39 -22 53 3 10
-6 9 -29 -3 -22 -12 -26 -35 -4 -26 8 3 15 1 15 -5 0 -6 5 -7 10 -4 6 3 10 -2
10 -12 0 -11 5 -24 12 -31 6 -6 13 -19 14 -27 2 -12 -2 -13 -18 -4 -11 6 -22
8 -26 5 -3 -3 0 -6 6 -6 15 0 16 -36 2 -45 -13 -8 -56 24 -69 53 -13 28 -14
43 -2 23 5 -7 14 -10 20 -7 17 11 13 26 -6 19 -11 -4 -14 -3 -9 6 6 10 4 10
-12 0 -17 -11 -24 -10 -38 2 -14 10 -12 6 4 -18 13 -18 27 -35 33 -39 5 -3 7
-14 4 -25 -5 -14 -1 -19 12 -20 11 0 13 -3 5 -6 -9 -3 -7 -10 9 -24 25 -21 35
-24 44 -9 3 5 0 7 -8 4 -32 -12 -25 16 8 32 19 9 35 20 35 25 0 5 5 9 11 9 5
0 7 -4 4 -10 -3 -5 0 -7 9 -4 8 3 17 12 20 20 3 7 12 11 20 8 8 -3 17 -1 21 5
3 6 -1 12 -9 12 -9 1 -20 3 -26 4 -5 1 -13 3 -17 4 -3 0 4 9 15 20 12 10 18
21 15 25 -4 4 5 5 20 2 15 -2 39 1 53 9 22 11 23 14 10 22 -14 8 -13 12 11 34
15 13 22 17 16 9 -9 -12 -6 -15 18 -17 15 -1 31 2 34 7 4 6 14 10 23 10 16 -1
16 -1 0 -11 -10 -5 -18 -15 -18 -21 0 -7 5 -6 15 2 18 15 38 3 32 -20 -3 -13
0 -17 9 -13 8 3 12 9 9 13 -3 5 -1 11 5 15 5 3 10 1 10 -5 0 -6 12 -10 28 -8
19 2 27 8 26 21 -2 13 3 16 17 12 20 -7 72 22 63 36 -3 5 0 9 5 9 18 0 13 -28
-6 -39 -17 -10 -17 -10 0 -11 9 0 17 -5 17 -10 0 -6 -6 -10 -12 -9 -29 5 -98
-48 -98 -75 0 -4 -7 -6 -14 -3 -10 4 -13 1 -10 -7 6 -15 -22 -29 -38 -19 -6 3
-9 2 -6 -3 4 -5 -9 -20 -28 -34 -18 -14 -34 -30 -34 -36 0 -12 -41 -27 -49
-18 -3 3 1 9 8 13 9 6 10 11 2 15 -6 4 -11 3 -11 -3 0 -5 -7 -16 -15 -25 -13
-13 -13 -15 5 -21 10 -3 28 -1 39 4 11 6 26 11 33 11 7 -1 0 -8 -15 -16 -16
-8 -37 -24 -47 -34 -21 -21 -37 -15 135 -48 178 -35 539 -81 550 -71 2 3 -25
82 -61 177 -73 198 -79 244 -40 327 46 100 180 183 276 171 63 -7 92 -16 113
-34 15 -14 17 -13 17 4 -1 23 -34 63 -78 93 -26 18 -41 22 -70 16 -48 -9 -220
-123 -263 -176 -34 -41 -40 -50 -60 -104 l-12 -30 -8 35 c-4 20 -4 36 2 38 14
5 11 32 -3 33 -7 0 -3 4 10 9 23 10 30 34 12 45 -6 3 -14 -4 -19 -17 -8 -23
-8 -23 -15 -1 -9 27 11 153 27 172 9 11 9 15 -1 18 -9 4 -9 10 2 31 29 53 42
112 25 112 -5 0 -9 -7 -9 -15 0 -8 -4 -15 -8 -15 -11 0 -30 -55 -51 -153 -18
-83 -26 -63 -12 30 6 43 12 95 13 116 1 21 5 40 10 43 4 3 8 31 7 62 0 31 -3
51 -6 44 -2 -6 -10 -9 -15 -6 -6 4 -8 2 -4 -4 3 -6 -3 -27 -14 -47 -22 -39
-26 -60 -9 -49 6 3 4 -8 -5 -24 -9 -17 -16 -41 -16 -54 0 -18 -2 -20 -9 -8 -6
8 -7 18 -4 23 3 5 5 33 4 63 0 36 4 54 12 54 9 0 9 2 -1 8 -10 7 -8 23 9 78
11 38 25 73 30 79 12 12 11 25 -1 25 -5 0 -10 -6 -10 -12z"/>
<path d="M3734 1506 c-32 -14 -66 -39 -92 -67 -11 -12 -26 -16 -54 -12 l-40 4
7 -43 c9 -57 32 -146 46 -180 14 -34 29 -36 30 -5 0 21 1 21 9 2 6 -17 9 -17
14 -5 4 9 16 16 26 17 12 1 18 -3 14 -8 -3 -6 13 -1 35 11 26 13 39 25 35 32
-5 7 -2 9 8 6 13 -5 15 2 12 40 -5 77 -12 110 -28 144 -21 40 -20 45 4 53 11
3 20 11 20 16 0 12 -9 11 -46 -5z"/>
<path d="M60 1485 c-14 -8 -33 -14 -42 -15 -16 0 -18 -14 -18 -155 l0 -156 38
6 c20 4 60 18 89 31 29 14 68 28 88 31 49 8 54 23 8 23 -22 0 -56 -11 -82 -25
-46 -27 -74 -34 -54 -14 20 20 4 39 -24 28 -30 -11 -46 -2 -20 12 18 11 24 39
7 39 -6 0 -15 10 -20 23 -6 17 -4 26 11 39 25 21 24 32 -1 25 -29 -8 -24 10
13 44 41 38 67 44 133 32 64 -11 74 4 19 30 -43 21 -111 21 -145 2z"/>
<path d="M3264 1267 c-4 -23 -7 -50 -6 -59 1 -10 -2 -18 -6 -18 -5 0 -8 -25
-8 -56 1 -30 -2 -60 -5 -66 -4 -6 -5 -17 -2 -23 6 -17 82 24 84 45 2 19 2 16
-6 80 -4 30 -8 65 -9 78 0 12 -4 22 -8 22 -5 0 -8 6 -8 14 0 34 -18 22 -26
-17z"/>
<path d="M2530 1285 c0 -8 6 -18 13 -22 8 -4 31 -27 52 -51 29 -32 40 -56 46
-94 5 -28 12 -54 17 -57 5 -3 12 -28 14 -54 5 -41 12 -54 42 -79 43 -35 45
-68 6 -79 -14 -4 -20 -8 -15 -8 6 -1 1 -8 -9 -16 -18 -14 -18 -15 -2 -15 9 0
25 4 35 10 14 7 25 4 44 -14 l25 -23 138 79 c77 43 169 94 207 114 62 34 67
39 67 69 l0 33 -40 -15 c-32 -13 -48 -14 -78 -5 -88 25 -128 36 -136 36 -5 1
-18 19 -29 40 -20 39 -21 39 -37 18 -10 -12 -20 -18 -24 -15 -3 4 -6 -1 -6
-10 0 -9 -4 -17 -9 -17 -17 0 -20 -45 -5 -68 8 -13 36 -36 62 -53 25 -16 39
-29 31 -29 -7 0 -39 19 -69 43 -30 24 -74 54 -97 66 -23 13 -87 70 -142 127
-56 57 -101 97 -101 89z"/>
<path d="M1816 1046 c35 -15 74 -60 74 -85 0 -10 21 -26 55 -41 42 -19 55 -30
55 -47 0 -22 -4 -23 -80 -23 -70 0 -80 -2 -80 -17 1 -21 38 -66 63 -76 13 -5
16 -13 11 -34 -4 -16 -10 -30 -14 -33 -4 -3 -11 -20 -15 -37 -3 -18 -11 -33
-16 -33 -5 0 -9 -8 -9 -17 0 -10 -6 -26 -13 -35 -12 -15 -15 -12 -25 25 -6 23
-35 78 -64 122 -46 70 -61 84 -116 112 -35 18 -76 33 -90 32 -21 0 -16 -4 19
-15 48 -14 70 -40 44 -50 -8 -4 -15 -17 -15 -30 0 -15 -6 -24 -15 -24 -8 0
-15 -6 -15 -14 0 -8 -7 -17 -16 -20 -9 -3 -12 -11 -8 -18 5 -7 2 -9 -8 -6 -11
5 -14 0 -10 -18 2 -13 -3 -30 -12 -39 -9 -9 -16 -22 -16 -29 0 -8 -7 -19 -15
-26 -9 -7 -14 -19 -11 -27 6 -16 -42 -63 -59 -57 -19 8 -65 -14 -65 -31 0 -9
5 -13 10 -10 6 3 10 0 10 -7 0 -9 3 -9 10 2 5 8 10 11 10 5 0 -5 5 -3 10 5 8
12 10 12 10 -5 0 -15 3 -17 9 -7 7 11 9 11 14 0 3 -10 -13 -25 -46 -45 -44
-26 -60 -30 -109 -28 -31 2 -63 7 -69 11 -13 7 -23 9 -104 18 l-50 6 55 -13
c31 -7 87 -29 126 -49 69 -36 71 -36 145 -27 41 5 110 13 154 19 44 5 118 14
165 20 47 5 111 10 142 10 53 0 59 2 84 35 34 44 82 48 120 10 20 -20 35 -25
74 -25 l50 0 1 48 c1 26 1 74 -1 107 -1 55 -7 90 -44 258 -7 31 -11 57 -9 57
9 0 -35 39 -57 50 -14 7 -44 35 -68 61 -42 47 -123 96 -141 85 -5 -4 -12 -2
-16 4 -3 5 -16 10 -28 10 -18 -1 -17 -3 9 -14z"/>
<path d="M3584 940 c-6 -6 -46 -17 -89 -25 -82 -16 -96 -22 -80 -33 6 -4 17
-16 25 -26 13 -18 13 -19 0 -12 -8 4 -4 -2 9 -13 13 -12 24 -31 25 -44 1 -12
8 -21 15 -19 7 1 10 -2 6 -7 -3 -6 3 -18 14 -28 11 -9 18 -20 15 -25 -3 -5 6
-20 20 -33 16 -15 21 -25 13 -28 -15 -5 -50 32 -81 86 -43 77 -68 117 -73 117
-2 0 -1 -4 2 -10 8 -12 -5 -13 -24 -1 -9 6 -10 11 -2 15 16 10 14 43 -3 43 -8
0 -17 -9 -19 -19 -3 -11 -1 -16 6 -12 7 3 0 -6 -15 -20 -27 -24 -38 -43 -18
-31 6 3 10 1 10 -4 0 -6 7 -11 16 -11 8 0 13 -4 10 -9 -3 -4 13 -14 34 -21 46
-15 62 -31 64 -63 0 -12 7 -22 13 -22 18 0 46 -43 39 -60 -3 -8 -2 -14 2 -14
4 1 14 1 22 0 13 -1 13 -2 0 -11 -12 -8 -12 -10 5 -10 15 0 17 -2 7 -9 -18
-11 48 -24 72 -15 11 4 22 -1 31 -12 13 -18 14 -18 15 -1 0 18 40 25 40 7 0
-5 6 -10 13 -10 6 1 1 10 -12 20 -13 11 -20 21 -17 21 3 1 12 2 19 3 12 2 12
26 -1 37 -4 4 -20 10 -37 13 -26 6 -28 6 -13 -6 12 -9 15 -18 9 -27 -7 -11
-14 -10 -40 8 -17 12 -31 28 -31 34 0 7 -6 23 -13 37 -17 34 -15 55 5 54 20
-2 32 22 16 32 -7 4 -8 3 -4 -4 5 -8 -1 -12 -14 -12 -19 0 -21 4 -15 27 5 21
4 24 -7 16 -10 -9 -13 -5 -13 17 0 15 3 26 7 24 4 -2 10 1 13 6 8 14 34 -18
35 -41 0 -9 7 -22 15 -29 8 -7 13 -16 10 -20 -3 -5 -1 -11 5 -15 6 -4 7 -11 4
-17 -4 -6 -2 -8 4 -4 6 3 15 -2 21 -11 19 -34 11 -7 -15 46 -21 46 -46 137
-47 179 0 15 -9 16 -23 2z"/>
<path d="M1108 934 c-5 -4 -8 -24 -8 -44 0 -31 -9 -47 -44 -86 -41 -44 -68
-93 -44 -78 5 3 32 7 59 9 28 1 55 7 60 12 6 6 16 32 23 59 8 33 18 50 30 52
15 3 17 -1 12 -30 -4 -25 1 -18 25 31 16 35 28 65 25 68 -9 9 -131 15 -138 7z"/>
<path d="M3135 902 c-33 -19 -104 -57 -157 -84 -54 -28 -98 -53 -98 -55 0 -3
38 -3 84 1 71 6 92 4 137 -13 29 -11 54 -19 57 -17 8 8 43 169 40 185 -3 15
-11 12 -63 -17z"/>
<path d="M585 861 c-2 -5 14 -23 36 -41 57 -46 38 -54 -89 -40 -53 6 -133 15
-177 20 -44 5 -89 12 -99 16 -13 5 -17 4 -13 -4 7 -10 51 -28 137 -54 l45 -13
-68 -3 c-37 -2 -83 2 -103 7 -28 8 -39 6 -54 -6 -23 -20 -15 -43 16 -43 14 0
23 -5 21 -12 -1 -8 7 -12 23 -11 112 10 149 17 194 34 28 10 62 19 75 19 19 0
153 36 169 46 2 1 0 13 -3 26 -5 18 -21 31 -56 45 -27 12 -51 18 -54 14z"/>
<path d="M0 703 c0 -157 -8 -140 70 -145 73 -5 100 2 140 38 22 20 40 41 40
48 0 6 -37 33 -82 61 -45 27 -102 69 -125 94 l-43 45 0 -141z"/>
<path d="M951 147 c3 -4 42 -15 88 -26 46 -11 86 -23 89 -26 3 -3 -29 -5 -71
-5 -42 0 -79 -5 -82 -10 -5 -8 35 -8 127 -3 220 13 405 9 471 -11 31 -9 94
-19 140 -23 45 -3 96 -13 112 -22 23 -12 69 -16 200 -18 l170 -3 -60 25 c-33
14 -64 30 -69 35 -11 11 -102 12 -160 2 -23 -4 -110 2 -215 15 -97 12 -288 31
-426 43 -137 11 -266 23 -285 27 -19 3 -33 3 -29 0z"/>
<path d="M4864 65 c-5 -12 -9 -13 -20 -4 -11 9 -21 9 -40 0 -14 -6 -38 -11
-54 -11 -17 0 -30 -5 -30 -12 0 -6 -3 -8 -7 -5 -7 8 -33 -11 -33 -24 0 -5 72
-9 160 -9 154 0 160 1 160 20 0 23 -33 40 -68 34 -14 -3 -25 1 -28 11 -8 19
-33 19 -40 0z"/>
</g>
</svg>
