<svg width="59" height="52" viewBox="0 0 59 52" fill="none" xmlns="http://www.w3.org/2000/svg">
<rect width="59" height="52" rx="20" fill="#0A1B56"/>
<path d="M29.5 13C22.0561 13 16 18.6075 16 25.5V30.6787C16 31.9587 17.2109 33 18.7 33H20.05C20.408 33 20.7514 32.8683 21.0046 32.6339C21.2578 32.3995 21.4 32.0815 21.4 31.75V25.3213C21.4 24.9897 21.2578 24.6718 21.0046 24.4374C20.7514 24.2029 20.408 24.0713 20.05 24.0713H18.8242C19.5748 19.2338 24.0703 15.5 29.5 15.5C34.9297 15.5 39.4252 19.2338 40.1758 24.0713H38.95C38.592 24.0713 38.2486 24.2029 37.9954 24.4374C37.7422 24.6718 37.6 24.9897 37.6 25.3213V33C37.6 34.3788 36.3891 35.5 34.9 35.5H32.2V34.25H26.8V38H34.9C37.8781 38 40.3 35.7575 40.3 33C41.7891 33 43 31.9587 43 30.6787V25.5C43 18.6075 36.9439 13 29.5 13Z" fill="white"/>
</svg>
