<svg xmlns="http://www.w3.org/2000/svg" width="55.408" height="55.408" viewBox="0 0 55.408 55.408"><defs><style>.a{fill:#00cdac;}</style></defs><path class="a" d="M31.079,3.375a27.7,27.7,0,1,0,27.7,27.7A27.7,27.7,0,0,0,31.079,3.375Zm9.59,20.245a3.2,3.2,0,1,1-3.2,3.2A3.189,3.189,0,0,1,40.669,23.62Zm-19.18,0a3.2,3.2,0,1,1-3.2,3.2A3.189,3.189,0,0,1,21.489,23.62Zm9.59,22.51a13.077,13.077,0,0,1-12.547-9.417,1.07,1.07,0,0,1,1.026-1.372H42.587a1.072,1.072,0,0,1,1.026,1.372A13.049,13.049,0,0,1,31.079,46.13Z" transform="translate(-3.375 -3.375)"/></svg>