<svg xmlns="http://www.w3.org/2000/svg" width="46.621" height="46.491" viewBox="0 0 46.621 46.491">
  <path id="Path_3006" data-name="Path 3006" d="M1726.674-28.93V-26.2c-.027.145-.057.289-.08.436-.176,1.151-.252,2.328-.539,3.451-2.16,8.459-7.416,14.1-15.654,16.931-1.333.459-2.75.676-4.162,1.014V-22.721h5.575l.842-6.5h-6.427c0-1.618-.024-3.179.016-4.739a3.27,3.27,0,0,1,.336-1.306,2.291,2.291,0,0,1,2.145-1.209c1.21-.061,2.425-.047,3.638-.065.159,0,.319-.016.506-.027,0-1.87.005-3.689-.013-5.507a.452.452,0,0,0-.315-.3c-1.832-.081-3.666-.221-5.5-.181a7.538,7.538,0,0,0-4.808,1.789,7.781,7.781,0,0,0-2.687,5.811c-.092,1.725-.051,3.457-.068,5.186,0,.176,0,.352,0,.58h-5.575v6.51h5.55V-4.665a.4.4,0,0,1-.11.024,1.609,1.609,0,0,1-.179-.028,23.135,23.135,0,0,1-10.059-4.514,22.751,22.751,0,0,1-7.655-10.514,22.906,22.906,0,0,1,.329-16.614,23.345,23.345,0,0,1,20.741-14.535,22.619,22.619,0,0,1,11.853,2.76,22.95,22.95,0,0,1,11.936,16.509C1726.478-30.7,1726.556-29.813,1726.674-28.93Z" transform="translate(-1680.054 50.858)" fill="#fff"/>
</svg>
