<svg xmlns="http://www.w3.org/2000/svg" width="41.185" height="41.185" viewBox="0 0 41.185 41.185">
  <path id="Icon_feather-message-circle" data-name="Icon feather-message-circle" d="M42.685,22.532a17.777,17.777,0,0,1-1.909,8.061,18.032,18.032,0,0,1-16.123,9.971,17.777,17.777,0,0,1-8.061-1.909L4.5,42.685,8.531,30.593a17.777,17.777,0,0,1-1.909-8.061A18.032,18.032,0,0,1,16.592,6.409,17.777,17.777,0,0,1,24.653,4.5h1.061A17.989,17.989,0,0,1,42.685,21.471Z" transform="translate(-3 -3)" fill="none" stroke="#000" stroke-linecap="round" stroke-linejoin="round" stroke-width="3"/>
</svg>
