<svg xmlns="http://www.w3.org/2000/svg" width="56" height="56" viewBox="0 0 56 56"><defs><style>.a,.b{fill:none;}.a{stroke:#707070;}.c{fill:#707070;fill-rule:evenodd;}.d{stroke:none;}</style></defs><g transform="translate(-88 -449)"><g class="a" transform="translate(88 449)"><circle class="d" cx="28" cy="28" r="28"/><circle class="b" cx="28" cy="28" r="27.5"/></g><g transform="translate(108 469)"><rect class="b" width="16" height="16"/><path class="c" d="M16,4.4V5.9H14.5V7.4H13V5.8H11.5V4.4H13V2.9h1.5V4.4ZM5.1,4.4H9.9c0,.3.1.5.1.8a4.7,4.7,0,0,1-4.9,5A5.1,5.1,0,0,1,5.1,0,4.938,4.938,0,0,1,8.5,1.3L7.1,2.7a2.666,2.666,0,0,0-2-.8A3.222,3.222,0,0,0,1.9,5.1,3.159,3.159,0,0,0,5.1,8.3,2.724,2.724,0,0,0,8,6.1H5.1Z" transform="translate(0 3)"/></g></g></svg>