<svg xmlns="http://www.w3.org/2000/svg" width="23.672" height="14.795" viewBox="0 0 23.672 14.795">
  <path id="Icon_awesome-google-plus-g" data-name="Icon awesome-google-plus-g" d="M15.281,10.838a6.275,6.275,0,0,1,.121,1.231,6.823,6.823,0,0,1-7.1,7.226A7.4,7.4,0,0,1,8.3,4.5a7.066,7.066,0,0,1,4.955,1.938L11.244,8.365A4.154,4.154,0,0,0,8.3,7.225a4.673,4.673,0,0,0,0,9.345,4.007,4.007,0,0,0,4.2-3.189H8.3V10.838h6.984Zm7.143.248V8.938H20.267v2.147H18.12v2.158h2.147v2.147h2.158V13.243h2.147V11.086H22.424Z" transform="translate(-0.9 -4.5)" fill="#da2128"/>
</svg>
