<svg xmlns="http://www.w3.org/2000/svg" width="14.632" height="10.366" viewBox="0 0 14.632 10.366"><defs><style>.a{fill:#d1d1d1;}</style></defs><path class="a" d="M15.92,15.723c-.372-.142-.98-.149-1.249-.259a1.717,1.717,0,0,1-.578-.288,4.074,4.074,0,0,1-.1-1.012,1.633,1.633,0,0,0,.329-.5,5.877,5.877,0,0,0,.159-.977s.219.1.306-.369a3.3,3.3,0,0,0,.176-.916c-.04-.3-.193-.227-.193-.227a2.816,2.816,0,0,0,.193-1.329,2.052,2.052,0,0,0-2.147-2.1,2.059,2.059,0,0,0-2.15,2.1,2.859,2.859,0,0,0,.189,1.329s-.156-.071-.193.227a3.071,3.071,0,0,0,.176.916c.086.472.306.369.306.369a5.934,5.934,0,0,0,.159.977,1.633,1.633,0,0,0,.329.5,4.074,4.074,0,0,1-.1,1.012,1.651,1.651,0,0,1-.578.284c-.266.11-.874.124-1.249.266a2.491,2.491,0,0,0-1.522,2.387h9.247A2.486,2.486,0,0,0,15.92,15.723Z" transform="translate(-5.51 -7.748)"/><path class="a" d="M5.637,15.769a1.936,1.936,0,0,0,1.054-.335c-.489-.847-.224-1.834-.325-2.756s-.558-1.47-1.473-1.47H4.88c-.883,0-1.36.548-1.46,1.47s.18,2.017-.322,2.756a1.783,1.783,0,0,0,1.057.3h0a2.078,2.078,0,0,1-.032.605.757.757,0,0,1-.379.2,6.622,6.622,0,0,0-.817.259,1.541,1.541,0,0,0-.713,1.34H4.748a2.433,2.433,0,0,1,1.009-1.074,1.893,1.893,0,0,1,.779-.187s.12-.216-.274-.3a2.471,2.471,0,0,1-.606-.241A1.854,1.854,0,0,1,5.637,15.769Z" transform="translate(-2.215 -9.508)"/><path class="a" d="M24.861,15.769a1.936,1.936,0,0,1-1.054-.335c.489-.847.224-1.834.325-2.756s.558-1.47,1.473-1.47h.013c.883,0,1.36.548,1.46,1.47s-.18,2.017.322,2.756a1.783,1.783,0,0,1-1.057.3h0a2.078,2.078,0,0,0,.032.605.757.757,0,0,0,.379.2,6.623,6.623,0,0,1,.817.259,1.541,1.541,0,0,1,.713,1.34H25.751a2.433,2.433,0,0,0-1.009-1.074,1.893,1.893,0,0,0-.779-.187s-.12-.216.274-.3a2.471,2.471,0,0,0,.606-.241A1.854,1.854,0,0,0,24.861,15.769Z" transform="translate(-13.652 -9.508)"/></svg>