<svg xmlns="http://www.w3.org/2000/svg" width="64" height="64" viewBox="0 0 64 64">
  <g id="Group_3330" data-name="Group 3330" transform="translate(-1012 -1232)">
    <circle id="Ellipse_206" data-name="Ellipse 206" cx="32" cy="32" r="32" transform="translate(1012 1232)" fill="#ffe600" opacity="0.478"/>
    <path id="Icon_awesome-place-of-worship" data-name="Icon awesome-place-of-worship" d="M25.231,14.9,20.816,13.01v7.806h4.553a.65.65,0,0,0,.65-.65V16.1a1.3,1.3,0,0,0-.788-1.2ZM0,16.1v4.067a.65.65,0,0,0,.65.65H5.2V13.01L.788,14.9A1.3,1.3,0,0,0,0,16.1Zm18.883-6.069-1.97-1.182V4.173a1.3,1.3,0,0,0-.381-.92L13.47.191a.65.65,0,0,0-.92,0L9.488,3.253a1.3,1.3,0,0,0-.381.92V8.847l-1.97,1.182A1.3,1.3,0,0,0,6.5,11.145v9.671h3.9v-3.9a2.6,2.6,0,0,1,5.2,0v3.9h3.9V11.145a1.3,1.3,0,0,0-.632-1.116Z" transform="translate(1031.931 1251.646)" fill="#e2cb00"/>
  </g>
</svg>
