<svg xmlns="http://www.w3.org/2000/svg" width="64" height="64" viewBox="0 0 64 64">
  <g id="Group_3332" data-name="Group 3332" transform="translate(-355 -1521)">
    <circle id="Ellipse_205" data-name="Ellipse 205" cx="32" cy="32" r="32" transform="translate(355 1521)" fill="#0076ff" opacity="0.478"/>
    <path id="Icon_awesome-chess-queen" data-name="Icon awesome-chess-queen" d="M13.556,5.931A2.965,2.965,0,1,0,10.59,2.965,2.965,2.965,0,0,0,13.556,5.931Zm9.32,17.792H4.236a.847.847,0,0,0-.847.847v1.694a.847.847,0,0,0,.847.847H22.875a.847.847,0,0,0,.847-.847V24.57A.847.847,0,0,0,22.875,23.722ZM26.734,9.752l-1.51-.843a.866.866,0,0,0-1.18.248,2.52,2.52,0,0,1-2.5.965,2.636,2.636,0,0,1-2.057-2.634.71.71,0,0,0-.71-.71H16.724a.689.689,0,0,0-.681.525,2.542,2.542,0,0,1-4.974,0,.687.687,0,0,0-.681-.525H8.335a.71.71,0,0,0-.71.71A2.634,2.634,0,0,1,5.26,10.161a2.515,2.515,0,0,1-2.2-1.014.858.858,0,0,0-1.17-.24L.378,9.754a.847.847,0,0,0-.288,1.084l5.43,11.19H21.592l5.43-11.192a.847.847,0,0,0-.288-1.084Z" transform="translate(373 1538.007)" fill="#0d77f5"/>
  </g>
</svg>
