<svg xmlns="http://www.w3.org/2000/svg" width="64" height="64" viewBox="0 0 64 64">
  <g id="Group_3333" data-name="Group 3333" transform="translate(-793 -1521)">
    <circle id="Ellipse_207" data-name="Ellipse 207" cx="32" cy="32" r="32" transform="translate(793 1521)" fill="#ff752e" opacity="0.478"/>
    <path id="Icon_simple-livestream" data-name="Icon simple-livestream" d="M23.468,8.163l.046,0,.044.007.045.012.044.017.042.022.044.025.039.034.039.032.041.05.051.05.034.05.049.05.084.133.032.067.032.084.034.083.035.083.031.083.032.1.032.1.034.1.035.1.032.116.031.116.035.117.034.116.032.116.032.116.034.134.034.132.032.151.017.134.032.15.034.15.019.151.031.167.017.165.017.167.035.167.017.167.018.165.017.185.017.183.017.182.017.185.017.183.018.2.017.384.018.2.017.2.017.2.017.2.017.216.017.216.017.216.018.218.017.216v.434l.018.234.017.234v.451l.017.233V17.8l.017.469.017.7v1.419l.017.417.034.3.051.2.048.133.053.116.066.1.05.049.05.05.049.05.069.032.1.051.1.032.107.034.159.032.216.012.3-.018h.112V24.5l-.267.032-.633.029-.682-.032-.5-.075-.385-.1-.284-.1-.265-.133-.264-.168-.233-.206-.15-.15-.152-.167-.19-.3-.168-.35-.133-.382-.092-.451-.06-.51-.017-.568V18.7l-.017-.467V17.27l-.017-.45V16.5l-.018-.223v-.444l-.017-.217V15.4l-.009-.216-.017-.217-.016-.2,0-.2-.017-.2-.017-.2v-.2l-.017-.2-.019-.2-.013-.2-.016-.19-.019-.19-.017-.183-.017-.189-.017-.179-.016-.182-.017-.183L22.03,11.9l-.017-.165L22,11.554l-.017-.158-.017-.151-.049-.311-.018-.15-.017-.151-.034-.14-.029-.151-.032-.132-.034-.134-.035-.133-.038-.115-.032-.116L21.616,9.6l-.05-.1-.032-.116-.032-.1-.025-.1-.032-.1-.035-.1L21.376,8.9l-.032-.085-.032-.083-.034-.066-.034-.068-.032-.067-.049-.067-.034-.05-.04-.05-.035-.049-.046-.034-.031-.032-.051-.034-.031-.017-.051-.018-.055-.013-.049-.018L20.7,8.129h2.82l-.057.035ZM.009,4.623l1.307.023,1.218.029,1.085.017.952.034.816.032.718.032.634.034.566.032.518.051.467.049.433.051.4.049.368.051.35.049.316.068.3.066.282.066.268.067.249.067.234.067.217.084.217.066.2.083.182.085.186.083.165.083.183.083.165.1.151.1.151.1.133.1.133.1.133.1.133.1.116.1.116.116.116.1.117.116.1.116.1.116.116.117.1.116.1.116.083.116.1.117.083.133.083.116.083.133.084.134.083.133.083.134L15.574,9l.068.133.083.133.067.133.067.133.067.133.067.134.05.132.054.134.067.151.056.132.067.151.067.133.049.133.068.151.06.151.049.133.057.15.05.134.05.149.05.151.05.151.05.15.049.151.034.15.05.151.044.151.032.149.044.151.032.151.046.15.032.15.05.151.032.133.05.151v.016l.032.134.035.142.032.15.032.151.034.133.034.151.032.149.05.134.032.15.034.133.034.151.032.133.032.133.034.134L17.9,16l.032.134.034.133L18,16.4l.032.133.032.133.034.133.034.133.016.134.034.116.051.249.032.117.032.116.034.116.025.116.032.116.018.116.032.116.034.116.017.116.032.117.034.1.034.108.017.1.034.1.017.1.017.1.017.1.017.084.018.1.017.1.018.084.016.083.018.087.027.083.017.083.017.084.017.076.018.067.026.083.026.068.018.073.017.067.018.067.017.067.017.067.017.067.017.05.034.057.017.05.017.05.018.049.032.051.017.049.042.084.017.042.034.068.017.032.017.034.017.032.018.034.017.017.017.017.017.017.018.017.017.018.032.018.018,0,.017.017H11.681l-.057-.017-.064-.018-.064-.016-.067-.018-.067-.017h-.018l-.058-.027-.063-.017-.064-.035-.068-.034-.049-.032-.067-.034-.05-.032-.068-.034-.049-.05-.049-.05-.068-.05-.05-.05-.067-.049-.067-.067-.067-.063-.049-.067-.068-.06-.067-.05-.067-.067-.068-.067-.049-.067L10,20.5l-.066-.067-.05-.076-.06-.073-.133-.165-.066-.084-.05-.083-.068-.1-.066-.083-.068-.1L9.3,19.587l-.067-.1-.067-.1-.067-.1-.068-.1-.066-.1-.068-.1-.067-.1-.067-.116-.066-.1-.051-.116-.067-.117-.067-.116L8.448,18.2l-.068-.116-.066-.116-.067-.116-.067-.116-.068-.116L8.045,17.5l-.068-.116-.066-.116-.068-.133L7.776,17l-.067-.133-.068-.134L7.575,16.6l-.068-.133-.066-.133L7.373,16.2l-.151-.031-.055-.141L7.1,15.895l-.068-.138-.066-.14-.072-.14-.067-.142L6.762,15.2l-.072-.133-.067-.133-.07-.133-.067-.133L6.418,14.5l-.067-.15-.07-.133-.07-.134-.067-.15-.07-.133L6,13.651l-.067-.133-.067-.151-.067-.15-.067-.15-.065-.15-.066-.151-.068-.133-.066-.15-.066-.149-.066-.151-.067-.151-.067-.15-.133-.3-.067-.167-.067-.134-.066-.15L4.8,11l-.067-.133-.082-.132-.067-.151-.083-.134-.067-.132-.083-.134-.068-.133-.066-.134-.067-.133-.067-.133L4.021,9.5l-.134-.267L3.82,9.1l-.068-.133L3.669,8.83,3.586,8.7l-.151-.256L3.37,8.307l-.083-.123L3.2,8.05l-.066-.125-.068-.116-.14-.233-.083-.119-.068-.115-.065-.117-.068-.1-.067-.117-.07-.116-.074-.1-.066-.1-.083-.1-.085-.1-.066-.1-.084-.1-.1-.131-.075-.085L1.8,5.988l-.066-.083-.065-.112-.083-.083-.074-.067-.084-.077-.069-.073L1.275,5.4,1.2,5.336l-.073-.067L1.053,5.2.978,5.145.9,5.095l-.078-.05L.751,4.979.668,4.927.6,4.878.518,4.829.443,4.8.367,4.762.288,4.728.209,4.695.133,4.66.067,4.634,0,4.627H.009Z" transform="translate(809.163 1540.191)" fill="#ff6617"/>
  </g>
</svg>
