<svg xmlns="http://www.w3.org/2000/svg" width="77.064" height="68.501" viewBox="0 0 77.064 68.501">
  <path id="Icon_awesome-hand-holding-heart" data-name="Icon awesome-hand-holding-heart" d="M36.831,33.514a2.331,2.331,0,0,0,3.412,0L54.812,18.236a11.09,11.09,0,0,0-.749-15.894,10.17,10.17,0,0,0-14.034,1.03l-1.5,1.565L37.045,3.386A10.158,10.158,0,0,0,23.011,2.343a11.1,11.1,0,0,0-.749,15.894ZM75.628,43.9a4.429,4.429,0,0,0-5.7,0L57.567,53.783a8.517,8.517,0,0,1-5.351,1.873H36.389a2.141,2.141,0,0,1,0-4.281H46.865a4.454,4.454,0,0,0,4.455-3.559,4.286,4.286,0,0,0-4.228-5H25.687a15.746,15.746,0,0,0-9.913,3.519L9.552,51.375H2.141A2.147,2.147,0,0,0,0,53.515V66.358A2.147,2.147,0,0,0,2.141,68.5H49.875a8.573,8.573,0,0,0,5.351-1.873L75.454,50.438A4.279,4.279,0,0,0,75.628,43.9Z" transform="translate(0 0.002)" fill="#afafaf"/>
</svg>
