<svg id="Icon_simple-whatsapp" data-name="Icon simple-whatsapp" xmlns="http://www.w3.org/2000/svg" width="32" height="32" viewBox="0 0 32 32">
  <path id="Icon_simple-whatsapp-2" data-name="Icon simple-whatsapp" d="M23.331,19.176c-.4-.2-2.356-1.156-2.72-1.288s-.631-.2-.9.2-1.028,1.285-1.259,1.549-.465.28-.861.1a10.821,10.821,0,0,1-3.2-1.98A12.1,12.1,0,0,1,12.176,15c-.232-.4-.025-.62.173-.82.181-.18.4-.46.6-.7a3.38,3.38,0,0,0,.4-.661.733.733,0,0,0-.033-.7c-.1-.2-.9-2.16-1.229-2.941s-.649-.68-.9-.68c-.229-.02-.495-.02-.761-.02a1.5,1.5,0,0,0-1.063.479,4.451,4.451,0,0,0-1.393,3.3,7.8,7.8,0,0,0,1.625,4.1c.2.26,2.807,4.26,6.8,5.98.952.4,1.693.64,2.272.839a5.516,5.516,0,0,0,2.507.161,4.1,4.1,0,0,0,2.688-1.9,3.3,3.3,0,0,0,.24-1.9c-.1-.18-.36-.28-.76-.46M16.081,29H16.06a13.338,13.338,0,0,1-6.74-1.84l-.48-.285-5,1.3,1.34-4.86-.319-.5A13.224,13.224,0,0,1,25.457,6.5a13.051,13.051,0,0,1,3.879,9.32A13.24,13.24,0,0,1,16.089,29M27.36,4.6A16.189,16.189,0,0,0,16.06,0a15.853,15.853,0,0,0-13.8,23.784L0,32l8.447-2.2a16.083,16.083,0,0,0,7.613,1.929h.008A15.92,15.92,0,0,0,32,15.865,15.726,15.726,0,0,0,27.34,4.651" fill="#03989e"/>
</svg>
