<svg xmlns="http://www.w3.org/2000/svg" width="30.306" height="42.496" viewBox="0 0 30.306 42.496">
  <path id="Icon_metro-steps" data-name="Icon metro-steps" d="M14.805,3.856c-3.562,0-6.45,4.757-6.45,10.624,0,3.265.807,6.727,1.613,12.073.631,4.187,2.166,7.658,4.838,7.658s4.462-2.314,4.462-6.544c0-1.44-1.184-3.735-1.237-5.693-.1-3.532,2.368-4.941,2.368-8.205,0-5.867-2.031-9.913-5.593-9.913ZM32.21,16c-3.562,0-5.593,4.045-5.593,9.913,0,3.265,2.464,4.674,2.368,8.205-.053,1.958-1.237,4.252-1.237,5.693,0,4.23,1.79,6.544,4.462,6.544s4.207-3.47,4.838-7.658c.805-5.345,1.613-8.808,1.613-12.073C38.66,20.754,35.772,16,32.21,16Z" transform="translate(-8.355 -3.856)"/>
</svg>
