<svg xmlns="http://www.w3.org/2000/svg" width="53.364" height="42.629" viewBox="0 0 53.364 42.629"><path d="M0,33.745V37.3c0,2.939,8.964,5.329,20.012,5.329s20.012-2.39,20.012-5.329V33.745c-4.3,2.423-12.174,3.555-20.012,3.555S4.3,36.168,0,33.745ZM33.353,10.657c11.048,0,20.012-2.39,20.012-5.329S44.4,0,33.353,0,13.341,2.39,13.341,5.329,22.3,10.657,33.353,10.657ZM0,25.011v4.3c0,2.939,8.964,5.329,20.012,5.329s20.012-2.39,20.012-5.329v-4.3c-4.3,2.831-12.184,4.3-20.012,4.3S4.3,27.842,0,25.011Zm43.358.916c5.972-.924,10.006-2.639,10.006-4.613V17.759a29.9,29.9,0,0,1-10.006,2.872ZM20.012,13.322C8.964,13.322,0,16.3,0,19.982s8.964,6.661,20.012,6.661,20.012-2.981,20.012-6.661S31.06,13.322,20.012,13.322Zm22.857,4.688c6.254-.9,10.5-2.664,10.5-4.688V9.766c-3.7,2.09-10.058,3.214-16.749,3.48C39.69,14.437,41.951,16.036,42.869,18.009Z" opacity="0.5"/></svg>