<svg xmlns="http://www.w3.org/2000/svg" width="62.697" height="28.109" viewBox="0 0 62.697 28.109"><path d="M48.59,9.93a13.927,13.927,0,0,0-9.849,4l-7.393,6.557-3.971,3.5H27.4l-7.027,6.244a8.845,8.845,0,1,1-6.27-15.073,8.881,8.881,0,0,1,6.374,2.691l2.952,2.612,3.945-3.5-3.292-2.9a14.054,14.054,0,1,0-.131,19.985l7.393-6.531.026.026,3.945-3.553h-.026l7.027-6.244a8.845,8.845,0,1,1,6.27,15.073,8.925,8.925,0,0,1-6.374-2.691l-2.978-2.639-3.945,3.5,3.318,2.926A14.079,14.079,0,1,0,48.59,9.93Z" transform="translate(0 -9.93)" opacity="0.5"/></svg>