<svg xmlns="http://www.w3.org/2000/svg" width="18.223" height="15.447" viewBox="0 0 18.223 15.447">
  <path id="Icon_ionic-ios-share-alt" data-name="Icon ionic-ios-share-alt" d="M21.172,12.635l-6.179-5.78a.316.316,0,0,0-.245-.105c-.193.009-.438.145-.438.35V10a.187.187,0,0,1-.158.18c-6.144.942-8.732,5.54-9.647,10.313-.035.188.219.363.337.215A11.168,11.168,0,0,1,14.126,16a.217.217,0,0,1,.184.21v2.846a.376.376,0,0,0,.635.232l6.223-5.881a.484.484,0,0,0,.153-.368A.587.587,0,0,0,21.172,12.635Z" transform="translate(-3.798 -6.049)" fill="none" stroke="#000" stroke-width="1.4"/>
</svg>
