<svg xmlns="http://www.w3.org/2000/svg" width="32.158" height="32.157" viewBox="0 0 32.158 32.157">
  <path id="Icon_ionic-md-help-circle" data-name="Icon ionic-md-help-circle" d="M19.454,3.375A16.079,16.079,0,1,0,35.533,19.454,16.086,16.086,0,0,0,19.454,3.375Zm1.623,25.742H17.831V25.87h3.247Zm-.015-4.87H17.846c0-5.179,4.824-4.808,4.824-8.024A3.23,3.23,0,0,0,19.454,13a3.262,3.262,0,0,0-3.216,3.208H13.022a6.432,6.432,0,0,1,12.863.008C25.885,20.235,21.062,20.691,21.062,24.247Z" transform="translate(-3.375 -3.375)" fill="#333"/>
</svg>
