<svg id="Component_24_1" data-name="Component 24 – 1" xmlns="http://www.w3.org/2000/svg" width="28" height="28" viewBox="0 0 28 28">
  <g id="Group_4968" data-name="Group 4968" transform="translate(-1146 -714)">
    <text id="i" transform="translate(1158 735)" fill="#03989e" font-size="18" font-family="Poppins-Medium, Poppins" font-weight="500"><tspan x="0" y="0">i</tspan></text>
    <g id="Ellipse_405" data-name="Ellipse 405" transform="translate(1146 714)" fill="none" stroke="#03989e" stroke-width="2">
      <circle cx="14" cy="14" r="14" stroke="none"/>
      <circle cx="14" cy="14" r="13" fill="none"/>
    </g>
  </g>
  <rect id="Rectangle_3975" data-name="Rectangle 3975" width="1" height="1" transform="translate(14 8)" fill="#03989e"/>
  <g id="Icon_ionic-md-close-circle-outline" data-name="Icon ionic-md-close-circle-outline" transform="translate(-0.125 6.875)">
    <path id="Path_3186" data-name="Path 3186" d="M8.25,4.359A3.889,3.889,0,1,1,5.5,5.5,3.874,3.874,0,0,1,8.25,4.359m0-.984A4.875,4.875,0,1,0,13.125,8.25,4.874,4.874,0,0,0,8.25,3.375Z" fill="#fff"/>
    <path id="Path_3187" data-name="Path 3187" d="M15.563,14.88l-.682.682-1.755-1.755L11.37,15.563l-.682-.682,1.755-1.755L10.688,11.37l.682-.682,1.755,1.755,1.755-1.755.682.682-1.755,1.755Z" transform="translate(-4.875 -4.875)" fill="#fff"/>
  </g>
</svg>
