<svg xmlns="http://www.w3.org/2000/svg" width="46.529" height="46.587" viewBox="0 0 46.529 46.587">
  <g id="Group_4254" data-name="Group 4254" transform="translate(0)">
    <path id="Path_3003" data-name="Path 3003" d="M1655.558-35.058a22.539,22.539,0,0,0-.814-6.19c-1.627-5.283-5.229-8.418-10.632-9.192a66.82,66.82,0,0,0-9.392-.48q-6.323-.02-12.647.267a12.823,12.823,0,0,0-12.46,10.846,25.517,25.517,0,0,0-.454,4.389c-.053,5.19-.04,10.379-.013,15.555a18.841,18.841,0,0,0,1.24,7.084,12.372,12.372,0,0,0,10.166,7.951c2.2.347,4.469.293,6.71.427.24.013.48.04.72.067h8.738c.187-.027.387-.053.573-.067,2.014-.093,4.042-.107,6.043-.293a12.83,12.83,0,0,0,11.686-10.392,34.478,34.478,0,0,0,.574-6.83c0-.24.04-.48.053-.72V-32.643C1655.625-33.443,1655.585-34.244,1655.558-35.058ZM1651.9-19.809a15.956,15.956,0,0,1-.787,5.19,8.769,8.769,0,0,1-7.858,6.243c-3.615.36-7.271.347-10.539.494-3.776-.133-7.164-.227-10.566-.387a9.236,9.236,0,0,1-8.992-8.071,39.859,39.859,0,0,1-.4-5.656c-.04-4.536-.013-9.072.04-13.607a15.41,15.41,0,0,1,.867-5.323,8.688,8.688,0,0,1,7.724-5.963c3.829-.347,7.7-.36,11.553-.387,3.175-.027,6.364.12,9.552.253a9.265,9.265,0,0,1,9.032,8.071,38.347,38.347,0,0,1,.4,5.67C1651.983-28.788,1651.943-24.305,1651.9-19.809Z" transform="translate(-1609.122 50.921)" fill="#fff"/>
    <path id="Path_3004" data-name="Path 3004" d="M1629.32-42a11.379,11.379,0,0,0-11.38,11.366,11.4,11.4,0,0,0,11.353,11.393,11.4,11.4,0,0,0,11.393-11.366A11.39,11.39,0,0,0,1629.32-42Zm-.013,19.117a7.737,7.737,0,0,1-7.724-7.724,7.732,7.732,0,0,1,7.751-7.751,7.74,7.74,0,0,1,7.711,7.751A7.749,7.749,0,0,1,1629.306-22.883Z" transform="translate(-1606.177 53.901)" fill="#fff"/>
    <path id="Path_3005" data-name="Path 3005" d="M1636.635-44.73a2.741,2.741,0,0,0-2.735,2.748,2.741,2.741,0,0,0,2.735,2.708,2.722,2.722,0,0,0,2.722-2.748A2.722,2.722,0,0,0,1636.635-44.73Z" transform="translate(-1600.845 52.989)" fill="#fff"/>
  </g>
</svg>
