<svg xmlns="http://www.w3.org/2000/svg" width="29.235" height="29.235" viewBox="0 0 29.235 29.235"><path d="M17.993,3.375A14.618,14.618,0,1,0,32.61,17.993,14.615,14.615,0,0,0,17.993,3.375Zm7.484,10.577-9.4,9.438h-.007a1.269,1.269,0,0,1-.815.387,1.23,1.23,0,0,1-.822-.4L10.5,19.44a.28.28,0,0,1,0-.4l1.251-1.251a.272.272,0,0,1,.394,0l3.12,3.12,8.574-8.637a.278.278,0,0,1,.2-.084h0a.255.255,0,0,1,.2.084l1.23,1.272A.277.277,0,0,1,25.477,13.952Z" transform="translate(-3.375 -3.375)" fill="#2073b2"/></svg>