<svg width="25" height="23" viewBox="0 0 25 23" fill="none" xmlns="http://www.w3.org/2000/svg">
<path d="M1.95125 6.24998L12.5 11.5104L23.0488 6.24998M12.5 22V11.5M23.375 15.6666V7.33331C23.3746 6.96797 23.2627 6.60916 23.0506 6.29286C22.8385 5.97656 22.5337 5.7139 22.1667 5.53123L13.7083 1.36456C13.341 1.18171 12.9242 1.08545 12.5 1.08545C12.0758 1.08545 11.659 1.18171 11.2917 1.36456L2.83333 5.53123C2.46632 5.7139 2.16148 5.97656 1.94939 6.29286C1.73731 6.60916 1.62543 6.96797 1.625 7.33331V15.6666C1.62543 16.032 1.73731 16.3908 1.94939 16.7071C2.16148 17.0234 2.46632 17.2861 2.83333 17.4687L11.2917 21.6354C11.659 21.8182 12.0758 21.9145 12.5 21.9145C12.9242 21.9145 13.341 21.8182 13.7083 21.6354L22.1667 17.4687C22.5337 17.2861 22.8385 17.0234 23.0506 16.7071C23.2627 16.3908 23.3746 16.032 23.375 15.6666Z" stroke="white" stroke-width="2" stroke-linecap="round" stroke-linejoin="round"/>
</svg>
