<svg width="26" height="25" viewBox="0 0 26 25" fill="none" xmlns="http://www.w3.org/2000/svg">
<path d="M13 6.11111C13 4.75556 12.4943 3.45553 11.5941 2.49701C10.6939 1.53849 9.47304 1 8.2 1H1V20.1667H9.4C10.3548 20.1667 11.2705 20.5705 11.9456 21.2894C12.6207 22.0083 13 22.9833 13 24M13 6.11111V24M13 6.11111C13 4.75556 13.5057 3.45553 14.4059 2.49701C15.3061 1.53849 16.527 1 17.8 1H25V20.1667H16.6C15.6452 20.1667 14.7295 20.5705 14.0544 21.2894C13.3793 22.0083 13 22.9833 13 24" stroke="currentColor" stroke-width="2" stroke-linecap="round" stroke-linejoin="currentColor"/>
</svg>
