<svg width="29" height="25" viewBox="0 0 29 25" fill="none" xmlns="http://www.w3.org/2000/svg">
<path d="M3.95125 7.24998L14.5 12.5104L25.0488 7.24998M14.5 23V12.5M25.375 16.6666V8.33331C25.3746 7.96797 25.2627 7.60916 25.0506 7.29286C24.8385 6.97656 24.5337 6.7139 24.1667 6.53123L15.7083 2.36456C15.341 2.18171 14.9242 2.08545 14.5 2.08545C14.0758 2.08545 13.659 2.18171 13.2917 2.36456L4.83333 6.53123C4.46632 6.7139 4.16148 6.97656 3.94939 7.29286C3.73731 7.60916 3.62543 7.96797 3.625 8.33331V16.6666C3.62543 17.032 3.73731 17.3908 3.94939 17.7071C4.16148 18.0234 4.46632 18.2861 4.83333 18.4687L13.2917 22.6354C13.659 22.8182 14.0758 22.9145 14.5 22.9145C14.9242 22.9145 15.341 22.8182 15.7083 22.6354L24.1667 18.4687C24.5337 18.2861 24.8385 18.0234 25.0506 17.7071C25.2627 17.3908 25.3746 17.032 25.375 16.6666Z" stroke="currentColor" stroke-width="2" stroke-linecap="round" stroke-linejoin="round"/>
</svg>
