<?xml version="1.0" standalone="no"?>
<!DOCTYPE svg PUBLIC "-//W3C//DTD SVG 20010904//EN"
 "http://www.w3.org/TR/2001/REC-SVG-20010904/DTD/svg10.dtd">
<svg version="1.0" xmlns="http://www.w3.org/2000/svg"
 width="500.000000pt" height="350.000000pt" viewBox="0 0 500.000000 350.000000"
 preserveAspectRatio="xMidYMid meet">
<metadata>
Created by potrace 1.16, written by Peter Selinger 2001-2019
</metadata>
<g transform="translate(0.000000,350.000000) scale(0.100000,-0.100000)"
fill="#000000" stroke="none">
<path d="M1131 2287 c-5 -13 -12 -45 -16 -71 -4 -25 -11 -49 -16 -52 -5 -3 -7
-10 -3 -15 3 -5 10 -6 16 -3 7 4 8 2 4 -5 -4 -6 -12 -9 -17 -6 -16 10 -10 -7
7 -20 15 -10 15 -13 -1 -28 -10 -10 -12 -17 -5 -17 7 0 -2 -14 -19 -32 -17
-17 -31 -35 -31 -39 0 -3 17 -5 38 -2 27 2 33 1 22 -7 -13 -8 -13 -10 3 -10 9
0 17 3 17 8 0 4 30 7 67 7 59 0 67 2 69 20 3 19 11 51 48 188 9 32 16 64 16
72 0 19 -61 35 -133 35 -51 0 -58 -3 -66 -23z"/>
<path d="M1950 2000 c-23 -11 -47 -39 -69 -77 -19 -32 -48 -78 -64 -102 -21
-30 -27 -48 -21 -58 15 -25 28 -19 49 19 37 69 134 88 182 35 11 -12 26 -45
32 -72 11 -47 10 -55 -13 -105 -14 -30 -26 -72 -26 -92 0 -29 -6 -41 -26 -54
-22 -15 -27 -15 -36 -3 -7 10 -8 8 -3 -8 3 -12 1 -24 -5 -28 -6 -4 -9 -14 -6
-23 2 -10 8 -28 11 -41 7 -23 6 -23 -29 -17 -34 7 -49 -5 -26 -19 6 -4 10 -18
9 -33 -1 -15 2 -35 6 -44 4 -11 3 -18 -4 -18 -6 0 -11 -7 -11 -15 0 -18 -1
-18 56 1 26 9 58 14 73 11 16 -3 34 2 50 14 33 27 54 25 45 -3 -11 -38 -81
-155 -109 -185 -14 -15 -28 -38 -31 -50 -6 -21 -20 -27 -61 -26 -7 1 -13 -6
-13 -14 0 -8 -5 -11 -11 -8 -6 4 -17 -1 -24 -12 -7 -10 -36 -25 -65 -33 -40
-11 -57 -22 -81 -54 l-29 -40 1 50 c1 29 4 38 6 22 6 -38 23 -35 23 4 0 17 3
28 7 25 10 -11 32 13 26 29 -3 8 1 14 11 14 9 0 16 5 16 10 0 6 4 10 10 10 12
0 2 -29 -18 -52 -20 -24 -5 -22 43 6 23 13 39 30 39 40 -2 19 12 22 19 4 2 -7
8 -10 12 -6 5 5 4 18 -2 30 -5 13 -6 34 -2 48 22 76 -8 145 -59 135 -21 -4
-22 -3 -8 3 26 11 7 23 -42 28 -20 2 -57 5 -81 8 -44 6 -101 -16 -101 -39 0
-5 -13 -23 -30 -40 -16 -16 -51 -54 -77 -82 -28 -31 -57 -53 -69 -53 -11 0
-25 -5 -31 -11 -10 -10 -48 -16 -132 -22 -20 -1 -36 3 -38 11 -3 6 3 12 13 12
9 0 35 9 58 19 23 11 79 32 126 46 91 29 110 40 110 61 0 10 -9 12 -32 8 -32
-6 -32 -6 -13 11 11 9 13 13 5 9 -8 -4 -32 -24 -53 -43 -21 -20 -48 -39 -60
-43 -41 -12 -104 -8 -116 6 -14 16 -71 39 -71 28 0 -4 14 -20 32 -35 31 -26
31 -28 8 -22 -42 11 -66 32 -84 69 -17 35 -41 52 -29 19 5 -13 2 -15 -15 -11
-12 4 -22 2 -22 -3 0 -5 -4 -9 -10 -9 -5 0 -10 16 -10 36 0 21 -4 33 -10 29
-5 -3 -10 3 -10 14 0 14 -5 19 -16 14 -11 -4 -14 -1 -12 10 2 9 -1 15 -7 14
-5 -1 -9 -4 -8 -7 1 -3 4 -12 8 -21 4 -10 0 -19 -11 -23 -13 -5 -15 -4 -5 7 9
11 8 17 -4 27 -10 8 -13 21 -8 39 6 23 5 25 -10 12 -10 -7 -17 -10 -17 -5 0 5
-7 0 -15 -10 -8 -11 -15 -15 -15 -10 0 6 5 15 11 21 12 12 2 58 -17 74 -22 18
-29 -14 -16 -74 6 -29 14 -76 17 -105 4 -28 11 -49 16 -46 11 7 11 -1 0 -24
-13 -26 -35 -124 -33 -150 1 -13 -2 -21 -6 -18 -5 3 -9 -1 -9 -9 0 -26 35 3
42 35 4 18 11 27 17 24 7 -5 9 2 5 18 -5 18 -1 30 14 44 14 13 18 25 14 44 -3
16 -2 20 3 12 5 -7 15 -12 23 -10 8 2 15 -7 17 -19 2 -13 -1 -23 -7 -23 -6 0
-11 -4 -11 -10 0 -5 7 -10 16 -10 10 0 12 -5 7 -12 -4 -7 -6 -23 -5 -34 2 -13
-4 -24 -15 -29 -17 -7 -17 -8 2 -15 17 -7 17 -9 3 -9 -10 -1 -18 -8 -18 -17 0
-23 -27 -47 -36 -32 -4 6 -2 14 4 16 7 2 12 8 12 13 0 14 -26 11 -39 -5 -10
-12 -8 -19 8 -35 26 -26 28 -51 3 -28 -20 18 -37 23 -28 8 14 -22 -42 -87 -59
-69 -8 7 17 98 26 93 5 -4 6 0 4 7 -4 10 -52 14 -200 16 -190 4 -195 3 -195
-16 0 -12 8 -23 18 -26 9 -2 90 -6 179 -8 l162 -3 -5 -45 c-3 -25 -15 -75 -26
-112 l-20 -67 -112 5 c-61 2 -183 6 -271 8 -88 2 -164 5 -170 6 -5 1 -47 2
-93 1 l-83 -1 27 -49 28 -49 101 -6 c55 -3 195 -8 312 -12 l211 -6 16 24 c9
13 35 35 58 48 24 12 50 29 58 36 9 7 56 20 105 28 50 8 130 28 179 45 100 35
149 40 140 16 -4 -8 -2 -21 4 -28 5 -6 11 -21 13 -32 5 -29 -42 -103 -71 -114
-17 -7 -20 -10 -7 -10 13 -1 17 -10 17 -43 0 -57 9 -88 26 -88 8 0 13 5 11 11
-1 6 4 14 11 16 7 3 12 -4 13 -19 l0 -23 11 22 c12 26 31 29 283 43 99 6 227
15 285 20 58 6 174 10 258 10 140 0 153 1 151 18 -6 39 38 111 60 98 5 -3 11
-28 15 -56 4 -32 13 -53 24 -59 9 -5 137 -12 283 -16 l265 -7 15 79 15 78
-190 7 c-105 5 -248 11 -319 15 -70 5 -127 5 -127 1 0 -9 -194 -10 -265 -2
-53 7 -55 8 -90 105 -5 15 6 18 87 23 166 12 174 18 111 77 -60 57 -94 79
-119 79 -28 0 -31 -16 -7 -42 16 -18 16 -19 -4 -24 -12 -3 -27 -19 -33 -35 -8
-19 -20 -29 -33 -29 -11 0 -17 3 -14 7 4 3 2 12 -4 20 -9 10 -8 13 4 13 17 0
30 27 21 42 -5 7 -12 5 -20 -6 -17 -24 -37 -10 -29 21 4 19 1 26 -15 30 -34 9
-23 25 13 17 66 -15 66 -15 103 80 19 49 41 98 49 110 8 11 23 50 34 85 12 39
32 76 51 96 l32 33 -35 26 c-20 15 -38 34 -41 42 -7 18 26 79 64 119 39 40 92
177 98 247 7 91 -42 160 -155 217 -55 27 -153 28 -203 1z"/>
<path d="M3955 1973 c-21 -32 -32 -46 -59 -75 -16 -18 -21 -19 -30 -7 -30 38
-79 69 -111 69 -19 0 -50 7 -69 17 -71 33 -266 -16 -347 -88 -52 -46 -69 -48
-91 -11 -32 54 -55 67 -124 69 -56 1 -64 -1 -60 -15 2 -10 7 -47 11 -84 4 -37
10 -70 15 -73 18 -11 21 -57 5 -69 -15 -10 -13 -19 14 -88 39 -97 61 -200 66
-308 3 -71 1 -90 -15 -118 -11 -18 -20 -41 -21 -50 0 -10 -3 -12 -6 -5 -6 16
-58 -9 -67 -32 -3 -9 -2 -14 3 -11 14 9 71 -5 71 -17 0 -6 -21 -30 -47 -54
-56 -52 -59 -50 -94 56 -48 148 -119 466 -119 537 0 23 -9 64 -21 91 -17 40
-22 45 -30 30 -6 -9 -16 -17 -24 -17 -28 0 -85 143 -85 213 0 33 -4 34 -42 2
-16 -14 -36 -25 -44 -25 -17 0 -17 1 -2 -58 6 -26 22 -60 36 -76 20 -25 23
-37 18 -68 -6 -39 18 -137 50 -201 8 -16 14 -49 14 -74 0 -36 5 -49 25 -65 14
-11 25 -23 25 -28 0 -5 5 -21 10 -35 10 -26 11 -27 35 -11 30 20 45 20 45 1 0
-8 5 -15 10 -15 6 0 10 -9 10 -20 0 -11 5 -20 10 -20 14 0 12 -26 -3 -42 -9
-8 -11 -21 -6 -33 12 -31 10 -45 -6 -45 -7 0 -18 -6 -22 -13 -4 -7 -26 -17
-47 -22 -52 -13 -57 -32 -12 -41 49 -9 75 0 116 38 l35 33 1 -56 c1 -52 33
-144 55 -159 10 -7 0 -50 -12 -50 -5 0 -9 6 -9 14 0 17 -112 23 -296 18 -119
-4 -122 -5 -133 -29 -7 -14 -10 -27 -9 -28 6 -6 419 -25 428 -20 5 3 10 0 13
-7 2 -7 3 -4 1 7 -2 12 5 26 15 32 11 7 22 26 26 44 5 22 10 28 15 19 6 -10
16 -6 39 18 24 23 31 26 31 14 1 -29 15 4 55 123 20 60 38 112 41 115 15 14
-3 -108 -18 -129 -10 -13 -16 -26 -13 -29 6 -6 71 25 90 44 14 15 15 14 11
-10 -4 -25 8 -38 16 -15 2 5 11 7 21 3 15 -5 17 -12 11 -33 -5 -14 -8 -43 -7
-63 1 -21 -3 -38 -8 -38 -6 0 -5 -8 1 -19 6 -13 7 -22 0 -26 -5 -3 -6 -13 -3
-21 4 -10 -4 -25 -21 -40 -27 -25 -38 -12 -13 16 10 12 9 12 -5 1 -17 -13 -26
-71 -11 -71 4 0 17 12 28 26 20 25 21 25 22 5 1 -12 -4 -21 -12 -21 -7 0 -15
-6 -18 -14 -5 -11 0 -13 22 -6 25 7 28 6 23 -12 -4 -16 -10 -19 -35 -14 -17 4
-33 10 -37 14 -3 4 -18 9 -35 11 l-30 3 20 -22 20 -23 -23 8 c-21 6 -23 4 -17
-14 4 -13 2 -21 -5 -21 -6 0 -8 -5 -5 -10 4 -6 -1 -24 -9 -42 -9 -17 -16 -42
-16 -55 0 -12 -4 -23 -10 -23 -5 0 -10 -9 -10 -19 0 -10 -7 -21 -15 -25 -41
-15 -1 -24 143 -32 86 -4 175 -8 197 -8 22 -1 43 -5 48 -11 17 -23 27 26 28
140 1 66 3 144 5 173 2 28 0 52 -5 52 -9 0 -36 -52 -44 -85 -3 -11 -5 0 -6 25
-1 29 -9 58 -24 80 -13 19 -26 43 -30 53 -10 27 33 21 62 -8 43 -46 49 -37 53
88 4 101 -6 110 -61 53 -32 -33 -79 -57 -64 -33 4 7 8 23 9 37 2 41 3 42 24
35 11 -3 20 -4 20 0 0 3 -34 44 -75 92 -87 100 -99 130 -91 247 20 311 25 326
111 375 60 34 79 37 122 20 15 -7 41 -11 56 -10 54 5 95 -61 117 -186 l7 -43
-32 0 c-50 0 -88 -10 -115 -30 -23 -17 -23 -19 -7 -44 18 -27 47 -35 47 -13 1
8 5 6 13 -4 10 -13 24 -15 67 -11 30 2 58 10 62 16 12 18 19 0 22 -60 4 -75
-5 -99 -44 -113 -25 -8 -38 -7 -61 4 -25 14 -29 14 -29 1 0 -8 5 -18 10 -21
25 -16 -49 -52 -97 -48 -21 1 -15 -14 7 -20 11 -3 20 -2 20 3 0 4 10 6 23 6
12 -1 30 2 40 6 10 5 17 5 17 0 0 -5 48 -13 108 -16 159 -10 322 -28 327 -36
3 -4 0 -77 -5 -161 -5 -85 -10 -199 -12 -254 l-3 -100 51 3 c36 2 66 -4 107
-23 96 -42 253 -28 343 32 30 19 30 30 2 39 -28 9 -51 6 -60 -9 -14 -23 -36
13 -32 53 3 30 0 40 -14 45 -9 3 -37 32 -62 65 -51 66 -53 89 -14 156 44 75
26 170 -39 197 -74 32 -106 38 -128 27 -33 -18 -48 3 -26 39 21 36 21 41 0 39
-62 -5 -81 2 -103 39 -12 20 -26 61 -31 92 -6 31 -24 79 -40 107 -34 61 -35
68 -9 126 16 37 30 50 81 77 44 23 65 29 72 22 6 -6 21 -11 33 -11 12 0 27 -7
34 -15 7 -8 22 -15 34 -15 47 0 66 -12 75 -48 12 -43 8 -52 -28 -52 -33 0 -51
-16 -51 -47 0 -24 32 -43 77 -46 17 -2 23 -8 23 -27 0 -52 18 -1 34 95 22 139
21 163 -13 217 -42 67 -105 99 -208 105 -73 5 -85 3 -120 -18 -67 -42 -112
-89 -119 -125 -8 -44 -20 -43 -39 3 -24 56 -22 74 14 142 34 65 37 92 6 44z
m443 -837 c0 -28 -25 -40 -75 -37 -36 3 -45 -14 -13 -24 23 -7 25 -23 8 -60
-9 -19 -9 -28 0 -37 7 -7 12 -19 12 -27 0 -11 -5 -9 -16 7 -8 12 -26 22 -39
22 -13 0 -27 5 -30 10 -3 6 -17 10 -30 10 -34 0 -38 26 -8 50 15 11 34 38 44
60 18 40 29 45 110 49 32 1 37 -2 37 -23z"/>
<path d="M4640 510 c0 -6 -15 -8 -40 -4 -31 5 -40 3 -40 -8 0 -11 -25 -19 -87
-31 -49 -8 -101 -21 -118 -27 -16 -7 -46 -13 -65 -15 -19 -1 -63 -11 -97 -23
-35 -11 -65 -17 -68 -12 -6 10 29 33 78 51 20 7 37 16 37 20 0 7 -18 2 -170
-50 l-85 -28 50 -8 c105 -17 683 12 727 36 10 5 24 9 32 9 8 0 15 8 15 18 0 9
3 33 6 52 3 19 2 29 -1 23 -3 -7 -18 -13 -33 -13 -16 0 -43 -5 -61 -12 -26 -9
-35 -9 -38 0 -5 17 -42 36 -42 22z"/>
<path d="M0 135 l0 -135 1150 0 1150 0 0 35 c0 39 33 113 59 131 31 23 38 6
33 -81 l-5 -85 1307 0 1306 0 0 91 0 92 -502 -8 c-464 -7 -1620 -8 -1921 -1
-113 3 -132 6 -157 25 -35 25 -39 26 -55 4 -11 -15 -35 -17 -216 -15 -215 3
-1071 29 -1174 37 -33 2 -166 9 -295 15 -129 6 -311 15 -405 20 -93 5 -194 10
-222 10 l-53 0 0 -135z"/>
</g>
</svg>
