<svg xmlns="http://www.w3.org/2000/svg" xmlns:xlink="http://www.w3.org/1999/xlink" width="375" height="718" viewBox="0 0 375 718">
  <defs>
    <filter id="Rectangle_3768" x="171.859" y="234.563" width="180.141" height="63.566" filterUnits="userSpaceOnUse">
      <feOffset dy="3" input="SourceAlpha"/>
      <feGaussianBlur stdDeviation="3" result="blur"/>
      <feFlood flood-opacity="0.161"/>
      <feComposite operator="in" in2="blur"/>
      <feComposite in="SourceGraphic"/>
    </filter>
    <filter id="Rectangle_3773" x="179" y="42.217" width="166.859" height="63.566" filterUnits="userSpaceOnUse">
      <feOffset dy="3" input="SourceAlpha"/>
      <feGaussianBlur stdDeviation="3" result="blur-2"/>
      <feFlood flood-opacity="0.161"/>
      <feComposite operator="in" in2="blur-2"/>
      <feComposite in="SourceGraphic"/>
    </filter>
    <filter id="Rectangle_3770" x="178.5" y="429.217" width="166.859" height="63.566" filterUnits="userSpaceOnUse">
      <feOffset dy="3" input="SourceAlpha"/>
      <feGaussianBlur stdDeviation="3" result="blur-3"/>
      <feFlood flood-opacity="0.161"/>
      <feComposite operator="in" in2="blur-3"/>
      <feComposite in="SourceGraphic"/>
    </filter>
    <filter id="Rectangle_3772" x="178.5" y="622.217" width="166.859" height="63.566" filterUnits="userSpaceOnUse">
      <feOffset dy="3" input="SourceAlpha"/>
      <feGaussianBlur stdDeviation="3" result="blur-4"/>
      <feFlood flood-opacity="0.161"/>
      <feComposite operator="in" in2="blur-4"/>
      <feComposite in="SourceGraphic"/>
    </filter>
    <filter id="Master_Level" x="208.93" y="442" width="107" height="38" filterUnits="userSpaceOnUse">
      <feOffset dy="3" input="SourceAlpha"/>
      <feGaussianBlur stdDeviation="3" result="blur-5"/>
      <feFlood flood-opacity="0.161"/>
      <feComposite operator="in" in2="blur-5"/>
      <feComposite in="SourceGraphic"/>
    </filter>
    <filter id="Expert_Level" x="211" y="635" width="102" height="38" filterUnits="userSpaceOnUse">
      <feOffset dy="3" input="SourceAlpha"/>
      <feGaussianBlur stdDeviation="3" result="blur-6"/>
      <feFlood flood-opacity="0.161"/>
      <feComposite operator="in" in2="blur-6"/>
      <feComposite in="SourceGraphic"/>
    </filter>
    <filter id="Polygon_25" x="34.5" y="8.5" width="127.691" height="127.691" filterUnits="userSpaceOnUse">
      <feOffset dy="3" input="SourceAlpha"/>
      <feGaussianBlur stdDeviation="3.5" result="blur-7"/>
      <feFlood flood-color="#ff9195" flood-opacity="0.612"/>
      <feComposite operator="in" in2="blur-7"/>
      <feComposite in="SourceGraphic"/>
    </filter>
    <filter id="Polygon_27" x="34.5" y="202.5" width="127.691" height="127.691" filterUnits="userSpaceOnUse">
      <feOffset dy="3" input="SourceAlpha"/>
      <feGaussianBlur stdDeviation="3.5" result="blur-8"/>
      <feFlood flood-color="#ff6368" flood-opacity="0.69"/>
      <feComposite operator="in" in2="blur-8"/>
      <feComposite in="SourceGraphic"/>
    </filter>
    <filter id="Polygon_30" x="34.5" y="395.569" width="127.691" height="127.691" filterUnits="userSpaceOnUse">
      <feOffset dy="3" input="SourceAlpha"/>
      <feGaussianBlur stdDeviation="3.5" result="blur-9"/>
      <feFlood flood-color="#f52d34" flood-opacity="0.522"/>
      <feComposite operator="in" in2="blur-9"/>
      <feComposite in="SourceGraphic"/>
    </filter>
    <filter id="Polygon_35" x="33" y="587.139" width="130.692" height="130.692" filterUnits="userSpaceOnUse">
      <feOffset dy="3" input="SourceAlpha"/>
      <feGaussianBlur stdDeviation="3" result="blur-10"/>
      <feFlood flood-color="#da2128" flood-opacity="0.639"/>
      <feComposite operator="in" in2="blur-10"/>
      <feComposite in="SourceGraphic"/>
    </filter>
  </defs>
  <g id="Group_4783" data-name="Group 4783" transform="translate(0 -2932)">
    <rect id="Rectangle_3766" data-name="Rectangle 3766" width="375" height="52" transform="translate(0 2977)" fill="#ff9195"/>
    <rect id="Rectangle_3767" data-name="Rectangle 3767" width="375" height="52" transform="translate(0 3169)" fill="#ff6368"/>
    <rect id="Rectangle_3769" data-name="Rectangle 3769" width="375" height="52" transform="translate(0 3364)" fill="#f52d34"/>
    <rect id="Rectangle_3771" data-name="Rectangle 3771" width="375" height="52" transform="translate(0 3557)" fill="#da2128"/>
    <g id="Ellipse_386" data-name="Ellipse 386" transform="translate(36 2939)" fill="#fff" stroke="#fff" stroke-width="7">
      <circle cx="62" cy="62" r="62" stroke="none"/>
      <circle cx="62" cy="62" r="65.5" fill="none"/>
    </g>
    <g id="Ellipse_387" data-name="Ellipse 387" transform="translate(36 3131)" fill="#fff" stroke="#fff" stroke-width="7">
      <circle cx="62" cy="62" r="62" stroke="none"/>
      <circle cx="62" cy="62" r="65.5" fill="none"/>
    </g>
    <g id="Ellipse_388" data-name="Ellipse 388" transform="translate(36 3326)" fill="#fff" stroke="#fff" stroke-width="7">
      <circle cx="62" cy="62" r="62" stroke="none"/>
      <circle cx="62" cy="62" r="65.5" fill="none"/>
    </g>
    <g id="Ellipse_389" data-name="Ellipse 389" transform="translate(36 3519)" fill="#fff" stroke="#fff" stroke-width="7">
      <circle cx="62" cy="62" r="62" stroke="none"/>
      <circle cx="62" cy="62" r="65.5" fill="none"/>
    </g>
    <g transform="matrix(1, 0, 0, 1, 0, 2932)" filter="url(#Rectangle_3768)">
      <rect id="Rectangle_3768-2" data-name="Rectangle 3768" width="162.141" height="45.566" rx="22.783" transform="translate(180.86 240.56)" fill="#fff"/>
    </g>
    <g transform="matrix(1, 0, 0, 1, 0, 2932)" filter="url(#Rectangle_3773)">
      <rect id="Rectangle_3773-2" data-name="Rectangle 3773" width="148.859" height="45.566" rx="22.783" transform="translate(188 48.22)" fill="#fff"/>
    </g>
    <g transform="matrix(1, 0, 0, 1, 0, 2932)" filter="url(#Rectangle_3770)">
      <rect id="Rectangle_3770-2" data-name="Rectangle 3770" width="148.859" height="45.566" rx="22.783" transform="translate(187.5 435.22)" fill="#fff"/>
    </g>
    <g transform="matrix(1, 0, 0, 1, 0, 2932)" filter="url(#Rectangle_3772)">
      <rect id="Rectangle_3772-2" data-name="Rectangle 3772" width="148.859" height="45.566" rx="22.783" transform="translate(187.5 628.22)" fill="#fff"/>
    </g>
    <text id="Beginner_Level" data-name="Beginner Level" transform="translate(210 3008.217)" fill="#292929" font-size="14" font-family="Poppins-SemiBold, Poppins" font-weight="600"><tspan x="0" y="0">Beginner Level</tspan></text>
    <text id="Intermediate_Level" data-name="Intermediate Level" transform="translate(196.43 3200.346)" fill="#292929" font-size="14" font-family="Poppins-SemiBold, Poppins" font-weight="600"><tspan x="0" y="0">Intermediate Level</tspan></text>
    <g transform="matrix(1, 0, 0, 1, 0, 2932)" filter="url(#Master_Level)">
      <text id="Master_Level-2" data-name="Master Level" transform="translate(217.93 463)" fill="#292929" font-size="14" font-family="Poppins-SemiBold, Poppins" font-weight="600"><tspan x="0" y="0">Master Level</tspan></text>
    </g>
    <g transform="matrix(1, 0, 0, 1, 0, 2932)" filter="url(#Expert_Level)">
      <text id="Expert_Level-2" data-name="Expert Level" transform="translate(220 656)" fill="#292929" font-size="14" font-family="Poppins-SemiBold, Poppins" font-weight="600"><tspan x="0" y="0">Expert Level</tspan></text>
    </g>
    <g id="Group_4769" data-name="Group 4769" transform="translate(-2.837 -1543.783)">
      <g transform="matrix(1, 0, 0, 1, 2.84, 4475.78)" filter="url(#Polygon_25)">
        <path id="Polygon_25-2" data-name="Polygon 25" d="M44.153,9.192a13,13,0,0,1,18.385,0L97.5,44.153a13,13,0,0,1,0,18.385L62.538,97.5a13,13,0,0,1-18.385,0L9.192,62.538a13,13,0,0,1,0-18.385Z" transform="translate(45 16)" fill="#fff"/>
      </g>
      <g id="Polygon_24" data-name="Polygon 24" transform="translate(44.837 4488.783)" fill="#fff">
        <path d="M 56.34585952758789 106.3071060180664 C 53.14052963256836 106.3071060180664 50.1270751953125 105.0588760375977 47.86057281494141 102.7923736572266 L 9.899474143981934 64.83121490478516 C 7.632973670959473 62.56472015380859 6.384759426116943 59.55124664306641 6.384759426116943 56.345947265625 C 6.384759426116943 53.14063262939453 7.632973670959473 50.12716293334961 9.899474143981934 47.86066055297852 L 47.86057281494141 9.899504661560059 C 50.12705993652344 7.633004188537598 53.14052963256836 6.384789943695068 56.34585952758789 6.384789943695068 C 59.55117416381836 6.384789943695068 62.56464385986328 7.633004188537598 64.83114624023438 9.899504661560059 L 102.7922286987305 47.86066055297852 C 105.0587463378906 50.12716293334961 106.3069610595703 53.14063262939453 106.3069610595703 56.345947265625 C 106.3069610595703 59.55124664306641 105.0587463378906 62.56472015380859 102.7922439575195 64.83121490478516 L 64.83113098144531 102.7923736572266 C 62.56463241577148 105.0588760375977 59.55117416381836 106.3071060180664 56.34585952758789 106.3071060180664 Z" stroke="none"/>
        <path d="M 56.34584426879883 7.384780883789062 C 53.40764236450195 7.384780883789062 50.64530563354492 8.528976440429688 48.56767272949219 10.60662078857422 L 10.60658264160156 48.56777954101562 C 8.528968811035156 50.64539337158203 7.384765625 53.40773010253906 7.384765625 56.34593200683594 C 7.384765625 59.28414916992188 8.528968811035156 62.04648590087891 10.60658264160156 64.12409973144531 L 48.56767272949219 102.0852508544922 C 50.64529037475586 104.1628875732422 53.40762710571289 105.3070831298828 56.34584426879883 105.3070831298828 C 59.28406143188477 105.3070831298828 62.0463981628418 104.1628875732422 64.1240234375 102.0852508544922 L 102.0851211547852 64.12409973144531 C 104.1627502441406 62.04648590087891 105.3069534301758 59.28414916992188 105.3069534301758 56.345947265625 C 105.3069534301758 53.40774536132812 104.1627502441406 50.64540863037109 102.0851211547852 48.56777954101562 L 64.1240234375 10.60662078857422 C 62.0463981628418 8.528976440429688 59.28404235839844 7.384780883789062 56.34584426879883 7.384780883789062 M 56.34585189819336 5.384788513183594 C 59.67284393310547 5.384788513183594 62.99983596801758 6.65399169921875 65.53823852539062 9.192405700683594 L 103.4993362426758 47.153564453125 C 108.5761489868164 52.23037719726562 108.5761489868164 60.46151733398438 103.4993362426758 65.53831481933594 L 65.53823852539062 103.4994735717773 C 60.46142959594727 108.576301574707 52.23027801513672 108.576301574707 47.15345764160156 103.4994735717773 L 9.192367553710938 65.53831481933594 C 4.115570068359375 60.46150207519531 4.115570068359375 52.23037719726562 9.192367553710938 47.153564453125 L 47.15345764160156 9.192405700683594 C 49.69186782836914 6.65399169921875 53.01885986328125 5.384788513183594 56.34585189819336 5.384788513183594 Z" stroke="none" fill="#ff9195"/>
      </g>
      <path id="Polygon_9" data-name="Polygon 9" d="M36.626,5.657a8,8,0,0,1,11.314,0L78.909,36.626a8,8,0,0,1,0,11.314L47.94,78.909a8,8,0,0,1-11.314,0L5.657,47.94a8,8,0,0,1,0-11.314Z" transform="translate(58.899 4502.846)" fill="#ff9195"/>
      <text id="_1" data-name="1" transform="translate(96.683 4555.129)" fill="#fff" font-size="29" font-family="Poppins-Regular, Poppins"><tspan x="0" y="0">1</tspan></text>
    </g>
    <g id="Group_4771" data-name="Group 4771" transform="translate(-11034 -1419)">
      <g transform="matrix(1, 0, 0, 1, 11034, 4351)" filter="url(#Polygon_27)">
        <path id="Polygon_27-2" data-name="Polygon 27" d="M44.153,9.192a13,13,0,0,1,18.385,0L97.5,44.153a13,13,0,0,1,0,18.385L62.538,97.5a13,13,0,0,1-18.385,0L9.192,62.538a13,13,0,0,1,0-18.385Z" transform="translate(45 210)" fill="#fff"/>
      </g>
      <g id="Polygon_26" data-name="Polygon 26" transform="translate(11076 4558)" fill="#fff">
        <path d="M 56.34585952758789 106.3071060180664 C 53.14052963256836 106.3071060180664 50.1270751953125 105.0588760375977 47.86057281494141 102.7923736572266 L 9.899474143981934 64.83121490478516 C 7.632973670959473 62.56472015380859 6.384759426116943 59.55124664306641 6.384759426116943 56.345947265625 C 6.384759426116943 53.14063262939453 7.632973670959473 50.12716293334961 9.899474143981934 47.86066055297852 L 47.86057281494141 9.899504661560059 C 50.12705993652344 7.633004188537598 53.14052963256836 6.384789943695068 56.34585952758789 6.384789943695068 C 59.55117416381836 6.384789943695068 62.56464385986328 7.633004188537598 64.83114624023438 9.899504661560059 L 102.7922286987305 47.86066055297852 C 105.0587463378906 50.12716293334961 106.3069610595703 53.14063262939453 106.3069610595703 56.345947265625 C 106.3069610595703 59.55124664306641 105.0587463378906 62.56472015380859 102.7922439575195 64.83121490478516 L 64.83113098144531 102.7923736572266 C 62.56463241577148 105.0588760375977 59.55117416381836 106.3071060180664 56.34585952758789 106.3071060180664 Z" stroke="none"/>
        <path d="M 56.34584426879883 7.384780883789062 C 53.40764236450195 7.384780883789062 50.64530563354492 8.528976440429688 48.56767272949219 10.60662078857422 L 10.60658264160156 48.56777954101562 C 8.528968811035156 50.64539337158203 7.384765625 53.40773010253906 7.384765625 56.34593200683594 C 7.384765625 59.28414916992188 8.528968811035156 62.04648590087891 10.60658264160156 64.12409973144531 L 48.56767272949219 102.0852508544922 C 50.64529037475586 104.1628875732422 53.40762710571289 105.3070831298828 56.34584426879883 105.3070831298828 C 59.28406143188477 105.3070831298828 62.0463981628418 104.1628875732422 64.1240234375 102.0852508544922 L 102.0851211547852 64.12409973144531 C 104.1627502441406 62.04648590087891 105.3069534301758 59.28414916992188 105.3069534301758 56.345947265625 C 105.3069534301758 53.40774536132812 104.1627502441406 50.64540863037109 102.0851211547852 48.56777954101562 L 64.1240234375 10.60662078857422 C 62.0463981628418 8.528976440429688 59.28404235839844 7.384780883789062 56.34584426879883 7.384780883789062 M 56.34585189819336 5.384788513183594 C 59.67284393310547 5.384788513183594 62.99983596801758 6.65399169921875 65.53823852539062 9.192405700683594 L 103.4993362426758 47.153564453125 C 108.5761489868164 52.23037719726562 108.5761489868164 60.46151733398438 103.4993362426758 65.53831481933594 L 65.53823852539062 103.4994735717773 C 60.46142959594727 108.576301574707 52.23027801513672 108.576301574707 47.15345764160156 103.4994735717773 L 9.192367553710938 65.53831481933594 C 4.115570068359375 60.46150207519531 4.115570068359375 52.23037719726562 9.192367553710938 47.153564453125 L 47.15345764160156 9.192405700683594 C 49.69186782836914 6.65399169921875 53.01885986328125 5.384788513183594 56.34585189819336 5.384788513183594 Z" stroke="none" fill="#ff6368"/>
      </g>
      <path id="Polygon_28" data-name="Polygon 28" d="M36.626,5.657a8,8,0,0,1,11.314,0L78.909,36.626a8,8,0,0,1,0,11.314L47.94,78.909a8,8,0,0,1-11.314,0L5.657,47.94a8,8,0,0,1,0-11.314Z" transform="translate(11090 4572)" fill="#ff6368"/>
      <text id="_2" data-name="2" transform="translate(11123.846 4624.129)" fill="#fff" font-size="29" font-family="Poppins-Regular, Poppins"><tspan x="0" y="0">2</tspan></text>
    </g>
    <g id="Group_4772" data-name="Group 4772" transform="translate(-11034 -1412.931)">
      <g transform="matrix(1, 0, 0, 1, 11034, 4344.93)" filter="url(#Polygon_30)">
        <path id="Polygon_30-2" data-name="Polygon 30" d="M44.153,9.192a13,13,0,0,1,18.385,0L97.5,44.153a13,13,0,0,1,0,18.385L62.538,97.5a13,13,0,0,1-18.385,0L9.192,62.538a13,13,0,0,1,0-18.385Z" transform="translate(45 403.07)" fill="#fff"/>
      </g>
      <g id="Polygon_29" data-name="Polygon 29" transform="translate(11076 4745)" fill="#fff">
        <path d="M 56.34585952758789 106.3071060180664 C 53.14052963256836 106.3071060180664 50.1270751953125 105.0588760375977 47.86057281494141 102.7923736572266 L 9.899474143981934 64.83121490478516 C 7.632973670959473 62.56472015380859 6.384759426116943 59.55124664306641 6.384759426116943 56.345947265625 C 6.384759426116943 53.14063262939453 7.632973670959473 50.12716293334961 9.899474143981934 47.86066055297852 L 47.86057281494141 9.899504661560059 C 50.12705993652344 7.633004188537598 53.14052963256836 6.384789943695068 56.34585952758789 6.384789943695068 C 59.55117416381836 6.384789943695068 62.56464385986328 7.633004188537598 64.83114624023438 9.899504661560059 L 102.7922286987305 47.86066055297852 C 105.0587463378906 50.12716293334961 106.3069610595703 53.14063262939453 106.3069610595703 56.345947265625 C 106.3069610595703 59.55124664306641 105.0587463378906 62.56472015380859 102.7922439575195 64.83121490478516 L 64.83113098144531 102.7923736572266 C 62.56463241577148 105.0588760375977 59.55117416381836 106.3071060180664 56.34585952758789 106.3071060180664 Z" stroke="none"/>
        <path d="M 56.34584426879883 7.384780883789062 C 53.40764236450195 7.384780883789062 50.64530563354492 8.528976440429688 48.56767272949219 10.60662078857422 L 10.60658264160156 48.56777954101562 C 8.528968811035156 50.64539337158203 7.384765625 53.40773010253906 7.384765625 56.34593200683594 C 7.384765625 59.28414916992188 8.528968811035156 62.04648590087891 10.60658264160156 64.12409973144531 L 48.56767272949219 102.0852508544922 C 50.64529037475586 104.1628875732422 53.40762710571289 105.3070831298828 56.34584426879883 105.3070831298828 C 59.28406143188477 105.3070831298828 62.0463981628418 104.1628875732422 64.1240234375 102.0852508544922 L 102.0851211547852 64.12409973144531 C 104.1627502441406 62.04648590087891 105.3069534301758 59.28414916992188 105.3069534301758 56.345947265625 C 105.3069534301758 53.40774536132812 104.1627502441406 50.64540863037109 102.0851211547852 48.56777954101562 L 64.1240234375 10.60662078857422 C 62.0463981628418 8.528976440429688 59.28404235839844 7.384780883789062 56.34584426879883 7.384780883789062 M 56.34585189819336 5.384788513183594 C 59.67284393310547 5.384788513183594 62.99983596801758 6.65399169921875 65.53823852539062 9.192405700683594 L 103.4993362426758 47.153564453125 C 108.5761489868164 52.23037719726562 108.5761489868164 60.46151733398438 103.4993362426758 65.53831481933594 L 65.53823852539062 103.4994735717773 C 60.46142959594727 108.576301574707 52.23027801513672 108.576301574707 47.15345764160156 103.4994735717773 L 9.192367553710938 65.53831481933594 C 4.115570068359375 60.46150207519531 4.115570068359375 52.23037719726562 9.192367553710938 47.153564453125 L 47.15345764160156 9.192405700683594 C 49.69186782836914 6.65399169921875 53.01885986328125 5.384788513183594 56.34585189819336 5.384788513183594 Z" stroke="none" fill="#f52d34"/>
      </g>
      <path id="Polygon_31" data-name="Polygon 31" d="M36.626,5.657a8,8,0,0,1,11.314,0L78.909,36.626a8,8,0,0,1,0,11.314L47.94,78.909a8,8,0,0,1-11.314,0L5.657,47.94a8,8,0,0,1,0-11.314Z" transform="translate(11090 4759)" fill="#f52d34"/>
      <text id="_3" data-name="3" transform="translate(11124 4811)" fill="#fff" font-size="29" font-family="Poppins-Regular, Poppins"><tspan x="0" y="0">3</tspan></text>
    </g>
    <g id="Group_4773" data-name="Group 4773" transform="translate(-11033.837 -1406.644)">
      <g transform="matrix(1, 0, 0, 1, 11033.84, 4338.64)" filter="url(#Polygon_35)">
        <g id="Polygon_35-2" data-name="Polygon 35" transform="translate(42 593.14)" fill="#fff">
          <path d="M 56.34585952758789 106.3071060180664 C 53.14052963256836 106.3071060180664 50.1270751953125 105.0588760375977 47.86057281494141 102.7923736572266 L 9.899474143981934 64.83121490478516 C 7.632973670959473 62.56472015380859 6.384759426116943 59.55124664306641 6.384759426116943 56.345947265625 C 6.384759426116943 53.14063262939453 7.632973670959473 50.12716293334961 9.899474143981934 47.86066055297852 L 47.86057281494141 9.899504661560059 C 50.12705993652344 7.633004188537598 53.14052963256836 6.384789943695068 56.34585952758789 6.384789943695068 C 59.55117416381836 6.384789943695068 62.56464385986328 7.633004188537598 64.83114624023438 9.899504661560059 L 102.7922286987305 47.86066055297852 C 105.0587463378906 50.12716293334961 106.3069610595703 53.14063262939453 106.3069610595703 56.345947265625 C 106.3069610595703 59.55124664306641 105.0587463378906 62.56472015380859 102.7922439575195 64.83121490478516 L 64.83113098144531 102.7923736572266 C 62.56463241577148 105.0588760375977 59.55117416381836 106.3071060180664 56.34585952758789 106.3071060180664 Z" stroke="none"/>
          <path d="M 56.34584426879883 7.384780883789062 C 53.40764236450195 7.384780883789062 50.64530563354492 8.528976440429688 48.56767272949219 10.60662078857422 L 10.60658264160156 48.56777954101562 C 8.528968811035156 50.64539337158203 7.384765625 53.40773010253906 7.384765625 56.34593200683594 C 7.384765625 59.28414916992188 8.528968811035156 62.04648590087891 10.60658264160156 64.12409973144531 L 48.56767272949219 102.0852508544922 C 50.64529037475586 104.1628875732422 53.40762710571289 105.3070831298828 56.34584426879883 105.3070831298828 C 59.28406143188477 105.3070831298828 62.0463981628418 104.1628875732422 64.1240234375 102.0852508544922 L 102.0851211547852 64.12409973144531 C 104.1627502441406 62.04648590087891 105.3069534301758 59.28414916992188 105.3069534301758 56.345947265625 C 105.3069534301758 53.40774536132812 104.1627502441406 50.64540863037109 102.0851211547852 48.56777954101562 L 64.1240234375 10.60662078857422 C 62.0463981628418 8.528976440429688 59.28404235839844 7.384780883789062 56.34584426879883 7.384780883789062 M 56.34585189819336 5.384788513183594 C 59.67284393310547 5.384788513183594 62.99983596801758 6.65399169921875 65.53823852539062 9.192405700683594 L 103.4993362426758 47.153564453125 C 108.5761489868164 52.23037719726562 108.5761489868164 60.46151733398438 103.4993362426758 65.53831481933594 L 65.53823852539062 103.4994735717773 C 60.46142959594727 108.576301574707 52.23027801513672 108.576301574707 47.15345764160156 103.4994735717773 L 9.192367553710938 65.53831481933594 C 4.115570068359375 60.46150207519531 4.115570068359375 52.23037719726562 9.192367553710938 47.153564453125 L 47.15345764160156 9.192405700683594 C 49.69186782836914 6.65399169921875 53.01885986328125 5.384788513183594 56.34585189819336 5.384788513183594 Z" stroke="none" fill="#da2128"/>
        </g>
      </g>
      <path id="Polygon_34" data-name="Polygon 34" d="M36.626,5.657a8,8,0,0,1,11.314,0L78.909,36.626a8,8,0,0,1,0,11.314L47.94,78.909a8,8,0,0,1-11.314,0L5.657,47.94a8,8,0,0,1,0-11.314Z" transform="translate(11089.899 4945.846)" fill="#da2128"/>
      <text id="_4" data-name="4" transform="translate(11121.182 4998.129)" fill="#fff" font-size="29" font-family="Poppins-Regular, Poppins"><tspan x="0" y="0">4</tspan></text>
    </g>
    <path id="Path_3108" data-name="Path 3108" d="M0,0H59.833" transform="translate(98.183 3066.5) rotate(90)" fill="none" stroke="#ff9195" stroke-linecap="round" stroke-width="2" stroke-dasharray="8"/>
    <path id="Path_3109" data-name="Path 3109" d="M0,0H77.642" transform="translate(98.183 3255.358) rotate(90)" fill="none" stroke="#ff6368" stroke-linecap="round" stroke-width="2" stroke-dasharray="8"/>
    <path id="Path_3110" data-name="Path 3110" d="M0,0H77.642" transform="translate(98.183 3448.428) rotate(90)" fill="none" stroke="#f52d34" stroke-linecap="round" stroke-width="2" stroke-dasharray="8"/>
  </g>
</svg>
