<svg xmlns="http://www.w3.org/2000/svg" xmlns:xlink="http://www.w3.org/1999/xlink" width="375" height="718" viewBox="0 0 375 718">
  <defs>
    <filter id="Polygon_25" x="34.5" y="8.5" width="127.691" height="127.691" filterUnits="userSpaceOnUse">
      <feOffset dy="3" input="SourceAlpha"/>
      <feGaussianBlur stdDeviation="3.5" result="blur"/>
      <feFlood flood-color="#ff9195" flood-opacity="0.612"/>
      <feComposite operator="in" in2="blur"/>
      <feComposite in="SourceGraphic"/>
    </filter>
    <filter id="Polygon_27" x="34.5" y="202.5" width="127.691" height="127.691" filterUnits="userSpaceOnUse">
      <feOffset dy="3" input="SourceAlpha"/>
      <feGaussianBlur stdDeviation="3.5" result="blur-2"/>
      <feFlood flood-color="#ff6368" flood-opacity="0.69"/>
      <feComposite operator="in" in2="blur-2"/>
      <feComposite in="SourceGraphic"/>
    </filter>
    <filter id="Polygon_30" x="34.5" y="395.569" width="127.691" height="127.691" filterUnits="userSpaceOnUse">
      <feOffset dy="3" input="SourceAlpha"/>
      <feGaussianBlur stdDeviation="3.5" result="blur-3"/>
      <feFlood flood-color="#f52d34" flood-opacity="0.522"/>
      <feComposite operator="in" in2="blur-3"/>
      <feComposite in="SourceGraphic"/>
    </filter>
    <filter id="_3._Master_Level" x="178.5" y="406.069" width="123" height="38" filterUnits="userSpaceOnUse">
      <feOffset dy="3" input="SourceAlpha"/>
      <feGaussianBlur stdDeviation="3" result="blur-4"/>
      <feFlood flood-opacity="0.161"/>
      <feComposite operator="in" in2="blur-4"/>
      <feComposite in="SourceGraphic"/>
    </filter>
    <filter id="Polygon_35" x="33" y="587.139" width="130.692" height="130.692" filterUnits="userSpaceOnUse">
      <feOffset dy="3" input="SourceAlpha"/>
      <feGaussianBlur stdDeviation="3" result="blur-5"/>
      <feFlood flood-color="#da2128" flood-opacity="0.639"/>
      <feComposite operator="in" in2="blur-5"/>
      <feComposite in="SourceGraphic"/>
    </filter>
    <filter id="_4._Expert_Level" x="178.5" y="599.139" width="118" height="38" filterUnits="userSpaceOnUse">
      <feOffset dy="3" input="SourceAlpha"/>
      <feGaussianBlur stdDeviation="3" result="blur-6"/>
      <feFlood flood-opacity="0.161"/>
      <feComposite operator="in" in2="blur-6"/>
      <feComposite in="SourceGraphic"/>
    </filter>
  </defs>
  <g id="Group_4766" data-name="Group 4766" transform="translate(-2.837 -4475.783)">
    <rect id="Rectangle_3788" data-name="Rectangle 3788" width="375" height="52" transform="translate(2.837 4520.783)" fill="#ff9195"/>
    <g id="Ellipse_398" data-name="Ellipse 398" transform="translate(38.837 4482.783)" fill="#fff" stroke="#fff" stroke-width="7">
      <circle cx="62" cy="62" r="62" stroke="none"/>
      <circle cx="62" cy="62" r="65.5" fill="none"/>
    </g>
    <g transform="matrix(1, 0, 0, 1, 2.84, 4475.78)" filter="url(#Polygon_25)">
      <path id="Polygon_25-2" data-name="Polygon 25" d="M44.153,9.192a13,13,0,0,1,18.385,0L97.5,44.153a13,13,0,0,1,0,18.385L62.538,97.5a13,13,0,0,1-18.385,0L9.192,62.538a13,13,0,0,1,0-18.385Z" transform="translate(45 16)" fill="#fff"/>
    </g>
    <g id="Polygon_24" data-name="Polygon 24" transform="translate(44.837 4488.783)" fill="#fff">
      <path d="M 56.34585952758789 106.3071060180664 C 53.14052963256836 106.3071060180664 50.1270751953125 105.0588760375977 47.86057281494141 102.7923736572266 L 9.899474143981934 64.83121490478516 C 7.632973670959473 62.56472015380859 6.384759426116943 59.55124664306641 6.384759426116943 56.345947265625 C 6.384759426116943 53.14063262939453 7.632973670959473 50.12716293334961 9.899474143981934 47.86066055297852 L 47.86057281494141 9.899504661560059 C 50.12705993652344 7.633004188537598 53.14052963256836 6.384789943695068 56.34585952758789 6.384789943695068 C 59.55117416381836 6.384789943695068 62.56464385986328 7.633004188537598 64.83114624023438 9.899504661560059 L 102.7922286987305 47.86066055297852 C 105.0587463378906 50.12716293334961 106.3069610595703 53.14063262939453 106.3069610595703 56.345947265625 C 106.3069610595703 59.55124664306641 105.0587463378906 62.56472015380859 102.7922439575195 64.83121490478516 L 64.83113098144531 102.7923736572266 C 62.56463241577148 105.0588760375977 59.55117416381836 106.3071060180664 56.34585952758789 106.3071060180664 Z" stroke="none"/>
      <path d="M 56.34584426879883 7.384780883789062 C 53.40764236450195 7.384780883789062 50.64530563354492 8.528976440429688 48.56767272949219 10.60662078857422 L 10.60658264160156 48.56777954101562 C 8.528968811035156 50.64539337158203 7.384765625 53.40773010253906 7.384765625 56.34593200683594 C 7.384765625 59.28414916992188 8.528968811035156 62.04648590087891 10.60658264160156 64.12409973144531 L 48.56767272949219 102.0852508544922 C 50.64529037475586 104.1628875732422 53.40762710571289 105.3070831298828 56.34584426879883 105.3070831298828 C 59.28406143188477 105.3070831298828 62.0463981628418 104.1628875732422 64.1240234375 102.0852508544922 L 102.0851211547852 64.12409973144531 C 104.1627502441406 62.04648590087891 105.3069534301758 59.28414916992188 105.3069534301758 56.345947265625 C 105.3069534301758 53.40774536132812 104.1627502441406 50.64540863037109 102.0851211547852 48.56777954101562 L 64.1240234375 10.60662078857422 C 62.0463981628418 8.528976440429688 59.28404235839844 7.384780883789062 56.34584426879883 7.384780883789062 M 56.34585189819336 5.384788513183594 C 59.67284393310547 5.384788513183594 62.99983596801758 6.65399169921875 65.53823852539062 9.192405700683594 L 103.4993362426758 47.153564453125 C 108.5761489868164 52.23037719726562 108.5761489868164 60.46151733398438 103.4993362426758 65.53831481933594 L 65.53823852539062 103.4994735717773 C 60.46142959594727 108.576301574707 52.23027801513672 108.576301574707 47.15345764160156 103.4994735717773 L 9.192367553710938 65.53831481933594 C 4.115570068359375 60.46150207519531 4.115570068359375 52.23037719726562 9.192367553710938 47.153564453125 L 47.15345764160156 9.192405700683594 C 49.69186782836914 6.65399169921875 53.01885986328125 5.384788513183594 56.34585189819336 5.384788513183594 Z" stroke="none" fill="#ff9195"/>
    </g>
    <path id="Polygon_9" data-name="Polygon 9" d="M36.626,5.657a8,8,0,0,1,11.314,0L78.909,36.626a8,8,0,0,1,0,11.314L47.94,78.909a8,8,0,0,1-11.314,0L5.657,47.94a8,8,0,0,1,0-11.314Z" transform="translate(58.899 4502.846)" fill="#ff9195"/>
    <text id="_1" data-name="1" transform="translate(96.683 4555.129)" fill="#fff" font-size="29" font-family="Poppins-Regular, Poppins"><tspan x="0" y="0">1</tspan></text>
    <path id="Path_3118" data-name="Path 3118" d="M0,0H59.833" transform="translate(101.02 4610.283) rotate(90)" fill="none" stroke="#ff9195" stroke-linecap="round" stroke-width="2" stroke-dasharray="8"/>
    <text id="_1._Beginner_Level" data-name="1. Beginner Level" transform="translate(190.337 4515.783)" fill="#292929" font-size="14" font-family="Poppins-SemiBold, Poppins" font-weight="600"><tspan x="0" y="0">1. Beginner Level</tspan></text>
    <g id="Group_4801" data-name="Group 4801" transform="translate(-11031.163 124.783)">
      <rect id="Rectangle_3789" data-name="Rectangle 3789" width="375" height="52" transform="translate(11034 4588)" fill="#ff6368"/>
      <g id="Ellipse_399" data-name="Ellipse 399" transform="translate(11070 4550)" fill="#fff" stroke="#fff" stroke-width="7">
        <circle cx="62" cy="62" r="62" stroke="none"/>
        <circle cx="62" cy="62" r="65.5" fill="none"/>
      </g>
      <g transform="matrix(1, 0, 0, 1, 11034, 4351)" filter="url(#Polygon_27)">
        <path id="Polygon_27-2" data-name="Polygon 27" d="M44.153,9.192a13,13,0,0,1,18.385,0L97.5,44.153a13,13,0,0,1,0,18.385L62.538,97.5a13,13,0,0,1-18.385,0L9.192,62.538a13,13,0,0,1,0-18.385Z" transform="translate(45 210)" fill="#fff"/>
      </g>
      <g id="Polygon_26" data-name="Polygon 26" transform="translate(11076 4558)" fill="#fff">
        <path d="M 56.34585952758789 106.3071060180664 C 53.14052963256836 106.3071060180664 50.1270751953125 105.0588760375977 47.86057281494141 102.7923736572266 L 9.899474143981934 64.83121490478516 C 7.632973670959473 62.56472015380859 6.384759426116943 59.55124664306641 6.384759426116943 56.345947265625 C 6.384759426116943 53.14063262939453 7.632973670959473 50.12716293334961 9.899474143981934 47.86066055297852 L 47.86057281494141 9.899504661560059 C 50.12705993652344 7.633004188537598 53.14052963256836 6.384789943695068 56.34585952758789 6.384789943695068 C 59.55117416381836 6.384789943695068 62.56464385986328 7.633004188537598 64.83114624023438 9.899504661560059 L 102.7922286987305 47.86066055297852 C 105.0587463378906 50.12716293334961 106.3069610595703 53.14063262939453 106.3069610595703 56.345947265625 C 106.3069610595703 59.55124664306641 105.0587463378906 62.56472015380859 102.7922439575195 64.83121490478516 L 64.83113098144531 102.7923736572266 C 62.56463241577148 105.0588760375977 59.55117416381836 106.3071060180664 56.34585952758789 106.3071060180664 Z" stroke="none"/>
        <path d="M 56.34584426879883 7.384780883789062 C 53.40764236450195 7.384780883789062 50.64530563354492 8.528976440429688 48.56767272949219 10.60662078857422 L 10.60658264160156 48.56777954101562 C 8.528968811035156 50.64539337158203 7.384765625 53.40773010253906 7.384765625 56.34593200683594 C 7.384765625 59.28414916992188 8.528968811035156 62.04648590087891 10.60658264160156 64.12409973144531 L 48.56767272949219 102.0852508544922 C 50.64529037475586 104.1628875732422 53.40762710571289 105.3070831298828 56.34584426879883 105.3070831298828 C 59.28406143188477 105.3070831298828 62.0463981628418 104.1628875732422 64.1240234375 102.0852508544922 L 102.0851211547852 64.12409973144531 C 104.1627502441406 62.04648590087891 105.3069534301758 59.28414916992188 105.3069534301758 56.345947265625 C 105.3069534301758 53.40774536132812 104.1627502441406 50.64540863037109 102.0851211547852 48.56777954101562 L 64.1240234375 10.60662078857422 C 62.0463981628418 8.528976440429688 59.28404235839844 7.384780883789062 56.34584426879883 7.384780883789062 M 56.34585189819336 5.384788513183594 C 59.67284393310547 5.384788513183594 62.99983596801758 6.65399169921875 65.53823852539062 9.192405700683594 L 103.4993362426758 47.153564453125 C 108.5761489868164 52.23037719726562 108.5761489868164 60.46151733398438 103.4993362426758 65.53831481933594 L 65.53823852539062 103.4994735717773 C 60.46142959594727 108.576301574707 52.23027801513672 108.576301574707 47.15345764160156 103.4994735717773 L 9.192367553710938 65.53831481933594 C 4.115570068359375 60.46150207519531 4.115570068359375 52.23037719726562 9.192367553710938 47.153564453125 L 47.15345764160156 9.192405700683594 C 49.69186782836914 6.65399169921875 53.01885986328125 5.384788513183594 56.34585189819336 5.384788513183594 Z" stroke="none" fill="#ff6368"/>
      </g>
      <path id="Polygon_28" data-name="Polygon 28" d="M36.626,5.657a8,8,0,0,1,11.314,0L78.909,36.626a8,8,0,0,1,0,11.314L47.94,78.909a8,8,0,0,1-11.314,0L5.657,47.94a8,8,0,0,1,0-11.314Z" transform="translate(11090 4572)" fill="#ff6368"/>
      <text id="_2" data-name="2" transform="translate(11123.846 4624.129)" fill="#fff" font-size="29" font-family="Poppins-Regular, Poppins"><tspan x="0" y="0">2</tspan></text>
      <text id="_2._Intermediate_Level" data-name="2. Intermediate Level" transform="translate(11221.5 4585)" fill="#292929" font-size="14" font-family="Poppins-SemiBold, Poppins" font-weight="600"><tspan x="0" y="0">2. Intermediate Level</tspan></text>
      <path id="Path_3119" data-name="Path 3119" d="M0,0H77.642" transform="translate(11132.183 4674.358) rotate(90)" fill="none" stroke="#ff6368" stroke-linecap="round" stroke-width="2" stroke-dasharray="8"/>
      <g id="Group_4801-2" data-name="Group 4801" transform="translate(0 6.069)">
        <rect id="Rectangle_3790" data-name="Rectangle 3790" width="375" height="52" transform="translate(11034 4776.931)" fill="#f52d34"/>
        <g id="Ellipse_400" data-name="Ellipse 400" transform="translate(11070 4738.931)" fill="#fff" stroke="#fff" stroke-width="7">
          <circle cx="62" cy="62" r="62" stroke="none"/>
          <circle cx="62" cy="62" r="65.5" fill="none"/>
        </g>
        <g transform="matrix(1, 0, 0, 1, 11034, 4344.93)" filter="url(#Polygon_30)">
          <path id="Polygon_30-2" data-name="Polygon 30" d="M44.153,9.192a13,13,0,0,1,18.385,0L97.5,44.153a13,13,0,0,1,0,18.385L62.538,97.5a13,13,0,0,1-18.385,0L9.192,62.538a13,13,0,0,1,0-18.385Z" transform="translate(45 403.07)" fill="#fff"/>
        </g>
        <g id="Polygon_29" data-name="Polygon 29" transform="translate(11076 4745)" fill="#fff">
          <path d="M 56.34585952758789 106.3071060180664 C 53.14052963256836 106.3071060180664 50.1270751953125 105.0588760375977 47.86057281494141 102.7923736572266 L 9.899474143981934 64.83121490478516 C 7.632973670959473 62.56472015380859 6.384759426116943 59.55124664306641 6.384759426116943 56.345947265625 C 6.384759426116943 53.14063262939453 7.632973670959473 50.12716293334961 9.899474143981934 47.86066055297852 L 47.86057281494141 9.899504661560059 C 50.12705993652344 7.633004188537598 53.14052963256836 6.384789943695068 56.34585952758789 6.384789943695068 C 59.55117416381836 6.384789943695068 62.56464385986328 7.633004188537598 64.83114624023438 9.899504661560059 L 102.7922286987305 47.86066055297852 C 105.0587463378906 50.12716293334961 106.3069610595703 53.14063262939453 106.3069610595703 56.345947265625 C 106.3069610595703 59.55124664306641 105.0587463378906 62.56472015380859 102.7922439575195 64.83121490478516 L 64.83113098144531 102.7923736572266 C 62.56463241577148 105.0588760375977 59.55117416381836 106.3071060180664 56.34585952758789 106.3071060180664 Z" stroke="none"/>
          <path d="M 56.34584426879883 7.384780883789062 C 53.40764236450195 7.384780883789062 50.64530563354492 8.528976440429688 48.56767272949219 10.60662078857422 L 10.60658264160156 48.56777954101562 C 8.528968811035156 50.64539337158203 7.384765625 53.40773010253906 7.384765625 56.34593200683594 C 7.384765625 59.28414916992188 8.528968811035156 62.04648590087891 10.60658264160156 64.12409973144531 L 48.56767272949219 102.0852508544922 C 50.64529037475586 104.1628875732422 53.40762710571289 105.3070831298828 56.34584426879883 105.3070831298828 C 59.28406143188477 105.3070831298828 62.0463981628418 104.1628875732422 64.1240234375 102.0852508544922 L 102.0851211547852 64.12409973144531 C 104.1627502441406 62.04648590087891 105.3069534301758 59.28414916992188 105.3069534301758 56.345947265625 C 105.3069534301758 53.40774536132812 104.1627502441406 50.64540863037109 102.0851211547852 48.56777954101562 L 64.1240234375 10.60662078857422 C 62.0463981628418 8.528976440429688 59.28404235839844 7.384780883789062 56.34584426879883 7.384780883789062 M 56.34585189819336 5.384788513183594 C 59.67284393310547 5.384788513183594 62.99983596801758 6.65399169921875 65.53823852539062 9.192405700683594 L 103.4993362426758 47.153564453125 C 108.5761489868164 52.23037719726562 108.5761489868164 60.46151733398438 103.4993362426758 65.53831481933594 L 65.53823852539062 103.4994735717773 C 60.46142959594727 108.576301574707 52.23027801513672 108.576301574707 47.15345764160156 103.4994735717773 L 9.192367553710938 65.53831481933594 C 4.115570068359375 60.46150207519531 4.115570068359375 52.23037719726562 9.192367553710938 47.153564453125 L 47.15345764160156 9.192405700683594 C 49.69186782836914 6.65399169921875 53.01885986328125 5.384788513183594 56.34585189819336 5.384788513183594 Z" stroke="none" fill="#f52d34"/>
        </g>
        <path id="Polygon_31" data-name="Polygon 31" d="M36.626,5.657a8,8,0,0,1,11.314,0L78.909,36.626a8,8,0,0,1,0,11.314L47.94,78.909a8,8,0,0,1-11.314,0L5.657,47.94a8,8,0,0,1,0-11.314Z" transform="translate(11090 4759)" fill="#f52d34"/>
        <text id="_3" data-name="3" transform="translate(11124 4811)" fill="#fff" font-size="29" font-family="Poppins-Regular, Poppins"><tspan x="0" y="0">3</tspan></text>
        <path id="Path_3120" data-name="Path 3120" d="M0,0H77.642" transform="translate(11132.183 4861.358) rotate(90)" fill="none" stroke="#f52d34" stroke-linecap="round" stroke-width="2" stroke-dasharray="8"/>
        <g transform="matrix(1, 0, 0, 1, 11034, 4344.93)" filter="url(#_3._Master_Level)">
          <text id="_3._Master_Level-2" data-name="3. Master Level" transform="translate(187.5 427.07)" fill="#292929" font-size="14" font-family="Poppins-SemiBold, Poppins" font-weight="600"><tspan x="0" y="0">3. Master Level</tspan></text>
        </g>
        <g id="Group_4801-3" data-name="Group 4801" transform="translate(0.163 6.287)">
          <rect id="Rectangle_3791" data-name="Rectangle 3791" width="375" height="52" transform="translate(11033.837 4963.644)" fill="#da2128"/>
          <g id="Ellipse_401" data-name="Ellipse 401" transform="translate(11069.837 4925.644)" fill="#fff" stroke="#fff" stroke-width="7">
            <circle cx="62" cy="62" r="62" stroke="none"/>
            <circle cx="62" cy="62" r="65.5" fill="none"/>
          </g>
          <g transform="matrix(1, 0, 0, 1, 11033.84, 4338.64)" filter="url(#Polygon_35)">
            <g id="Polygon_35-2" data-name="Polygon 35" transform="translate(42 593.14)" fill="#fff">
              <path d="M 56.34585952758789 106.3071060180664 C 53.14052963256836 106.3071060180664 50.1270751953125 105.0588760375977 47.86057281494141 102.7923736572266 L 9.899474143981934 64.83121490478516 C 7.632973670959473 62.56472015380859 6.384759426116943 59.55124664306641 6.384759426116943 56.345947265625 C 6.384759426116943 53.14063262939453 7.632973670959473 50.12716293334961 9.899474143981934 47.86066055297852 L 47.86057281494141 9.899504661560059 C 50.12705993652344 7.633004188537598 53.14052963256836 6.384789943695068 56.34585952758789 6.384789943695068 C 59.55117416381836 6.384789943695068 62.56464385986328 7.633004188537598 64.83114624023438 9.899504661560059 L 102.7922286987305 47.86066055297852 C 105.0587463378906 50.12716293334961 106.3069610595703 53.14063262939453 106.3069610595703 56.345947265625 C 106.3069610595703 59.55124664306641 105.0587463378906 62.56472015380859 102.7922439575195 64.83121490478516 L 64.83113098144531 102.7923736572266 C 62.56463241577148 105.0588760375977 59.55117416381836 106.3071060180664 56.34585952758789 106.3071060180664 Z" stroke="none"/>
              <path d="M 56.34584426879883 7.384780883789062 C 53.40764236450195 7.384780883789062 50.64530563354492 8.528976440429688 48.56767272949219 10.60662078857422 L 10.60658264160156 48.56777954101562 C 8.528968811035156 50.64539337158203 7.384765625 53.40773010253906 7.384765625 56.34593200683594 C 7.384765625 59.28414916992188 8.528968811035156 62.04648590087891 10.60658264160156 64.12409973144531 L 48.56767272949219 102.0852508544922 C 50.64529037475586 104.1628875732422 53.40762710571289 105.3070831298828 56.34584426879883 105.3070831298828 C 59.28406143188477 105.3070831298828 62.0463981628418 104.1628875732422 64.1240234375 102.0852508544922 L 102.0851211547852 64.12409973144531 C 104.1627502441406 62.04648590087891 105.3069534301758 59.28414916992188 105.3069534301758 56.345947265625 C 105.3069534301758 53.40774536132812 104.1627502441406 50.64540863037109 102.0851211547852 48.56777954101562 L 64.1240234375 10.60662078857422 C 62.0463981628418 8.528976440429688 59.28404235839844 7.384780883789062 56.34584426879883 7.384780883789062 M 56.34585189819336 5.384788513183594 C 59.67284393310547 5.384788513183594 62.99983596801758 6.65399169921875 65.53823852539062 9.192405700683594 L 103.4993362426758 47.153564453125 C 108.5761489868164 52.23037719726562 108.5761489868164 60.46151733398438 103.4993362426758 65.53831481933594 L 65.53823852539062 103.4994735717773 C 60.46142959594727 108.576301574707 52.23027801513672 108.576301574707 47.15345764160156 103.4994735717773 L 9.192367553710938 65.53831481933594 C 4.115570068359375 60.46150207519531 4.115570068359375 52.23037719726562 9.192367553710938 47.153564453125 L 47.15345764160156 9.192405700683594 C 49.69186782836914 6.65399169921875 53.01885986328125 5.384788513183594 56.34585189819336 5.384788513183594 Z" stroke="none" fill="#da2128"/>
            </g>
          </g>
          <path id="Polygon_34" data-name="Polygon 34" d="M36.626,5.657a8,8,0,0,1,11.314,0L78.909,36.626a8,8,0,0,1,0,11.314L47.94,78.909a8,8,0,0,1-11.314,0L5.657,47.94a8,8,0,0,1,0-11.314Z" transform="translate(11089.899 4945.846)" fill="#da2128"/>
          <text id="_4" data-name="4" transform="translate(11121.182 4998.129)" fill="#fff" font-size="29" font-family="Poppins-Regular, Poppins"><tspan x="0" y="0">4</tspan></text>
          <g transform="matrix(1, 0, 0, 1, 11033.84, 4338.64)" filter="url(#_4._Expert_Level)">
            <text id="_4._Expert_Level-2" data-name="4. Expert Level" transform="translate(187.5 620.14)" fill="#292929" font-size="14" font-family="Poppins-SemiBold, Poppins" font-weight="600"><tspan x="0" y="0">4. Expert Level</tspan></text>
          </g>
        </g>
      </g>
    </g>
  </g>
</svg>
