<svg width="22" height="28" viewBox="0 0 22 28" fill="none" xmlns="http://www.w3.org/2000/svg">
<path d="M10.9997 14.0001C11.733 14.0001 12.3608 13.739 12.883 13.2167C13.4052 12.6945 13.6663 12.0667 13.6663 11.3334C13.6663 10.6001 13.4052 9.9723 12.883 9.45008C12.3608 8.92786 11.733 8.66675 10.9997 8.66675C10.2663 8.66675 9.63856 8.92786 9.11634 9.45008C8.59412 9.9723 8.33301 10.6001 8.33301 11.3334C8.33301 12.0667 8.59412 12.6945 9.11634 13.2167C9.63856 13.739 10.2663 14.0001 10.9997 14.0001ZM10.9997 23.8001C13.7108 21.3112 15.7219 19.0501 17.033 17.0167C18.3441 14.9834 18.9997 13.1779 18.9997 11.6001C18.9997 9.17786 18.2275 7.19453 16.683 5.65008C15.1386 4.10564 13.2441 3.33341 10.9997 3.33341C8.75523 3.33341 6.86079 4.10564 5.31634 5.65008C3.7719 7.19453 2.99967 9.17786 2.99967 11.6001C2.99967 13.1779 3.65523 14.9834 4.96634 17.0167C6.27745 19.0501 8.28856 21.3112 10.9997 23.8001ZM10.9997 27.3334C7.4219 24.289 4.74967 21.4612 2.98301 18.8501C1.21634 16.239 0.333008 13.8223 0.333008 11.6001C0.333008 8.26675 1.40523 5.61119 3.54967 3.63341C5.69412 1.65564 8.17745 0.666748 10.9997 0.666748C13.8219 0.666748 16.3052 1.65564 18.4497 3.63341C20.5941 5.61119 21.6663 8.26675 21.6663 11.6001C21.6663 13.8223 20.783 16.239 19.0163 18.8501C17.2497 21.4612 14.5775 24.289 10.9997 27.3334Z" fill="#404040"/>
</svg>
