<svg xmlns="http://www.w3.org/2000/svg" width="269.999" height="64.475" viewBox="0 0 269.999 64.475">
  <g id="Group_4308" data-name="Group 4308" transform="translate(-130.75 -11661.216)">
    <g id="Group_955" data-name="Group 955" transform="translate(211.895 11667.4)">
      <path id="Path_1962" data-name="Path 1962" d="M94.7,9.2a11.008,11.008,0,0,1,8.055,2.953,9.487,9.487,0,0,1,3.043,6.981,9.307,9.307,0,0,1-3.132,6.981,12.2,12.2,0,0,1-16.02.089,9.486,9.486,0,0,1,0-13.961A11.1,11.1,0,0,1,94.7,9.2Zm0,15.93a6.086,6.086,0,0,0,4.475-1.611,5.728,5.728,0,0,0,1.7-4.3,5.728,5.728,0,0,0-1.7-4.3,6.891,6.891,0,0,0-8.86,0,5.728,5.728,0,0,0-1.7,4.3,5.728,5.728,0,0,0,1.611,4.3A6.175,6.175,0,0,0,94.7,25.129Z" transform="translate(-83.578 -9.185)" fill="#fff"/>
      <path id="Path_1963" data-name="Path 1963" d="M131.989,9.5V28.921h-4.117l-10.74-12.44v12.44H112.3V9.5h4.475l10.381,11.9V9.5Z" transform="translate(-86.595 -9.218)" fill="#fff"/>
      <path id="Path_1964" data-name="Path 1964" d="M153.967,25.341v3.58H139.2V9.5h4.833V25.341Z" transform="translate(-89.42 -9.218)" fill="#fff"/>
      <path id="Path_1965" data-name="Path 1965" d="M163.833,9.5V28.921H159V9.5Z" transform="translate(-91.5 -9.218)" fill="#fff"/>
      <path id="Path_1966" data-name="Path 1966" d="M189.089,9.5V28.921h-4.117l-10.74-12.44v12.44H169.4V9.5h4.475l10.382,11.9V9.5Z" transform="translate(-92.593 -9.218)" fill="#fff"/>
      <path id="Path_1967" data-name="Path 1967" d="M210.619,25.341v3.58H196.3V9.5h14.14v3.58h-9.308v4.027h8.86v3.58h-8.86v4.654Z" transform="translate(-95.418 -9.218)" fill="#fff"/>
      <path id="Path_1968" data-name="Path 1968" d="M240.067,25.341v3.58H225.3V9.5h4.833V25.341Z" transform="translate(-98.465 -9.218)" fill="#fff"/>
      <path id="Path_1969" data-name="Path 1969" d="M249.933,9.5V28.921H245.1V9.5Z" transform="translate(-100.544 -9.218)" fill="#fff"/>
      <path id="Path_1970" data-name="Path 1970" d="M273.495,9.5l-8.95,19.689h-2.059L253,9.5h5.28l5.1,11.1,4.833-11.1Z" transform="translate(-101.374 -9.218)" fill="#fff"/>
      <path id="Path_1971" data-name="Path 1971" d="M292.719,25.341v3.58H278.4V9.5h14.14v3.58h-9.307v4.027h8.86v3.58h-8.86v4.654Z" transform="translate(-104.042 -9.218)" fill="#fff"/>
    </g>
    <g id="Group_956" data-name="Group 956" transform="translate(212.987 11693.453)">
      <path id="Path_1972" data-name="Path 1972" d="M84.8,60.268V38.7h1.7V58.837H97.15v1.432Z" transform="translate(-84.8 -38.339)" fill="#fff"/>
      <path id="Path_1973" data-name="Path 1973" d="M108.5,60.268V38.7h11.634v1.432H110.2v8.681h9.755v1.432H110.2v8.771h10.382v1.432Z" transform="translate(-87.289 -38.339)" fill="#fff"/>
      <path id="Path_1974" data-name="Path 1974" d="M140.234,38.4h.895l9.934,21.837h-1.79l-3.4-7.518h-10.56L132,60.237h-1.7Zm-4.206,12.887h9.218l-4.654-10.2h0Z" transform="translate(-89.579 -38.307)" fill="#fff"/>
      <path id="Path_1975" data-name="Path 1975" d="M163.5,38.7h5.37a8.77,8.77,0,0,1,5.37,1.521,4.923,4.923,0,0,1,1.969,4.117,4.833,4.833,0,0,1-1.969,4.117,6.622,6.622,0,0,1-2.148,1.074l1.163,1.074a23.09,23.09,0,0,1,2.506,3.311l4.117,6.444H178l-4.117-6.444a12.262,12.262,0,0,0-2.506-3.132,4.565,4.565,0,0,0-2.774-.716h-3.4v10.2h-1.7Zm1.7,9.934h3.669a6.533,6.533,0,0,0,4.027-1.074,4.027,4.027,0,0,0,0-6.175,6.533,6.533,0,0,0-4.027-1.074H165.2Z" transform="translate(-93.067 -38.338)" fill="#fff"/>
      <path id="Path_1976" data-name="Path 1976" d="M192.5,60.268h-1.7V38.7h1.432L208.61,57.315V38.7h1.7V60.447h-1.074L192.5,41.474Z" transform="translate(-95.934 -38.339)" fill="#fff"/>
      <path id="Path_1977" data-name="Path 1977" d="M225.1,38.7h1.7V60.268h-1.7Z" transform="translate(-99.537 -38.339)" fill="#fff"/>
      <path id="Path_1978" data-name="Path 1978" d="M241.2,60.268h-1.7V38.7h1.432L257.31,57.315V38.7h1.7V60.447h-1.074L241.2,41.474Z" transform="translate(-101.05 -38.339)" fill="#fff"/>
      <path id="Path_1979" data-name="Path 1979" d="M284.534,60.495a11.544,11.544,0,0,1-8.233-3.222,10.381,10.381,0,0,1-3.4-7.876,10.649,10.649,0,0,1,3.222-7.876,10.828,10.828,0,0,1,7.965-3.222,17.363,17.363,0,0,1,4.027.447,21.927,21.927,0,0,1,4.206,1.521v1.7a17.362,17.362,0,0,0-3.938-1.7,15.393,15.393,0,0,0-4.117-.537,9.577,9.577,0,1,0,0,19.152,13.514,13.514,0,0,0,6.354-1.521V50.829h-4.564V49.4h6.175v9.039A14.768,14.768,0,0,1,284.534,60.495Z" transform="translate(-104.558 -38.297)" fill="#fff"/>
    </g>
    <g id="Group_957" data-name="Group 957" transform="translate(130.75 11661.216)">
      <path id="Path_1980" data-name="Path 1980" d="M35.9,35.082H68.029c.09-.984.179-1.879.179-2.864A32.218,32.218,0,0,0,35.989,0H35.9Z" transform="translate(-3.696)" fill="#fff"/>
      <path id="Path_1981" data-name="Path 1981" d="M21.649,44.958V2A32.218,32.218,0,1,0,61.833,44.958Z" transform="translate(0.084 -0.21)" fill="#fff"/>
    </g>
  </g>
</svg>
