<svg xmlns="http://www.w3.org/2000/svg" width="20.45" height="13.014" viewBox="0 0 20.45 13.014"><defs><style>.a{fill:#4a4949;}</style></defs><path class="a" d="M15.443,13.077a2.789,2.789,0,1,0-2.789-2.789A2.777,2.777,0,0,0,15.443,13.077Zm-7.436,0a2.789,2.789,0,1,0-2.789-2.789A2.777,2.777,0,0,0,8.007,13.077Zm0,1.859c-2.166,0-6.507,1.088-6.507,3.253v2.324H14.514V18.19C14.514,16.024,10.173,14.936,8.007,14.936Zm7.436,0c-.27,0-.576.019-.9.046a3.923,3.923,0,0,1,1.831,3.207v2.324H21.95V18.19C21.95,16.024,17.609,14.936,15.443,14.936Z" transform="translate(-1.5 -7.5)"/></svg>