<svg xmlns="http://www.w3.org/2000/svg" width="29" height="29" viewBox="0 0 29 29">
  <path id="Icon_awesome-phone-alt" data-name="Icon awesome-phone-alt" d="M28.172,20.493l-6.344-2.719a1.359,1.359,0,0,0-1.586.391L17.433,21.6A20.994,20.994,0,0,1,7.4,11.561L10.83,8.752a1.356,1.356,0,0,0,.391-1.586L8.5.822A1.368,1.368,0,0,0,6.944.035L1.054,1.394A1.359,1.359,0,0,0,0,2.719,26.278,26.278,0,0,0,26.281,29a1.359,1.359,0,0,0,1.325-1.054l1.359-5.891a1.376,1.376,0,0,0-.794-1.563Z" transform="translate(0 0)" fill="#d0d0d0"/>
</svg>
