<svg xmlns="http://www.w3.org/2000/svg" xmlns:xlink="http://www.w3.org/1999/xlink" width="36.267" height="37.098" viewBox="0 0 36.267 37.098"><defs><style>.a{fill:none;stroke:#fff;stroke-linecap:round;stroke-linejoin:round;stroke-width:3px;}.b{filter:url(#c);}.c{filter:url(#a);}</style><filter id="a" x="0" y="0" width="32.887" height="33.718" filterUnits="userSpaceOnUse"><feOffset dy="3" input="SourceAlpha"/><feGaussianBlur stdDeviation="3" result="b"/><feFlood flood-opacity="0.2"/><feComposite operator="in" in2="b"/><feComposite in="SourceGraphic"/></filter><filter id="c" x="10.199" y="11.03" width="26.068" height="26.068" filterUnits="userSpaceOnUse"><feOffset dy="3" input="SourceAlpha"/><feGaussianBlur stdDeviation="3" result="d"/><feFlood flood-opacity="0.2"/><feComposite operator="in" in2="d"/><feComposite in="SourceGraphic"/></filter></defs><g transform="translate(10.5 7.5)"><g class="c" transform="matrix(1, 0, 0, 1, -10.5, -7.5)"><path class="a" d="M16.387,10.859a6.162,6.162,0,0,1-5.943,6.359A6.162,6.162,0,0,1,4.5,10.859,6.162,6.162,0,0,1,10.443,4.5a6.162,6.162,0,0,1,5.943,6.359Z" transform="translate(6 3)"/></g><g class="b" transform="matrix(1, 0, 0, 1, -10.5, -7.5)"><path class="a" d="M28.8,28.8l-3.825-3.825" transform="translate(-3.65 -5.82)"/></g></g></svg>