<svg xmlns="http://www.w3.org/2000/svg" width="105.001" height="75.6" viewBox="0 0 105.001 75.6">
  <path id="Icon_awesome-money-bill-wave-alt" data-name="Icon awesome-money-bill-wave-alt" d="M95.115,5.689A45.345,45.345,0,0,0,77.289,2.25C58.429,2.248,39.57,11.8,20.71,11.8a46.459,46.459,0,0,1-14.187-2.1,5.236,5.236,0,0,0-1.585-.248A4.872,4.872,0,0,0,0,14.318V62.9a4.87,4.87,0,0,0,2.885,4.511A45.32,45.32,0,0,0,20.71,70.85c18.86,0,37.721-9.547,56.581-9.547a46.459,46.459,0,0,1,14.187,2.1,5.236,5.236,0,0,0,1.585.248A4.872,4.872,0,0,0,98,58.78V10.2A4.876,4.876,0,0,0,95.115,5.689ZM49,51.25c-6.767,0-12.25-6.583-12.25-14.7S42.235,21.85,49,21.85s12.25,6.581,12.25,14.7S55.763,51.25,49,51.25Z" transform="translate(3.5 1.25)" fill="none" stroke="#fff" stroke-width="7"/>
</svg>
