<svg width="21" height="21" viewBox="0 0 21 21" fill="none" xmlns="http://www.w3.org/2000/svg">
<path d="M16 19C16.1333 19 16.25 18.95 16.35 18.85C16.45 18.75 16.5 18.6333 16.5 18.5C16.5 18.3667 16.45 18.25 16.35 18.15C16.25 18.05 16.1333 18 16 18C15.8667 18 15.75 18.05 15.65 18.15C15.55 18.25 15.5 18.3667 15.5 18.5C15.5 18.6333 15.55 18.75 15.65 18.85C15.75 18.95 15.8667 19 16 19ZM15.5 17H16.5V13H15.5V17ZM2 19C1.45 19 0.979167 18.8042 0.5875 18.4125C0.195833 18.0208 0 17.55 0 17V6C0 5.45 0.195833 4.97917 0.5875 4.5875C0.979167 4.19583 1.45 4 2 4H6V2C6 1.45 6.19583 0.979167 6.5875 0.5875C6.97917 0.195833 7.45 0 8 0H12C12.55 0 13.0208 0.195833 13.4125 0.5875C13.8042 0.979167 14 1.45 14 2V4H18C18.55 4 19.0208 4.19583 19.4125 4.5875C19.8042 4.97917 20 5.45 20 6V10.275C19.7 10.0583 19.3833 9.87083 19.05 9.7125C18.7167 9.55417 18.3667 9.41667 18 9.3V6H2V17H9.075C9.125 17.35 9.2 17.6917 9.3 18.025C9.4 18.3583 9.525 18.6833 9.675 19H2ZM8 4H12V2H8V4ZM16 21C14.6167 21 13.4375 20.5125 12.4625 19.5375C11.4875 18.5625 11 17.3833 11 16C11 14.6167 11.4875 13.4375 12.4625 12.4625C13.4375 11.4875 14.6167 11 16 11C17.3833 11 18.5625 11.4875 19.5375 12.4625C20.5125 13.4375 21 14.6167 21 16C21 17.3833 20.5125 18.5625 19.5375 19.5375C18.5625 20.5125 17.3833 21 16 21Z" fill="#000000"/>
</svg>
