<svg xmlns="http://www.w3.org/2000/svg" xmlns:xlink="http://www.w3.org/1999/xlink" width="134" height="135" viewBox="0 0 134 135">
  <defs>
    <linearGradient id="linear-gradient" x1="0.5" x2="0.5" y2="1" gradientUnits="objectBoundingBox">
      <stop offset="0" stop-color="#3c3c3c" stop-opacity="0.384"/>
      <stop offset="1" stop-color="#ebebeb" stop-opacity="0.345"/>
    </linearGradient>
    <filter id="Ellipse_179" x="0" y="0" width="134" height="135" filterUnits="userSpaceOnUse">
      <feOffset dy="3" input="SourceAlpha"/>
      <feGaussianBlur stdDeviation="3" result="blur"/>
      <feFlood flood-opacity="0.314"/>
      <feComposite operator="in" in2="blur"/>
      <feComposite in="SourceGraphic"/>
    </filter>
  </defs>
  <g id="Icon_ionic-ios-pause" data-name="Icon ionic-ios-pause" transform="translate(43.015 39.019)">
    <g transform="matrix(1, 0, 0, 1, -43.02, -39.02)" filter="url(#Ellipse_179)">
      <g id="Ellipse_179-2" data-name="Ellipse 179" transform="translate(9 6)" stroke="#fff" stroke-width="4" fill="url(#linear-gradient)">
        <ellipse cx="58" cy="58.5" rx="58" ry="58.5" stroke="none"/>
        <ellipse cx="58" cy="58.5" rx="56" ry="56.5" fill="none"/>
      </g>
    </g>
    <path id="Path_2475" data-name="Path 2475" d="M17.417,44.213H9.948A.942.942,0,0,1,9,43.276V7.687a.942.942,0,0,1,.948-.937h7.469a.942.942,0,0,1,.948.937V43.276A.942.942,0,0,1,17.417,44.213Z" transform="translate(0 0)" fill="#fff"/>
    <path id="Path_2476" data-name="Path 2476" d="M29.792,44.213H22.323a.942.942,0,0,1-.948-.937V7.687a.942.942,0,0,1,.948-.937h7.469a.942.942,0,0,1,.948.937V43.276A.942.942,0,0,1,29.792,44.213Z" transform="translate(8.229 0)" fill="#fff"/>
  </g>
</svg>
