<svg width="24" height="19" viewBox="0 0 24 19" fill="none" xmlns="http://www.w3.org/2000/svg">
<path d="M3.25 0.75C1.87109 0.75 0.75 1.87109 0.75 3.25V4.5H23.25V3.25C23.25 1.87109 22.1289 0.75 20.75 0.75H3.25ZM23.25 8.25H0.75V15.75C0.75 17.1289 1.87109 18.25 3.25 18.25H20.75C22.1289 18.25 23.25 17.1289 23.25 15.75V8.25ZM5.125 13.25H7.625C7.96875 13.25 8.25 13.5312 8.25 13.875C8.25 14.2188 7.96875 14.5 7.625 14.5H5.125C4.78125 14.5 4.5 14.2188 4.5 13.875C4.5 13.5312 4.78125 13.25 5.125 13.25ZM9.5 13.875C9.5 13.5312 9.78125 13.25 10.125 13.25H15.125C15.4688 13.25 15.75 13.5312 15.75 13.875C15.75 14.2188 15.4688 14.5 15.125 14.5H10.125C9.78125 14.5 9.5 14.2188 9.5 13.875Z" fill="white"/>
</svg>
