<svg xmlns="http://www.w3.org/2000/svg" width="21.021" height="22.713" viewBox="0 0 21.021 22.713">
  <path id="Icon_awesome-pencil-alt" data-name="Icon awesome-pencil-alt" d="M20.443,6.306,18.551,8.351a.468.468,0,0,1-.7,0L13.3,3.427a.564.564,0,0,1,0-.754L15.188.627a1.873,1.873,0,0,1,2.788,0l2.468,2.666A2.249,2.249,0,0,1,20.443,6.306ZM11.669,4.429.888,16.079l-.87,5.39A1.028,1.028,0,0,0,1.159,22.7l4.989-.945,10.782-11.65a.564.564,0,0,0,0-.754L12.371,4.429a.472.472,0,0,0-.7,0ZM5.1,15.081a.654.654,0,0,1,0-.878l6.323-6.832a.543.543,0,0,1,.813,0,.654.654,0,0,1,0,.878L5.909,15.081a.543.543,0,0,1-.813,0ZM3.614,18.812H5.585v1.61l-2.648.5-1.277-1.38.464-2.861h1.49Z" transform="translate(-0.002 -0.005)" fill="#707070"/>
</svg>
