<svg xmlns="http://www.w3.org/2000/svg" width="23.969" height="18.528" viewBox="0 0 23.969 18.528"><defs><style>.a{fill:#4a4949;}</style></defs><path class="a" d="M9.834,14.536a44.54,44.54,0,0,1-4.969-.17s.194-2.99,1.552-3.527,1.69-.462,2.16-.748l.035-.02v-.8A3.711,3.711,0,0,1,7.589,7.578,1.341,1.341,0,0,1,7.2,6.667a1.248,1.248,0,0,1,.188-.648,2.638,2.638,0,0,1,2.446-2.8,2.637,2.637,0,0,1,2.446,2.8,1.245,1.245,0,0,1,.188.648,1.341,1.341,0,0,1-.386.911,3.7,3.7,0,0,1-1.022,1.688v.805l.035.02c.472.286.8.21,2.161.748s1.551,3.527,1.551,3.527a44.774,44.774,0,0,1-4.976.17M16.083-.035H.869A.879.879,0,0,0-.006.848V17.612a.878.878,0,0,0,.876.881H16.083L23.963,9.23,16.083-.035Z" transform="translate(0.006 0.035)"/></svg>