<svg xmlns="http://www.w3.org/2000/svg" width="20.087" height="20.088" viewBox="0 0 20.087 20.088">
  <path id="Icon_ionic-ios-person" data-name="Icon ionic-ios-person" d="M24.577,24.08c-.377-1.664-2.527-2.474-3.269-2.736a24.377,24.377,0,0,0-2.725-.523,2.769,2.769,0,0,1-1.261-.581,11.018,11.018,0,0,1-.084-2.579,7.759,7.759,0,0,0,.6-1.135,14.642,14.642,0,0,0,.439-1.983s.429,0,.581-.753a7.412,7.412,0,0,0,.387-1.752c-.031-.6-.361-.586-.361-.586a9.172,9.172,0,0,0,.356-2.684C19.283,6.619,17.6,4.5,14.549,4.5c-3.092,0-4.739,2.119-4.692,4.269a9.567,9.567,0,0,0,.35,2.684s-.33-.016-.361.586a7.412,7.412,0,0,0,.387,1.752c.146.753.581.753.581.753a14.642,14.642,0,0,0,.439,1.983,7.759,7.759,0,0,0,.6,1.135,11.018,11.018,0,0,1-.084,2.579,2.769,2.769,0,0,1-1.261.581,24.376,24.376,0,0,0-2.725.523c-.743.262-2.893,1.072-3.269,2.736a.418.418,0,0,0,.413.507H24.169A.417.417,0,0,0,24.577,24.08Z" transform="translate(-4.501 -4.5)" fill="#555"/>
</svg>
