<svg xmlns="http://www.w3.org/2000/svg" width="66.952" height="50.214" viewBox="0 0 66.952 50.214"><defs><style>.a{fill:#00cdac;}</style></defs><path class="a" d="M61.373,4.5H5.579A5.6,5.6,0,0,0,0,10.079V49.135a5.6,5.6,0,0,0,5.579,5.579H61.373a5.572,5.572,0,0,0,5.551-5.579l.028-39.055A5.6,5.6,0,0,0,61.373,4.5ZM22.317,12.869a8.369,8.369,0,1,1-8.369,8.369A8.358,8.358,0,0,1,22.317,12.869ZM39.055,46.345H5.579v-2.79c0-5.579,11.159-8.648,16.738-8.648s16.738,3.069,16.738,8.648ZM49.8,35.186H54.37l4.212,5.579-5.551,5.551a20.955,20.955,0,0,1-7.616-11.131,20.317,20.317,0,0,1,0-11.159A20.85,20.85,0,0,1,53.031,12.9l5.551,5.551L54.37,24.028H49.8a16.429,16.429,0,0,0,0,11.159Z" transform="translate(0 -4.5)"/></svg>