<svg xmlns="http://www.w3.org/2000/svg" xmlns:xlink="http://www.w3.org/1999/xlink" width="123.224" height="124.033" viewBox="0 0 123.224 124.033">
  <defs>
    <linearGradient id="linear-gradient" x1="0.5" x2="0.5" y2="1" gradientUnits="objectBoundingBox">
      <stop offset="0" stop-color="#3c3c3c" stop-opacity="0.384"/>
      <stop offset="1" stop-color="#ebebeb" stop-opacity="0.345"/>
    </linearGradient>
    <filter id="Ellipse_179" x="0" y="0" width="123.224" height="124.033" filterUnits="userSpaceOnUse">
      <feOffset dy="3" input="SourceAlpha"/>
      <feGaussianBlur stdDeviation="3" result="blur"/>
      <feFlood flood-opacity="0.314"/>
      <feComposite operator="in" in2="blur"/>
      <feComposite in="SourceGraphic"/>
    </filter>
    <filter id="Polygon_1" x="39.648" y="32.377" width="50.376" height="60.09" filterUnits="userSpaceOnUse">
      <feOffset dy="3" input="SourceAlpha"/>
      <feGaussianBlur stdDeviation="3" result="blur-2"/>
      <feFlood flood-opacity="0.161"/>
      <feComposite operator="in" in2="blur-2"/>
      <feComposite in="SourceGraphic"/>
    </filter>
  </defs>
  <g id="Group_1583" data-name="Group 1583" transform="translate(-189.948 -108.937)">
    <g transform="matrix(1, 0, 0, 1, 189.95, 108.94)" filter="url(#Ellipse_179)">
      <g id="Ellipse_179-2" data-name="Ellipse 179" transform="translate(9 6)" stroke="#fff" stroke-width="4" fill="url(#linear-gradient)">
        <ellipse cx="52.612" cy="53.017" rx="52.612" ry="53.017" stroke="none"/>
        <ellipse cx="52.612" cy="53.017" rx="50.612" ry="51.017" fill="none"/>
      </g>
    </g>
    <g transform="matrix(1, 0, 0, 1, 189.95, 108.94)" filter="url(#Polygon_1)">
      <path id="Polygon_1-2" data-name="Polygon 1" d="M19.368,2.58a2,2,0,0,1,3.354,0L40.081,29.287a2,2,0,0,1-1.677,3.09H3.685a2,2,0,0,1-1.677-3.09Z" transform="translate(81.02 38.38) rotate(90)" fill="#f2f2f2"/>
    </g>
  </g>
</svg>
