<svg xmlns="http://www.w3.org/2000/svg" viewBox="0 0 26 30" width="26" height="30">
	<style>
		tspan { white-space:pre }
		.shp0 { fill: #ffffff } 
	</style>
	<path id="Polygon_4" class="shp0" d="M23.86 11.52C24.47 11.87 24.99 12.37 25.34 12.99C25.7 13.6 25.89 14.29 25.89 15C25.89 15.71 25.7 16.4 25.34 17.01C24.99 17.63 24.47 18.13 23.86 18.48L5.97 28.62C5.36 28.96 4.68 29.14 3.98 29.14C3.28 29.13 2.59 28.94 1.99 28.59C1.38 28.24 0.88 27.74 0.53 27.13C0.18 26.52 0 25.84 0 25.14L0 4.86C0 4.16 0.18 3.48 0.53 2.87C0.88 2.26 1.38 1.76 1.99 1.41C2.59 1.06 3.28 0.87 3.98 0.86C4.68 0.86 5.36 1.04 5.97 1.38L23.86 11.52Z" />
</svg>