<svg xmlns="http://www.w3.org/2000/svg" width="116.199" height="104.88" viewBox="0 0 116.199 104.88">
  <g id="Group_3882" data-name="Group 3882" transform="translate(-169.301 -1215.5)">
    <g id="Icon_feather-airplay" data-name="Icon feather-airplay" transform="translate(170.801 1217)">
      <path id="Path_2508" data-name="Path 2508" d="M19.98,83.74H14.32A11.32,11.32,0,0,1,3,72.42V15.82A11.32,11.32,0,0,1,14.32,4.5h90.56A11.32,11.32,0,0,1,116.2,15.82v56.6a11.32,11.32,0,0,1-11.32,11.32H99.22" transform="translate(-3 -4.5)" fill="none" stroke="#000" stroke-linecap="round" stroke-linejoin="round" stroke-width="3"/>
      <path id="Path_2509" data-name="Path 2509" d="M38.8,22.5,67.1,56.46H10.5Z" transform="translate(17.8 45.42)" fill="none" stroke="#000" stroke-linecap="round" stroke-linejoin="round" stroke-width="3"/>
    </g>
    <path id="Icon_material-replay" data-name="Icon material-replay" d="M25.8,11.4V1.5L13.424,13.874,25.8,26.248v-9.9A14.849,14.849,0,1,1,10.95,31.2H6A19.8,19.8,0,1,0,25.8,11.4Z" transform="translate(201.602 1227.298)"/>
  </g>
</svg>
