<svg xmlns="http://www.w3.org/2000/svg" width="68" height="60.445" viewBox="0 0 68 60.445">
  <path id="Icon_awesome-exclamation-triangle" data-name="Icon awesome-exclamation-triangle" d="M67.235,51.946a5.67,5.67,0,0,1-4.908,8.5H5.673a5.67,5.67,0,0,1-4.908-8.5L29.092,2.832a5.67,5.67,0,0,1,9.817,0ZM34,41.792a5.431,5.431,0,1,0,5.431,5.431A5.431,5.431,0,0,0,34,41.792Zm-5.156-19.52.876,16.056a1.417,1.417,0,0,0,1.415,1.339h5.731a1.417,1.417,0,0,0,1.415-1.339l.876-16.056a1.417,1.417,0,0,0-1.415-1.494H30.259a1.417,1.417,0,0,0-1.414,1.494Z" fill="#ffc91a"/>
</svg>
