<svg width="24" height="17" viewBox="0 0 24 17" fill="none" xmlns="http://www.w3.org/2000/svg">
<path d="M12.0001 0.375C11.7153 0.375 11.434 0.424219 11.1668 0.519141L1.30552 4.08047C0.971537 4.20352 0.750053 4.51992 0.750053 4.875C0.750053 5.23008 0.971537 5.54648 1.30552 5.66953L3.34107 6.4043C2.76451 7.31133 2.43755 8.38359 2.43755 9.51211V10.5C2.43755 11.4984 2.05787 12.5285 1.65357 13.3406C1.42505 13.7977 1.1649 14.2477 0.862553 14.6625C0.750053 14.8137 0.718412 15.0105 0.781693 15.1898C0.844975 15.3691 0.992631 15.5027 1.17544 15.5484L3.42544 16.1109C3.5731 16.1496 3.7313 16.1215 3.86138 16.0406C3.99146 15.9598 4.08287 15.8262 4.11099 15.675C4.41333 14.1703 4.26216 12.8203 4.03716 11.8535C3.92466 11.3543 3.77349 10.8445 3.56255 10.377V9.51211C3.56255 8.45039 3.92115 7.44844 4.54341 6.64687C4.99693 6.10195 5.58404 5.6625 6.2731 5.3918L11.7926 3.22266C12.0809 3.11016 12.4079 3.25078 12.5204 3.53906C12.6329 3.82734 12.4922 4.1543 12.204 4.2668L6.68443 6.43594C6.24849 6.6082 5.86529 6.87187 5.5524 7.19531L11.1633 9.22031C11.4305 9.31523 11.7118 9.36445 11.9965 9.36445C12.2813 9.36445 12.5626 9.31523 12.8297 9.22031L22.6946 5.66953C23.0286 5.55 23.2501 5.23008 23.2501 4.875C23.2501 4.51992 23.0286 4.20352 22.6946 4.08047L12.8333 0.519141C12.5661 0.424219 12.2848 0.375 12.0001 0.375ZM5.25005 13.5938C5.25005 14.8348 8.27349 16.125 12.0001 16.125C15.7266 16.125 18.7501 14.8348 18.7501 13.5938L18.2122 8.48203L13.2129 10.2891C12.8227 10.4297 12.4114 10.5 12.0001 10.5C11.5887 10.5 11.1739 10.4297 10.7872 10.2891L5.78794 8.48203L5.25005 13.5938Z" fill="white"/>
</svg>
