<svg xmlns="http://www.w3.org/2000/svg" width="53" height="44" viewBox="0 0 53 44">
  <g id="Search" transform="translate(15.363 10)">
    <g id="Rectangle_3787" data-name="Rectangle 3787" transform="translate(-15.363 -10)" fill="#eaeaea" stroke="#a5a5a5" stroke-width="1">
      <path d="M0,0H49a4,4,0,0,1,4,4V40a4,4,0,0,1-4,4H0a0,0,0,0,1,0,0V0A0,0,0,0,1,0,0Z" stroke="none"/>
      <path d="M1,.5H49A3.5,3.5,0,0,1,52.5,4V40A3.5,3.5,0,0,1,49,43.5H1A.5.5,0,0,1,.5,43V1A.5.5,0,0,1,1,.5Z" fill="none"/>
    </g>
    <rect id="Boundary" width="23" height="25" transform="translate(0.637 0.001)" fill="none"/>
    <path id="_Color" data-name=" ↳Color" d="M17.381,19h0l-5.43-5.42v-.858l-.294-.3a7.072,7.072,0,1,1,.761-.761l.3.294h.858L19,17.381,17.382,19ZM7.061,2.173A4.889,4.889,0,1,0,11.95,7.061,4.894,4.894,0,0,0,7.061,2.173Z" transform="translate(2.637 3.001)" fill="#626262"/>
  </g>
</svg>
