<svg xmlns="http://www.w3.org/2000/svg" width="36" height="36" viewBox="0 0 36 36"><defs><style>.a{fill:#fff;}</style></defs><g transform="translate(-1316 -570)"><circle cx="18" cy="18" r="18" transform="translate(1316 570)"/><path class="a" d="M14.66,1.5H4.666A1.671,1.671,0,0,0,3,3.166v11.66H4.666V3.166H14.66Zm2.5,3.331H8A1.671,1.671,0,0,0,6.331,6.5v11.66A1.671,1.671,0,0,0,8,19.822h9.161a1.671,1.671,0,0,0,1.666-1.666V6.5A1.671,1.671,0,0,0,17.158,4.831Zm0,13.325H8V6.5h9.161Z" transform="translate(1323 577.475)"/></g></svg>