<svg xmlns="http://www.w3.org/2000/svg" width="28.512" height="31.442" viewBox="0 0 28.512 31.442">
  <path id="Icon_simple-email" data-name="Icon simple-email" d="M30.163,14.512a16.215,16.215,0,0,1-.523,3.517,10.178,10.178,0,0,1-1.367,3.089,7.216,7.216,0,0,1-2.318,2.195,6.543,6.543,0,0,1-3.385.835,4.908,4.908,0,0,1-2.448-.6,4.192,4.192,0,0,1-1.654-1.7A5.244,5.244,0,0,1,14.03,24.08,4.511,4.511,0,0,1,10.157,22a6.818,6.818,0,0,1-.963-2.413,10.405,10.405,0,0,1-.126-3.148,14.621,14.621,0,0,1,.959-3.855A10.478,10.478,0,0,1,11.8,9.629a7.5,7.5,0,0,1,2.436-1.882A6.8,6.8,0,0,1,17.2,7.089a9.213,9.213,0,0,1,1.772.151,7.254,7.254,0,0,1,1.375.413,7.437,7.437,0,0,1,1.14.6c.348.224.7.456,1.045.692l-.861,9.9a3.292,3.292,0,0,0,.026,1.159,1.622,1.622,0,0,0,.354.715,1.273,1.273,0,0,0,.574.373,2.13,2.13,0,0,0,2.016-.4,4.3,4.3,0,0,0,1.081-1.375,8.858,8.858,0,0,0,.727-2.067,14.182,14.182,0,0,0,.318-2.574,16.449,16.449,0,0,0-.4-4.81,9.561,9.561,0,0,0-1.78-3.721,8.266,8.266,0,0,0-3.191-2.4A11.581,11.581,0,0,0,16.741,2.9a10.264,10.264,0,0,0-4.6,1A10.549,10.549,0,0,0,8.65,6.684a13.333,13.333,0,0,0-2.287,4.179A18.833,18.833,0,0,0,5.4,16.07a17.314,17.314,0,0,0,.491,5.313A9.6,9.6,0,0,0,7.833,25.19a8.1,8.1,0,0,0,3.289,2.287,12.616,12.616,0,0,0,4.539.758,15.545,15.545,0,0,0,2.979-.32c.491-.1.957-.216,1.4-.346a10.543,10.543,0,0,0,1.206-.432l.623,2.8a6.914,6.914,0,0,1-1.35.668,12.993,12.993,0,0,1-1.6.462,15.567,15.567,0,0,1-3.332.373,17.475,17.475,0,0,1-6.075-.978,11.181,11.181,0,0,1-4.429-2.912A12.229,12.229,0,0,1,2.43,22.744a20.508,20.508,0,0,1-.743-6.674A20.355,20.355,0,0,1,2.964,9.665,15.852,15.852,0,0,1,6.041,4.576a14.021,14.021,0,0,1,4.694-3.358A14.7,14.7,0,0,1,16.814,0,15.343,15.343,0,0,1,22.7,1.055a11.457,11.457,0,0,1,4.252,2.967,12.176,12.176,0,0,1,2.523,4.584A17.527,17.527,0,0,1,30.163,14.512ZM13.289,16.437a6.684,6.684,0,0,0,.346,3.315,1.777,1.777,0,0,0,1.709,1.12,1.888,1.888,0,0,0,.586-.108,2.088,2.088,0,0,0,.674-.4,3.6,3.6,0,0,0,.684-.825,6.333,6.333,0,0,0,.629-1.395l.672-7.694a4.015,4.015,0,0,0-1.045-.138,3.614,3.614,0,0,0-1.739.4,3.442,3.442,0,0,0-1.232,1.171,6.877,6.877,0,0,0-.817,1.925,16.334,16.334,0,0,0-.464,2.633Z" transform="translate(-1.67)"/>
</svg>
