<?xml version="1.0" standalone="no"?>
<!DOCTYPE svg PUBLIC "-//W3C//DTD SVG 20010904//EN"
 "http://www.w3.org/TR/2001/REC-SVG-20010904/DTD/svg10.dtd">
<svg version="1.0" xmlns="http://www.w3.org/2000/svg"
 width="845.000000pt" height="684.000000pt" viewBox="0 0 845.000000 684.000000"
 preserveAspectRatio="xMidYMid meet">
<metadata>
Created by potrace 1.16, written by Peter Selinger 2001-2019
</metadata>
<g transform="translate(0.000000,684.000000) scale(0.100000,-0.100000)"
fill="#000000" stroke="none">
<path d="M6303 6191 c-6 -10 -24 -22 -40 -26 -15 -3 -31 -12 -35 -18 -5 -8
-12 -6 -22 8 -13 18 -16 18 -33 4 -31 -26 -124 -69 -149 -69 -16 0 -24 -6 -24
-18 0 -9 -14 -34 -31 -55 -26 -32 -28 -37 -12 -38 10 0 3 -5 -15 -10 -18 -5
-30 -13 -28 -18 7 -11 -23 -37 -53 -46 -40 -12 -99 -82 -106 -126 -4 -21 -11
-41 -16 -45 -5 -3 -18 -25 -29 -50 -11 -24 -27 -44 -35 -44 -8 0 -16 -8 -16
-17 -1 -10 -3 -33 -5 -51 -1 -18 -5 -40 -8 -49 -4 -11 -2 -14 9 -9 15 5 20
-27 16 -90 -2 -24 24 -50 62 -59 23 -6 27 -4 27 14 0 22 14 28 25 11 4 -6 1
-17 -5 -25 -10 -12 -9 -15 3 -15 18 0 87 -85 88 -109 0 -12 2 -13 6 -2 5 11 7
11 14 0 8 -12 11 -11 19 1 8 13 10 13 10 -1 0 -12 10 -16 43 -15 42 1 43 2 43
34 -1 26 -5 32 -19 28 -14 -3 -17 1 -14 30 2 19 7 37 10 41 4 3 7 14 7 23 0
23 79 103 118 119 18 8 32 17 32 22 0 5 7 9 15 9 9 0 18 6 20 13 3 6 23 13 45
15 32 2 38 0 34 -13 -4 -8 -1 -15 5 -15 6 0 11 7 11 15 0 8 5 15 10 15 6 0 10
9 10 21 0 11 5 17 10 14 7 -4 6 -13 -1 -27 -8 -14 -8 -23 0 -31 6 -6 11 -22
11 -35 0 -24 0 -24 29 7 34 36 49 41 27 9 -20 -28 -20 -38 -1 -38 8 0 15 -5
15 -11 0 -6 9 -9 19 -6 44 11 39 -87 -6 -116 -18 -11 -16 -30 3 -23 9 4 13 2
8 -5 -4 -8 1 -9 15 -4 15 4 21 2 21 -9 0 -23 40 -42 51 -25 5 8 9 18 9 22 0 5
4 6 10 2 16 -10 60 6 60 22 0 9 8 21 17 28 14 11 15 16 5 28 -9 10 -10 17 -2
22 5 3 10 -1 10 -9 0 -9 4 -16 8 -16 12 0 62 54 62 68 0 7 7 12 14 12 8 0 28
12 43 26 l28 27 -27 -7 c-20 -4 -28 -3 -28 6 1 18 22 43 42 51 19 7 52 -19 43
-33 -3 -5 -1 -11 5 -15 5 -3 10 -16 10 -28 1 -14 15 -32 39 -49 31 -21 41 -36
51 -77 6 -28 16 -48 21 -45 5 3 21 29 36 57 22 44 26 66 27 142 1 50 -1 119
-3 155 -4 64 -26 130 -44 130 -5 0 -6 7 -3 16 8 21 -8 49 -55 95 -22 21 -39
43 -39 49 0 5 -4 10 -10 10 -5 0 -7 6 -4 14 7 18 0 30 -46 87 -74 92 -128 129
-189 129 -21 0 -32 -6 -36 -19 -5 -16 -15 -20 -62 -20 -32 0 -72 7 -91 15 -43
18 -45 17 -38 -1 7 -19 -3 -19 -27 -1 -18 14 -18 15 0 25 14 8 15 10 3 11 -8
0 -20 -8 -27 -19z"/>
<path d="M2265 6185 c-5 -2 -35 -10 -65 -19 -81 -22 -146 -77 -180 -151 -28
-60 -60 -191 -60 -246 0 -17 -9 -36 -20 -46 -11 -10 -20 -25 -20 -34 0 -31 40
-111 53 -106 20 6 37 -24 24 -45 -9 -13 -8 -21 1 -30 6 -6 12 -20 12 -30 0
-10 5 -18 11 -18 7 0 9 10 5 25 -5 19 -2 25 9 25 9 0 18 -7 21 -15 4 -8 10
-13 14 -10 5 3 12 0 16 -6 4 -8 3 -9 -4 -5 -16 10 -14 -3 3 -34 17 -29 19 -72
5 -86 -5 -5 -11 -19 -13 -31 -2 -13 -6 -26 -10 -29 -4 -4 -7 -19 -7 -33 0 -18
-3 -22 -11 -14 -9 9 -9 20 0 43 13 40 7 52 -24 44 -33 -8 -36 5 -10 59 l23 47
-28 -20 c-15 -11 -31 -32 -35 -47 -3 -15 -15 -46 -26 -70 -10 -23 -19 -52 -19
-63 0 -37 -100 -116 -225 -178 -22 -11 -48 -29 -58 -40 -10 -10 -36 -27 -58
-37 -24 -11 -42 -27 -45 -41 -3 -12 -19 -35 -36 -50 -29 -28 -30 -28 -44 -10
-11 16 -24 19 -62 18 -62 -3 -77 8 -77 57 0 30 -2 37 -12 29 -14 -11 -113 -1
-113 11 0 4 -18 14 -40 21 -22 7 -40 17 -40 22 0 4 -11 8 -25 8 -24 0 -25 -2
-19 -42 11 -73 52 -134 116 -174 31 -20 48 -24 74 -19 31 5 35 3 45 -22 20
-52 -15 -164 -55 -179 -8 -3 -43 8 -78 24 -35 17 -80 34 -102 38 -40 7 -143
87 -199 154 -29 34 -29 54 -1 199 2 11 -9 12 -54 8 -64 -7 -91 -31 -92 -83 0
-17 -6 -36 -13 -41 -13 -11 -80 -45 -258 -133 -117 -57 -232 -150 -243 -197
-9 -33 -64 -161 -117 -268 -51 -105 -68 -201 -49 -278 10 -43 10 -62 1 -84
-11 -28 -22 -313 -11 -313 3 0 6 -42 6 -92 0 -153 24 -178 188 -198 54 -6 108
-15 120 -20 29 -11 -145 -23 -262 -19 l-92 4 0 -37 0 -37 58 -6 c119 -13 132
-21 132 -84 0 -20 7 -34 20 -41 20 -11 62 -124 53 -146 -7 -18 -85 -52 -158
-69 -111 -25 -105 -21 -105 -72 0 -51 -10 -51 112 -8 42 15 83 25 91 22 8 -3
16 -25 20 -53 3 -28 12 -53 22 -60 15 -11 15 -13 -2 -23 -16 -9 -14 -10 12
-11 l30 -1 -25 -19 c-14 -11 -31 -25 -38 -31 -7 -6 -60 -24 -117 -41 l-105
-31 0 -89 c0 -80 2 -89 18 -84 9 3 35 9 57 14 22 6 47 13 56 16 18 8 29 -27
29 -96 l0 -40 -37 7 c-34 5 -40 3 -55 -22 l-16 -27 -9 34 c-5 20 -17 36 -26
38 -16 3 -17 -22 -17 -322 l0 -326 30 0 c22 0 28 -4 24 -15 -7 -18 -5 -18 51
-4 25 6 42 15 39 20 -3 5 1 9 9 9 8 0 17 -7 20 -15 8 -19 77 -13 89 9 5 9 16
16 24 16 11 0 12 4 5 19 -21 39 36 67 158 78 l54 5 -9 272 c-12 357 -10 420
11 491 14 46 18 95 17 213 0 84 -3 156 -6 160 -4 3 -5 -2 -1 -13 3 -11 -1 -6
-8 10 -26 56 -28 101 -4 131 22 28 117 76 200 101 55 16 55 16 4 118 -55 112
-128 225 -158 246 l-30 21 -19 -20 c-17 -18 -28 -20 -77 -15 -32 3 -62 9 -68
13 -5 4 -24 11 -42 14 -17 4 -48 16 -69 27 -21 10 -49 19 -61 19 -14 0 -23 6
-23 15 0 8 -5 14 -12 12 -6 -1 -14 6 -16 16 -3 14 4 17 38 17 23 0 59 10 83
22 37 20 56 22 162 21 l120 -1 42 -49 c24 -26 43 -43 43 -36 0 6 -4 15 -10 18
-26 16 -1 20 103 17 182 -6 372 12 453 44 117 45 148 47 232 12 46 -19 81 -28
96 -24 33 8 55 -18 27 -33 -11 -6 -27 -11 -37 -11 -16 0 -16 -1 1 -20 10 -11
24 -20 32 -20 18 0 76 -30 85 -44 11 -17 -12 -36 -46 -36 -31 0 -78 10 -126
25 -24 7 -24 7 -7 -12 24 -27 22 -31 -15 -35 -57 -5 -36 -25 45 -42 46 -10 20
-29 -32 -24 -50 5 -127 39 -162 71 -19 18 -56 27 -124 30 -23 2 -30 -2 -29
-15 2 -20 -22 -25 -29 -5 -3 8 -16 1 -38 -19 -28 -26 -40 -31 -70 -27 -21 3
-40 0 -43 -6 -11 -17 -53 -13 -95 9 -21 10 -41 17 -44 14 -3 -3 -19 -6 -36 -6
-17 -1 -31 -4 -31 -8 0 -10 69 -143 107 -205 21 -35 36 -49 49 -48 10 1 73 9
139 18 206 27 490 37 678 25 93 -7 171 -9 175 -6 8 9 -44 132 -84 198 -19 31
-34 67 -34 81 0 24 1 24 37 12 20 -7 45 -22 54 -34 10 -12 25 -21 36 -21 10
-1 29 -7 43 -15 35 -20 53 -18 80 8 45 41 68 47 185 47 88 0 115 3 125 15 7 8
21 15 31 15 10 0 21 5 24 10 9 15 37 -9 31 -26 -7 -18 15 -33 50 -35 42 -1
154 22 154 32 0 5 -7 9 -15 9 -8 0 -15 4 -15 9 0 23 14 41 30 41 10 0 20 9 23
21 7 26 31 20 35 -8 4 -29 72 -27 72 2 0 21 16 53 22 45 2 -3 14 -25 27 -50
14 -25 34 -57 47 -72 26 -32 31 -52 39 -169 5 -66 3 -94 -9 -123 -11 -25 -16
-74 -17 -154 0 -64 -6 -136 -11 -160 -6 -23 -8 -46 -4 -49 11 -11 17 3 24 54
6 39 11 48 27 48 17 0 22 -10 29 -57 8 -53 11 -57 41 -62 21 -4 36 -15 43 -31
6 -14 18 -25 27 -25 8 0 21 -11 30 -24 13 -19 16 -68 17 -287 1 -145 4 -299 6
-341 l4 -77 56 -3 57 -3 12 -60 c11 -56 12 -50 9 85 -2 80 -8 157 -14 173 -9
22 -9 27 3 27 20 0 32 69 14 81 -9 5 -1 7 21 7 19 -1 80 4 135 10 209 25 177
30 316 -49 68 -38 133 -79 144 -91 11 -11 15 -18 8 -14 -18 10 -21 -24 -38
-464 -9 -223 -17 -415 -19 -428 -2 -14 1 -21 8 -19 15 5 22 86 30 337 3 118 9
250 13 292 5 68 8 77 27 80 23 3 29 33 61 283 l15 120 -75 75 c-41 42 -75 83
-75 92 0 32 93 94 175 117 59 17 296 41 406 41 l96 0 7 218 c4 119 10 234 13
255 6 41 21 44 39 9 21 -43 26 -37 19 21 -4 35 -17 76 -33 102 l-26 44 -92 -6
-92 -6 -33 37 c-17 20 -40 41 -50 47 -25 13 -59 -5 -59 -33 0 -22 -2 -22 -70
3 -80 29 -90 34 -85 47 3 8 5 18 5 23 0 15 15 10 38 -11 24 -23 32 -25 32 -9
0 14 36 60 42 53 3 -2 5 6 4 18 -1 19 -6 22 -31 20 -16 -2 -36 -8 -43 -14 -7
-6 -14 -9 -17 -7 -2 3 -5 57 -7 120 -3 95 -8 122 -25 151 -12 20 -19 46 -16
59 3 16 -3 31 -16 43 -25 22 -27 51 -6 60 8 3 15 15 15 26 0 19 2 20 15 6 9
-9 15 -34 15 -65 0 -28 5 -51 10 -51 6 0 10 8 11 18 0 9 2 35 3 57 2 22 1 61
-1 86 l-5 46 -151 7 c-140 6 -188 0 -157 -19 11 -7 116 -17 191 -18 37 -1 70
-29 49 -42 -6 -3 -10 -17 -10 -31 0 -13 -3 -24 -6 -24 -4 0 -30 16 -59 35 -50
33 -55 34 -106 25 -68 -11 -86 -18 -93 -36 -7 -19 -26 -17 -56 6 -24 19 -25
20 -3 20 12 0 28 7 37 15 8 8 23 15 33 15 15 0 15 2 3 10 -8 5 -19 5 -25 1
-24 -20 -75 -22 -104 -5 l-30 18 30 21 29 22 -46 7 c-26 3 -60 6 -75 6 -27 0
-28 -2 -23 -32 3 -18 7 -38 9 -45 2 -7 -25 -43 -60 -80 -36 -37 -65 -75 -65
-84 0 -9 -7 -34 -16 -55 -9 -22 -20 -72 -25 -113 -8 -72 -23 -106 -40 -95 -13
8 -11 49 6 127 8 37 21 97 29 133 8 38 24 76 36 89 17 19 19 23 6 28 -12 5
-13 18 -9 61 6 61 -7 75 -26 28 -11 -26 -19 -30 -90 -41 -84 -14 -163 -7 -182
15 -13 16 2 19 18 3 5 -5 34 -9 64 -7 l54 3 7 50 c3 28 9 69 13 93 9 53 -8 75
-68 91 -31 8 -48 20 -64 45 -18 29 -30 36 -69 42 -25 3 -75 4 -110 1 -63 -5
-64 -4 -64 20 0 13 4 21 10 18 6 -3 10 1 10 11 0 14 2 14 16 3 13 -11 17 -10
26 5 5 9 21 21 34 26 20 8 23 14 18 37 -6 30 -69 93 -93 93 -5 0 -12 7 -15 16
-4 11 -2 15 8 11 9 -4 16 1 18 11 3 12 9 7 23 -18 10 -19 20 -30 22 -24 5 14
-35 117 -49 125 -14 9 -23 95 -10 103 6 3 16 -7 23 -24 l14 -29 12 42 c23 78
16 115 -35 170 l-26 27 36 0 c20 0 40 6 46 13 12 14 20 326 9 344 -10 16 -155
29 -170 14 -6 -6 -12 -44 -13 -84 -1 -39 -3 -107 -4 -149 -1 -43 -5 -78 -9
-78 -4 0 -20 13 -35 29 -16 17 -35 27 -45 24 -10 -2 -23 3 -31 12 -16 20 -5
32 15 15 30 -25 16 19 -22 69 -21 27 -42 56 -48 65 -9 14 -14 12 -40 -21 -30
-38 -40 -82 -49 -214 -5 -76 -30 -122 -59 -113 -12 3 -29 13 -38 20 -8 8 -29
14 -46 14 -30 0 -36 4 -169 123 -22 20 -31 36 -29 53 1 14 4 27 7 29 9 10 68
-17 68 -31 0 -40 75 -37 172 6 60 26 69 40 25 40 -19 0 -40 7 -47 15 -11 13
-7 15 28 15 47 0 92 15 92 30 0 5 -18 10 -39 10 -22 0 -43 5 -46 10 -4 7 2 9
17 5 16 -4 32 0 48 13 l24 19 -30 0 c-111 1 -187 7 -195 17 -6 6 -32 35 -59
64 -74 81 -114 177 -86 205 7 7 15 19 19 27 4 11 6 11 6 2 1 -7 6 -10 11 -7 6
3 10 2 10 -3 0 -4 18 -18 39 -30 21 -12 41 -28 44 -36 3 -8 21 -19 40 -25 30
-10 42 -9 91 13 59 26 68 44 46 86 -16 29 -104 52 -172 44 -40 -5 -58 -3 -58
5 0 6 5 11 11 11 5 0 7 4 4 10 -13 21 16 86 54 120 65 58 94 75 141 80 39 4
45 8 43 28 -3 20 2 22 42 22 39 0 47 -4 57 -25 6 -14 14 -25 18 -25 19 0 51
-44 46 -63 -3 -12 0 -27 6 -35 6 -7 17 -34 23 -60 l12 -47 16 37 c14 34 14 43
1 90 -35 115 -92 221 -147 271 -69 63 -170 100 -222 82z m-632 -1827 c20 -6
37 -14 37 -18 0 -4 10 -5 23 -3 28 6 61 -36 50 -63 -5 -14 -3 -16 11 -11 22 9
32 -17 18 -49 -8 -16 -20 -24 -37 -24 -14 0 -25 5 -25 11 0 5 -4 8 -9 5 -4 -3
-21 -1 -37 4 -16 5 -41 12 -56 15 -39 8 -37 35 3 35 39 0 69 -16 70 -38 0 -9
3 -12 5 -6 3 7 14 9 26 6 18 -4 19 -2 13 19 -4 13 -14 28 -22 32 -7 5 -11 12
-8 17 9 15 -48 36 -105 39 -30 1 -59 5 -64 8 -5 4 -6 1 -3 -4 4 -6 33 -13 64
-17 65 -7 89 -18 78 -35 -5 -8 -26 -10 -68 -5 -34 4 -70 8 -80 8 -20 0 -32 30
-20 48 7 13 9 18 12 37 1 11 71 5 124 -11z m1051 -283 c15 -8 40 -15 53 -15
17 0 23 -4 20 -14 -4 -10 8 -15 51 -19 141 -14 152 -17 152 -46 0 -31 -7 -41
-41 -63 -14 -9 -32 -30 -39 -47 -9 -22 -19 -31 -36 -31 -19 0 -24 -5 -24 -24
0 -38 -25 -52 -71 -39 -21 6 -39 6 -39 2 0 -5 9 -9 20 -9 13 0 20 -7 20 -19 0
-17 -8 -19 -77 -19 -43 0 -109 7 -146 14 -93 19 -136 18 -190 -6 -24 -11 -58
-22 -73 -24 -32 -4 -52 -10 -102 -32 -64 -27 -85 -20 -122 44 -11 17 -27 32
-35 32 -34 0 -8 40 56 88 9 7 60 19 114 27 53 8 111 22 128 30 18 8 58 44 89
79 44 48 71 70 110 85 63 24 142 27 182 6z m1017 -595 c5 0 9 9 9 21 0 11 4
17 11 14 7 -5 5 -15 -5 -30 -18 -28 -12 -51 15 -58 19 -5 23 -38 23 -179 0 -9
3 -15 8 -12 4 3 8 1 8 -3 0 -5 -13 -16 -29 -26 -27 -16 -29 -16 -45 2 -9 9
-13 21 -9 24 3 4 1 7 -4 7 -6 0 -14 -6 -16 -12 -3 -7 -6 -3 -6 10 -1 13 3 20
9 17 16 -10 12 15 -5 31 -24 24 -35 7 -35 -52 l0 -54 -41 0 -41 0 36 40 c39
43 47 67 19 55 -50 -21 -64 -18 -76 14 -6 17 -17 31 -24 31 -15 0 -29 48 -17
59 10 8 75 -23 74 -35 -1 -14 41 -17 53 -5 6 6 17 11 24 11 18 0 53 -32 53
-48 0 -7 4 -11 9 -7 5 3 7 20 4 39 -3 18 0 42 5 53 9 15 7 26 -5 44 -24 35
-23 35 -31 22 -6 -9 -18 -9 -51 0 l-42 13 26 12 c14 7 34 12 44 12 11 0 22 8
27 18 7 15 8 14 11 -5 3 -13 9 -23 14 -23z"/>
<path d="M968 5938 c-16 -5 -28 -14 -28 -19 0 -5 -13 -9 -28 -9 -17 0 -37 -10
-50 -23 -24 -26 -34 -73 -14 -69 7 1 12 -9 12 -28 0 -34 16 -39 36 -12 13 16
15 16 29 -2 8 -11 13 -30 11 -43 -8 -40 23 -26 46 22 14 30 25 41 30 32 5 -9
11 -7 22 8 25 34 30 -7 7 -51 -12 -21 -21 -43 -21 -49 0 -18 -44 -52 -76 -58
-35 -7 -64 15 -64 48 0 14 -4 12 -22 -10 -18 -24 -22 -25 -30 -10 -6 10 -6 21
2 30 6 8 10 22 8 32 -3 13 -10 6 -22 -24 -18 -43 -36 -57 -36 -28 0 22 -15 18
-32 -7 -13 -19 -18 -21 -31 -10 -13 12 -18 9 -30 -15 -19 -36 -9 -155 23 -273
27 -97 41 -123 89 -165 20 -16 46 -40 59 -53 24 -23 42 -22 42 4 0 20 23 18
64 -6 36 -19 36 -19 46 1 17 31 -3 48 -53 46 -75 -3 -146 74 -147 160 0 34 14
51 26 31 5 -8 10 -4 15 10 10 25 34 29 43 7 6 -17 36 -21 36 -5 0 19 -64 51
-90 45 -19 -4 -21 -3 -10 5 30 20 70 11 101 -22 16 -18 29 -38 29 -45 0 -6
-20 -15 -45 -19 -26 -3 -45 -12 -45 -19 0 -7 8 -12 17 -11 10 0 18 -6 18 -14
0 -8 8 -16 18 -18 12 -2 17 3 17 17 0 30 34 27 54 -4 10 -15 26 -25 40 -25 21
0 24 6 34 76 8 61 17 84 41 114 17 22 31 43 31 48 0 19 65 20 101 1 20 -10 39
-15 43 -12 8 9 -4 55 -20 74 -20 23 -16 58 12 109 14 25 23 37 20 28 -3 -10
-1 -20 4 -23 6 -4 10 -15 10 -26 0 -10 5 -19 10 -19 6 0 10 15 10 33 0 34 24
67 50 67 9 0 11 -11 7 -40 -4 -35 -3 -39 15 -37 11 2 23 8 26 14 4 5 20 12 36
15 22 5 30 2 34 -14 7 -30 37 -18 40 17 3 31 -41 95 -66 95 -7 0 -12 3 -12 8
0 4 -12 15 -25 25 -22 16 -27 16 -40 3 -18 -18 -56 -9 -62 15 -3 9 -19 23 -36
29 -18 6 -39 16 -48 20 -9 5 -47 11 -84 15 -37 3 -75 10 -85 15 -23 12 -76 12
-112 -2z"/>
<path d="M4769 5692 c-35 -23 -59 -48 -59 -62 0 -6 -7 -24 -15 -40 -8 -16 -17
-53 -20 -81 -2 -28 -11 -59 -19 -68 -13 -14 -13 -24 -5 -55 6 -20 9 -47 8 -59
-6 -57 15 -145 49 -204 20 -35 39 -63 42 -63 11 0 31 59 27 82 -1 12 -11 37
-20 55 -37 69 -23 78 133 88 96 6 123 12 162 33 27 14 48 31 48 38 0 7 16 22
35 34 19 12 35 25 35 29 0 17 -26 31 -58 31 -18 0 -53 5 -78 11 -37 10 -45 15
-42 33 3 18 11 21 61 24 31 2 57 7 57 11 0 5 -28 6 -63 4 -53 -5 -66 -2 -82
13 -18 19 -18 19 16 25 32 6 32 6 5 8 -20 1 -27 5 -23 16 8 20 -9 28 -34 15
-26 -14 -36 -6 -19 15 10 12 10 15 -3 15 -9 0 -28 -5 -43 -11 l-28 -10 19 21
c11 12 33 28 50 35 l30 13 -40 -1 c-27 -2 -39 2 -37 11 3 18 -59 15 -89 -6z"/>
<path d="M8361 5373 c-67 -40 -149 -121 -176 -176 -23 -46 -37 -112 -40 -185
-2 -35 -7 -68 -12 -73 -5 -5 -7 -27 -5 -49 4 -34 7 -40 28 -40 13 0 24 5 24
10 0 6 8 14 18 17 9 4 29 19 45 35 27 28 31 27 28 -4 -1 -11 8 -18 29 -23 20
-4 30 -12 26 -20 -4 -10 2 -11 25 -5 20 6 33 5 42 -4 7 -7 18 -11 25 -8 6 2
12 -1 12 -7 0 -6 5 -11 10 -11 16 0 13 447 -2 453 -10 4 -10 6 0 6 6 1 12 7
12 15 0 8 -6 17 -12 19 -10 4 -10 6 0 6 17 1 16 81 -1 81 -7 0 -41 -17 -76
-37z"/>
<path d="M6718 5365 c-3 -4 -23 -7 -44 -8 -38 -3 -39 -4 -39 -42 0 -33 4 -41
22 -43 12 -2 29 -14 38 -28 13 -20 19 -22 35 -14 12 7 21 7 25 0 8 -12 45 -13
45 -1 0 4 -9 20 -20 33 -22 29 -43 78 -36 86 3 2 17 -5 32 -17 15 -11 23 -21
18 -21 -5 0 -1 -5 9 -11 22 -13 24 -74 2 -83 -8 -3 -15 -10 -15 -16 0 -5 7
-10 15 -10 8 0 15 5 15 11 0 5 5 7 10 4 13 -8 13 65 0 99 -14 39 -47 66 -78
66 -16 0 -31 -2 -34 -5z"/>
<path d="M7026 5191 c-3 -4 10 -34 29 -66 19 -31 35 -63 35 -69 0 -6 -23 -49
-50 -96 -28 -47 -53 -93 -56 -103 -3 -9 -10 -14 -16 -11 -6 4 -7 9 0 13 5 3
13 17 17 31 6 22 2 20 -30 -15 -20 -22 -43 -52 -51 -68 -18 -34 -39 -30 -39 6
1 22 -4 27 -24 27 -19 0 -22 3 -13 12 13 13 17 72 5 66 -5 -2 -24 -11 -43 -20
-20 -9 -56 -35 -80 -57 -25 -23 -51 -39 -57 -36 -7 2 -13 1 -13 -4 0 -11 -73
-20 -80 -10 -6 9 -80 -13 -80 -23 0 -5 5 -8 10 -8 6 0 -1 -12 -15 -28 -21 -24
-31 -27 -77 -26 -29 1 -66 6 -83 11 -16 4 -57 6 -90 3 -55 -5 -58 -6 -37 -18
12 -7 22 -19 22 -27 0 -8 5 -15 10 -15 6 0 10 -7 10 -15 0 -7 7 -18 16 -23 11
-6 14 -14 8 -23 -4 -8 -7 -90 -6 -184 1 -137 5 -183 21 -239 19 -64 19 -72 5
-134 -9 -37 -20 -73 -26 -80 -8 -9 -7 -11 4 -7 21 8 27 -45 20 -185 -4 -102
-3 -113 12 -107 14 6 16 -5 16 -96 0 -111 -17 -194 -68 -337 -22 -60 -34 -119
-42 -200 -16 -161 -17 -165 -36 -145 -8 8 -21 15 -27 15 -6 0 4 -13 23 -28
l33 -28 -11 -75 c-6 -41 -14 -108 -16 -149 -6 -89 -35 -228 -76 -365 -16 -54
-27 -101 -25 -103 12 -13 69 66 81 112 3 15 11 23 17 19 6 -4 8 2 4 16 -3 13
0 37 8 55 7 17 18 51 25 76 6 25 16 60 22 78 10 35 13 54 23 192 4 47 11 103
16 125 5 22 13 87 18 145 10 110 26 201 41 235 5 11 14 37 21 58 14 39 29 49
29 20 1 -16 2 -16 16 2 15 20 15 20 36 -5 l21 -25 -7 30 c-4 17 -11 48 -15 70
-4 22 -12 49 -18 60 -34 63 -52 125 -55 185 -2 52 -1 55 21 55 13 0 27 -7 32
-15 4 -8 23 -98 43 -200 20 -102 49 -228 66 -280 20 -60 28 -104 25 -122 -4
-15 -8 -44 -11 -65 -10 -90 -13 -111 -23 -158 -16 -80 -41 -177 -56 -220 -8
-22 -17 -51 -20 -65 -13 -65 -18 -85 -24 -90 -9 -7 -31 -96 -36 -150 -3 -25
-10 -67 -16 -95 -6 -27 -13 -68 -15 -90 -3 -22 -12 -64 -20 -93 -16 -58 -13
-72 17 -72 21 0 26 29 9 46 -12 12 -8 30 29 169 28 102 97 304 128 375 l24 54
24 -29 c14 -17 27 -41 31 -55 3 -14 8 -32 11 -40 8 -21 3 -64 -9 -71 -6 -4 -4
-12 4 -20 8 -8 17 -23 21 -33 9 -24 16 -17 19 18 3 30 25 47 37 27 4 -7 19
-13 32 -15 31 -3 99 -37 99 -49 0 -5 7 -6 16 -3 9 3 12 2 9 -4 -4 -6 10 -17
30 -26 l36 -15 -5 -92 c-2 -51 -5 -108 -5 -128 0 -20 -5 -49 -11 -65 -14 -36
-31 -147 -30 -193 0 -19 5 -52 11 -73 8 -31 14 -38 34 -38 25 0 33 18 51 111
9 41 33 81 45 73 5 -3 8 -2 7 3 -1 4 3 18 10 31 9 16 10 27 2 42 -6 11 -7 20
-2 20 4 0 8 16 8 36 0 20 6 39 15 45 9 6 10 9 2 9 -19 0 -16 31 5 47 12 10 14
16 5 19 -18 8 -16 24 1 24 22 0 28 17 16 40 -8 15 -8 20 3 20 16 0 10 71 -7
82 -8 5 -8 13 2 28 14 24 16 100 2 100 -5 0 -10 14 -10 30 0 17 5 30 10 30 15
0 12 26 -5 40 -11 9 -14 27 -11 71 3 32 2 58 -2 58 -22 -4 -34 5 -47 34 -8 17
-13 23 -10 12 4 -13 3 -17 -4 -10 -6 6 -6 30 0 64 4 30 6 58 3 63 -3 5 -1 14
4 21 5 7 12 25 16 41 4 17 16 38 28 47 11 10 17 22 14 27 -3 5 1 41 9 79 13
62 16 101 14 193 -1 13 4 26 10 28 6 2 11 10 11 18 0 16 26 19 35 4 3 -5 16
-10 29 -10 26 0 67 -33 87 -70 16 -30 15 -198 -1 -214 -5 -5 -10 -20 -10 -33
0 -13 -4 -31 -10 -41 -11 -19 -37 -80 -55 -128 -17 -45 4 -84 45 -84 17 0 30
-4 30 -9 0 -16 -30 -80 -40 -86 -6 -4 -8 -15 -5 -25 4 -12 -1 -22 -12 -29 -17
-10 -17 -10 0 -11 22 0 23 -37 1 -68 -14 -20 -14 -23 1 -28 14 -6 14 -8 1 -23
-8 -9 -17 -38 -21 -66 -4 -27 -13 -56 -19 -64 -6 -8 -9 -24 -8 -37 2 -15 -3
-26 -13 -30 -13 -5 -16 -19 -14 -63 2 -58 -24 -151 -44 -151 -5 0 -7 -10 -4
-22 4 -12 1 -28 -4 -35 -6 -6 -7 -18 -3 -25 5 -7 9 -27 10 -45 1 -40 44 -87
44 -48 0 8 5 15 10 15 14 0 13 -13 -5 -57 -8 -21 -16 -49 -17 -63 -2 -14 -7
-30 -11 -37 -4 -7 -10 -32 -12 -56 -4 -40 -2 -46 18 -51 19 -6 13 -11 -40 -37
-37 -18 -65 -38 -68 -50 -4 -12 -14 -29 -23 -39 -10 -10 -23 -26 -30 -35 -10
-12 -22 -14 -45 -9 -28 6 -30 5 -18 -10 7 -9 17 -16 21 -16 4 0 22 -13 40 -30
37 -35 56 -37 101 -13 42 23 47 27 91 93 21 30 65 93 97 140 65 93 195 303
207 335 4 11 21 43 38 70 16 28 45 79 64 115 18 36 37 70 41 75 5 6 30 51 56
100 26 50 61 109 76 132 16 23 29 45 29 48 0 4 17 30 37 58 35 47 102 147 130
192 22 37 66 132 68 150 1 6 7 21 12 35 6 14 13 41 17 60 l6 35 -15 -40 c-21
-54 -35 -66 -35 -31 0 18 -13 45 -34 71 -30 36 -33 45 -26 76 4 19 9 27 9 19
1 -10 8 -7 21 11 17 22 25 25 57 20 32 -5 38 -10 41 -34 3 -26 16 -35 26 -18
3 4 72 -7 153 -25 81 -19 157 -34 169 -34 12 0 35 -5 52 -11 26 -9 30 -14 26
-37 -3 -15 -9 -28 -15 -30 -5 -2 -9 -12 -9 -23 0 -11 -4 -27 -9 -37 -41 -83
-71 -156 -77 -188 -4 -22 -15 -57 -24 -79 -10 -22 -18 -56 -19 -75 -1 -19 -8
-47 -16 -64 -8 -16 -15 -31 -15 -33 0 -7 68 43 143 107 l76 65 1 707 0 707
-42 11 c-43 10 -134 37 -154 46 -7 3 -18 -21 -29 -58 -9 -35 -23 -77 -31 -94
-8 -17 -20 -53 -27 -80 l-12 -49 -45 0 c-25 1 -62 5 -82 9 -31 7 -38 5 -38 -7
0 -18 -25 -28 -55 -23 -16 2 -21 11 -22 42 -2 21 -7 71 -13 109 -6 39 -12 117
-15 174 -5 127 -15 180 -67 346 -63 203 -83 241 -187 346 -50 51 -94 88 -101
84 -6 -3 -9 -1 -8 6 6 23 -91 82 -147 90 -47 6 -58 13 -112 68 -48 48 -62 69
-67 102 -10 62 -43 89 -110 89 -30 0 -57 -4 -60 -9z m994 -1525 c30 -14 46
-28 48 -42 2 -15 12 -24 33 -28 31 -6 37 -23 19 -57 -6 -10 -13 -43 -16 -71
-3 -29 -16 -73 -29 -97 -22 -38 -50 -119 -45 -130 4 -10 -66 -31 -105 -31 -63
0 -76 25 -64 119 5 40 11 76 14 81 3 4 9 67 14 139 5 72 12 135 16 140 8 14
60 4 115 -23z m-436 -1388 c-26 -51 -50 -94 -55 -96 -5 -2 -9 -9 -9 -16 0 -6
-11 -27 -24 -46 -13 -19 -43 -71 -66 -115 -24 -44 -58 -104 -77 -133 -18 -29
-33 -55 -33 -58 0 -7 -50 -76 -96 -132 -30 -36 -50 -24 -57 36 -4 32 0 64 10
93 18 52 20 58 71 260 22 86 42 161 45 166 4 6 43 28 87 49 44 21 80 42 80 47
0 4 10 7 23 7 12 1 36 7 52 15 17 7 45 14 63 14 l32 1 -46 -92z"/>
<path d="M4880 5161 c0 -5 -18 -11 -41 -15 -35 -6 -40 -10 -36 -27 3 -12 0
-22 -9 -26 -13 -5 -13 -7 0 -17 8 -6 19 -30 25 -52 13 -47 23 -58 66 -68 16
-4 33 -12 36 -18 10 -15 71 -25 134 -22 46 3 61 0 72 -14 13 -15 14 -12 8 23
-13 92 -15 94 -53 105 -20 5 -75 10 -121 10 -66 0 -81 3 -73 13 15 18 15 29 2
37 -8 5 -9 13 -4 21 12 19 14 59 3 59 -5 0 -9 -4 -9 -9z"/>
<path d="M6019 5130 c-41 -21 -56 -55 -32 -69 9 -4 24 -6 33 -4 10 3 21 0 24
-6 4 -6 16 -11 28 -11 11 0 32 -13 47 -29 14 -15 46 -38 69 -50 24 -12 45 -28
49 -36 3 -8 10 -12 15 -9 6 4 6 9 -2 14 -8 5 -3 23 19 65 17 32 36 64 41 70
19 23 -40 47 -160 65 -30 5 -64 11 -75 14 -11 3 -36 -3 -56 -14z"/>
<path d="M5242 5090 c-37 -23 -51 -51 -44 -88 4 -20 9 -23 31 -18 14 4 40 8
58 10 44 6 93 36 93 59 0 14 -5 17 -21 12 -12 -4 -19 -3 -16 2 10 15 -8 32
-38 38 -20 4 -41 -1 -63 -15z"/>
<path d="M3520 4981 c0 -6 -10 -11 -22 -12 l-23 0 23 -9 c46 -19 48 -100 2
-100 -10 0 -22 -4 -25 -10 -4 -6 23 -10 74 -10 80 0 81 0 87 28 8 40 26 72 35
66 5 -3 8 5 7 18 -2 19 -8 23 -37 25 -20 1 -55 5 -78 8 -29 5 -43 3 -43 -4z"/>
<path d="M4900 4858 c0 -16 83 -127 96 -128 6 0 19 -9 29 -20 10 -11 21 -17
25 -15 5 3 13 -8 18 -24 7 -19 19 -31 38 -35 33 -9 76 -41 67 -50 -4 -4 6 -18
21 -33 l28 -26 26 20 c35 26 39 43 10 37 l-23 -5 23 11 c29 12 24 32 -9 41
-22 6 -22 7 -3 8 28 1 53 29 36 40 -14 8 28 71 56 84 9 4 6 4 -8 0 -46 -13
-152 -4 -172 14 -17 15 -18 15 -18 -1 0 -10 9 -20 20 -23 36 -9 21 -23 -24
-23 -25 0 -48 -4 -51 -10 -11 -18 -26 -10 -20 10 6 20 -2 24 -42 23 -8 -1 -11
7 -7 22 5 18 -4 27 -55 58 -34 20 -61 31 -61 25z"/>
<path d="M2985 4773 c-14 -29 -19 -65 -21 -152 -1 -63 2 -125 7 -138 12 -33
56 -32 69 3 11 27 14 282 4 308 -11 28 -40 18 -59 -21z"/>
<path d="M3620 4760 c-25 -5 -72 -15 -105 -22 l-60 -15 -3 -84 -3 -85 36 4
c28 3 35 8 35 26 0 34 20 46 75 46 62 0 78 -10 79 -47 l1 -28 175 -6 c96 -4
178 -4 183 -2 4 2 7 39 7 81 l0 77 -52 14 c-211 53 -266 59 -368 41z"/>
<path d="M8011 4678 c-40 -31 -51 -48 -32 -48 6 0 13 5 16 10 7 11 65 43 65
37 0 -3 -18 -17 -40 -32 -22 -15 -40 -32 -40 -38 0 -6 8 -3 18 5 9 8 28 21 42
30 25 15 26 15 28 -6 1 -12 24 -59 51 -104 27 -46 52 -96 56 -111 5 -24 55
-83 55 -65 0 3 15 -5 33 -17 17 -12 33 -23 33 -23 1 -1 5 -11 8 -23 12 -37
-14 -27 -62 22 -24 25 -48 45 -53 45 -5 0 -9 7 -9 16 0 8 -4 13 -10 9 -5 -3
-19 0 -30 7 -33 21 -117 104 -150 149 -16 23 -30 39 -30 35 0 -18 28 -56 87
-120 45 -48 63 -74 60 -87 -6 -21 27 -69 48 -69 7 0 15 -6 18 -12 3 -7 28 -44
56 -81 28 -37 51 -72 51 -77 0 -5 -16 -10 -35 -12 -35 -3 -35 -3 -19 -27 9
-12 19 -19 23 -13 17 26 48 21 98 -17 29 -21 49 -41 46 -44 -3 -3 4 -3 16 0
12 3 21 1 21 -6 0 -6 5 -11 11 -11 8 0 8 4 0 13 -8 10 -7 17 1 25 9 9 9 12 -1
12 -9 0 -10 4 -4 13 6 6 11 66 12 133 l2 120 -68 29 c-87 37 -144 72 -140 88
1 7 -6 11 -16 9 -21 -4 -46 24 -47 51 0 10 -4 16 -9 12 -5 -3 -12 -1 -16 5 -3
5 -1 10 4 10 6 0 11 7 11 15 0 9 -6 12 -15 9 -11 -5 -15 2 -15 26 0 24 -4 31
-15 26 -15 -6 -55 58 -55 88 0 27 -17 26 -59 -6z"/>
<path d="M3450 4509 c0 -10 7 -16 17 -15 14 1 19 -11 25 -54 4 -30 13 -82 21
-115 13 -58 14 -59 21 -28 4 18 5 37 1 42 -11 19 -17 148 -7 155 17 10 61 -12
61 -31 0 -36 26 -192 34 -199 4 -4 7 8 7 27 l0 34 20 -30 c12 -18 20 -47 20
-72 0 -45 8 -57 30 -43 9 5 19 5 27 -2 19 -15 27 -3 14 20 -6 12 -11 31 -11
44 l1 23 19 -23 20 -24 28 21 c16 11 46 42 68 68 21 26 46 56 55 66 9 9 22 30
29 45 7 15 16 34 20 42 4 8 17 16 29 18 70 11 -36 32 -159 32 -55 0 -57 -1
-73 -35 -9 -19 -21 -35 -26 -35 -14 0 -33 38 -26 50 11 18 -32 28 -147 32
-106 4 -118 3 -118 -13z"/>
<path d="M4415 4051 c-53 -24 -77 -53 -114 -131 -22 -47 -33 -88 -37 -143 l-7
-77 -42 0 c-24 0 -47 -6 -53 -12 -16 -20 17 -53 53 -53 22 0 33 -7 42 -26 19
-40 35 -49 104 -60 35 -5 72 -15 83 -20 14 -8 22 -7 31 3 16 18 39 278 25 292
-19 19 -102 -12 -145 -55 -46 -45 -81 -53 -69 -16 30 98 80 151 175 182 43 15
49 20 49 45 0 15 3 42 6 59 6 30 5 31 -27 31 -19 0 -52 -9 -74 -19z"/>
<path d="M2468 3199 c-3 -8 -29 -14 -68 -16 -35 -2 -69 -8 -76 -14 -7 -6 -33
-7 -61 -4 -33 5 -59 2 -83 -9 l-35 -15 35 -1 c38 0 142 -48 148 -67 3 -9 -15
-11 -72 -8 -60 4 -76 2 -76 -9 0 -8 18 -21 39 -29 22 -9 42 -21 46 -27 4 -6
18 -15 31 -20 35 -14 31 -52 -8 -91 -32 -30 -29 -32 18 -12 7 2 14 -12 18 -34
3 -21 10 -44 15 -51 12 -19 76 -23 98 -6 10 7 29 14 43 15 20 1 21 2 5 6 -53
11 -126 36 -131 45 -11 18 38 47 89 54 26 4 47 11 47 15 0 5 -18 6 -40 3 -21
-4 -47 -4 -56 0 -15 6 -15 8 2 27 11 12 30 26 44 31 15 6 20 12 13 15 -20 7
-16 24 12 53 24 26 25 27 9 58 -13 26 -14 39 -5 64 6 17 9 33 7 35 -2 2 -6 -1
-8 -8z"/>
<path d="M4537 2888 c-4 -73 -3 -135 1 -139 4 -4 31 -9 60 -11 75 -7 80 7 35
113 -19 46 -41 102 -48 124 -7 22 -19 41 -27 43 -12 2 -16 -20 -21 -130z"/>
<path d="M5081 2783 c-16 -73 -17 -119 -2 -137 12 -14 9 -16 -24 -16 -51 0
-39 -10 14 -12 l42 -1 -5 -76 c-10 -153 -24 -317 -31 -363 -4 -27 -4 -48 1
-47 18 1 66 70 65 92 0 12 -4 74 -7 138 -4 70 -2 137 5 167 7 34 7 66 0 103
-6 30 -16 84 -22 121 -7 36 -15 69 -18 73 -4 3 -12 -16 -18 -42z"/>
<path d="M2327 2735 c-10 -7 -26 -11 -35 -9 -9 2 -28 -4 -41 -15 l-24 -18 27
-19 c23 -14 32 -15 47 -6 17 11 19 9 19 -13 0 -13 -7 -40 -16 -59 -9 -19 -14
-40 -11 -48 2 -8 28 -26 57 -41 l51 -27 -3 28 c-3 23 2 29 30 38 19 6 37 15
40 21 6 9 73 40 127 58 19 6 19 7 2 16 -18 11 -113 7 -175 -6 -37 -8 -38 -26
-1 -36 23 -7 23 -7 -4 -8 -16 -1 -30 5 -33 14 -4 8 -12 15 -19 15 -8 0 -17 5
-21 12 -9 14 44 58 63 51 23 -9 14 2 -25 34 -32 26 -40 29 -55 18z"/>
<path d="M544 2498 c1 -26 0 -48 -3 -48 -3 0 -11 -11 -18 -25 -8 -19 -8 -25 0
-25 7 0 6 -4 -2 -9 -8 -5 -11 -16 -8 -24 3 -8 1 -19 -4 -24 -18 -18 1 -61 30
-71 27 -10 28 -13 35 -107 7 -104 13 -124 55 -169 18 -20 22 -30 13 -33 -9 -4
-11 -18 -6 -53 6 -47 6 -48 -40 -83 -29 -22 -42 -37 -34 -40 8 -4 -4 -22 -35
-51 -27 -25 -46 -50 -42 -56 3 -5 1 -10 -6 -10 -18 0 -1 -13 21 -17 22 -3 27
12 8 21 -7 3 24 3 70 -1 l84 -6 53 53 54 53 93 -7 c180 -14 224 -16 291 -16
46 0 67 -3 67 -12 0 -8 3 -8 9 -3 15 15 203 7 198 -8 -3 -8 -33 -11 -101 -9
-62 2 -96 -1 -96 -8 0 -5 12 -11 28 -12 15 -1 38 -3 52 -4 14 -1 45 -3 70 -4
l45 -3 -35 -7 c-30 -6 -31 -8 -8 -9 14 0 28 -6 30 -11 2 -6 32 -13 68 -16 65
-6 65 -6 83 25 10 17 15 31 10 32 -30 1 -99 12 -102 15 -2 2 -2 7 1 10 8 8
334 -7 348 -16 9 -6 4 -21 -19 -53 -17 -25 -35 -49 -40 -52 -5 -3 -85 -1 -178
5 -465 29 -808 49 -811 45 -2 -1 19 -6 47 -10 65 -9 278 -70 297 -85 8 -7 134
-22 316 -36 167 -13 326 -26 353 -28 28 -3 51 -6 53 -6 2 0 0 -5 -3 -10 -4 -6
-21 -8 -38 -6 -18 3 -84 8 -147 11 -63 3 -180 10 -260 15 -80 5 -153 10 -164
10 -14 0 -7 -11 27 -42 25 -24 53 -55 62 -71 14 -22 20 -25 32 -16 17 15 30 4
16 -13 -6 -7 -13 -44 -15 -83 -3 -38 -8 -79 -13 -90 l-8 -20 16 20 c13 16 12
8 -4 -34 -18 -48 -19 -101 -1 -76 13 19 169 23 340 10 143 -11 170 -7 211 34
12 12 21 23 21 25 0 6 59 95 75 113 30 36 35 43 35 50 0 4 17 26 38 49 39 43
42 48 42 64 0 6 11 16 25 22 14 6 24 17 21 24 -3 8 -1 16 5 20 5 3 20 22 33
42 13 21 35 50 50 65 14 15 26 37 26 48 0 10 7 19 16 19 8 0 22 17 30 38 9 20
26 51 37 67 19 26 22 43 21 115 -2 94 -15 198 -28 218 -7 11 -4 12 13 2 21
-11 62 -6 60 8 -4 24 6 31 49 35 68 7 132 27 167 52 17 13 35 21 41 18 14 -5
25 20 15 35 -5 8 -17 6 -41 -8 -71 -41 -117 -59 -182 -70 -63 -11 -70 -11
-103 10 -40 25 -39 32 7 51 18 7 53 29 77 48 43 35 47 36 150 41 115 6 117 15
6 25 -38 3 -88 9 -111 12 -29 4 -45 1 -56 -10 -24 -25 -81 -57 -100 -57 -22 0
-23 23 -3 40 8 7 15 18 15 25 0 14 22 25 52 25 11 0 18 4 16 9 -4 12 -110 101
-119 101 -8 0 -18 -65 -17 -110 1 -14 -3 -58 -7 -98 -7 -62 -5 -75 10 -92 10
-11 13 -20 7 -20 -7 0 -12 -9 -12 -21 0 -15 -5 -20 -22 -17 -21 3 -23 9 -26
75 -3 65 -5 72 -25 75 -16 2 -21 9 -20 26 2 14 -3 22 -13 22 -16 0 -16 14 -2
60 3 8 3 12 1 7 -3 -4 -8 -5 -13 -2 -4 3 -11 -19 -15 -47 -11 -94 -16 -107
-46 -129 -16 -11 -41 -45 -55 -75 -27 -58 -39 -66 -49 -34 -8 25 -31 26 -45 1
-14 -26 -13 -29 9 -33 29 -5 8 -46 -31 -62 -61 -25 -78 -28 -73 -14 4 9 -4 13
-22 13 -29 0 -53 -15 -53 -35 0 -6 -7 -13 -15 -16 -8 -4 -13 -10 -10 -14 5 -8
-54 -20 -95 -19 -24 0 -24 1 -4 9 12 4 23 17 26 28 4 15 1 18 -18 14 -16 -3
-24 0 -24 9 0 9 -3 10 -11 2 -13 -13 -59 -4 -66 14 -3 8 -17 19 -32 24 -19 8
-22 12 -12 18 8 5 10 14 7 20 -11 17 -20 13 -31 -11 -7 -15 -19 -23 -35 -23
-36 0 -46 -10 -44 -42 1 -15 3 -29 4 -30 10 -13 1 -48 -13 -51 -9 -2 -17 3
-17 10 0 9 -12 14 -35 14 -19 0 -35 -4 -35 -8 0 -4 -7 -8 -15 -8 -9 0 -12 6
-9 15 4 10 0 15 -11 15 -13 0 -16 6 -11 24 3 14 1 28 -5 31 -6 4 -8 14 -5 22
4 8 1 11 -5 8 -6 -4 -13 2 -16 14 -3 12 -10 21 -15 21 -5 0 -6 -9 -3 -20 3
-11 4 -20 0 -20 -7 0 -29 52 -27 63 1 4 -9 13 -23 19 -15 7 -24 17 -21 25 3 8
-2 13 -14 13 -11 0 -29 9 -40 20 -26 26 -28 25 -22 -5 3 -16 11 -25 23 -25 11
0 19 -5 19 -11 0 -8 -12 -10 -35 -6 -19 3 -35 2 -35 -4 0 -8 14 -13 32 -10 14
2 30 -42 30 -85 0 -33 3 -44 15 -44 14 0 14 -2 1 -17 -8 -10 -18 -27 -22 -38
-7 -20 -8 -20 -22 -1 -10 14 -11 22 -3 27 8 4 4 14 -10 28 -11 11 -21 30 -21
40 0 11 -9 27 -21 35 -12 8 -18 19 -15 25 4 5 2 12 -4 16 -13 8 -13 62 0 70
23 14 10 71 -25 108 -41 43 -45 45 -45 15 l-1 -23 -13 24 c-7 13 -11 33 -8 43
3 14 -3 22 -27 31 -21 8 -34 22 -42 44 -6 18 -17 33 -24 33 -9 0 -12 -6 -9
-15 7 -18 0 -19 -27 -5 -27 15 -25 50 4 49 12 -1 48 2 80 5 38 5 57 3 57 -4 0
-11 44 -8 95 8 24 7 8 10 -79 15 -104 7 -234 20 -342 36 l-52 8 2 -49z m47 -5
c0 -15 2 -15 9 2 5 11 9 14 9 8 1 -7 10 -13 20 -13 25 0 28 -10 21 -80 -3 -32
-2 -56 2 -54 4 3 7 -20 7 -50 -2 -62 -14 -72 -31 -26 -7 23 -15 29 -28 25 -14
-5 -19 4 -28 52 -10 54 -15 111 -13 141 2 19 31 14 32 -5z"/>
<path d="M5031 2395 c-24 -14 -53 -25 -65 -25 -17 0 -18 -2 -6 -10 12 -8 9
-10 -10 -6 -39 7 -186 16 -172 10 23 -10 12 -24 -18 -24 -30 0 -40 -5 -81 -42
-20 -19 -44 -24 -34 -8 3 6 -4 10 -17 10 l-22 0 22 -16 c16 -11 34 -14 55 -10
18 4 64 7 102 9 67 2 70 1 68 -20 -3 -27 14 -30 33 -5 12 15 15 15 23 2 14
-21 3 -123 -14 -132 -7 -5 -16 -26 -20 -48 -4 -22 -13 -47 -21 -54 -20 -21
-17 -29 7 -23 19 5 20 4 5 -12 -9 -10 -16 -23 -16 -29 0 -7 -5 -11 -12 -10 -7
2 -12 -1 -13 -7 -2 -22 -27 -55 -41 -55 -11 0 -13 -6 -9 -19 4 -14 0 -21 -12
-24 -14 -4 -13 -5 5 -6 13 0 32 8 44 19 12 11 30 20 39 20 15 0 16 -5 8 -32
-5 -17 -14 -35 -21 -40 -7 -4 -8 -8 -3 -8 6 0 11 -8 12 -17 1 -10 5 -31 9 -47
6 -25 4 -28 -10 -23 -12 5 -16 1 -16 -16 -1 -27 -24 -60 -35 -49 -5 4 -5 2 -2
-4 4 -7 -3 -14 -15 -17 -12 -4 -20 -9 -17 -11 3 -3 29 3 59 14 30 11 55 18 58
16 2 -2 -13 -16 -32 -31 -35 -26 -46 -50 -27 -57 5 -1 -2 -27 -16 -56 -22 -49
-23 -59 -14 -119 11 -69 26 -97 48 -89 17 7 17 3 -6 -23 -10 -12 -17 -30 -14
-41 4 -15 1 -18 -16 -13 -17 4 -21 1 -21 -20 0 -14 -6 -28 -12 -30 -10 -4 -10
-6 0 -6 10 -1 10 -5 -2 -17 -9 -8 -16 -23 -16 -31 0 -14 3 -14 20 2 11 10 20
13 20 7 0 -7 7 -12 16 -12 10 0 14 -6 10 -15 -3 -8 0 -15 7 -15 8 0 9 -3 1 -8
-17 -11 -36 -52 -25 -52 5 0 13 5 16 10 4 6 14 9 23 8 14 -3 19 12 29 82 6 47
12 111 12 143 1 38 5 58 14 59 6 0 17 2 22 3 45 8 182 16 420 25 154 6 309 12
345 15 58 4 67 2 79 -16 7 -12 8 -18 3 -15 -9 6 -22 -38 -22 -75 0 -21 31 -24
128 -12 l54 6 -49 21 c-66 28 -105 55 -80 55 13 1 17 10 17 42 0 35 3 40 17
35 10 -4 14 -4 10 0 -4 4 -2 13 4 20 17 21 -50 -2 -75 -25 -20 -19 -44 -21
-311 -31 -160 -5 -354 -10 -432 -10 l-143 0 0 28 c1 15 7 119 16 232 8 113 17
268 20 345 3 83 11 155 20 178 8 20 14 59 14 85 0 55 2 58 58 96 38 26 80 81
70 91 -2 2 -23 -7 -47 -20z"/>
<path d="M3460 2156 c-1 -95 -31 -870 -35 -876 -2 -4 4 -15 13 -24 17 -15 25
-15 100 0 46 10 81 19 78 21 -2 2 -32 -1 -65 -8 -34 -6 -64 -9 -67 -6 -5 5 11
690 20 843 4 70 4 72 -20 72 -18 0 -24 -6 -24 -22z"/>
<path d="M5060 2085 c0 -11 -19 -38 -41 -61 l-42 -43 30 -38 c48 -61 48 -62
14 -97 -33 -34 -76 -139 -67 -162 3 -8 14 -14 25 -14 13 0 21 -8 23 -22 2 -13
18 -31 38 -42 30 -18 52 -21 150 -21 98 0 120 3 150 20 40 24 57 76 39 122
l-10 28 -21 -27 c-21 -30 -45 -36 -54 -14 -3 8 2 43 10 78 29 117 34 158 23
194 -6 19 -16 34 -22 34 -15 0 -41 -29 -49 -56 -4 -12 -16 -24 -27 -27 -18 -5
-20 -11 -15 -46 5 -37 3 -41 -17 -41 -40 0 -50 16 -93 150 -27 87 -44 119 -44
85z"/>
<path d="M6499 2052 c-13 -11 -45 -31 -72 -46 -39 -23 -47 -33 -45 -54 4 -68
-44 -108 -115 -97 -23 3 -37 3 -32 -2 16 -13 17 -35 3 -44 -26 -17 -93 -10
-116 11 -12 12 -22 25 -22 30 0 6 -18 10 -40 10 -60 0 -62 -22 -5 -76 37 -36
49 -43 61 -33 11 9 16 7 23 -12 l10 -24 2 25 c1 14 1 27 1 30 0 3 15 4 34 2
34 -4 43 -15 24 -27 -6 -4 -18 -1 -26 6 -20 17 -30 3 -11 -16 10 -9 30 -15 50
-13 18 1 38 -2 45 -6 7 -4 12 -2 12 4 0 6 5 8 12 4 7 -5 9 -1 6 12 -3 14 1 20
16 21 12 2 59 7 106 12 47 5 85 10 86 10 0 1 1 41 1 89 1 85 12 132 33 132 6
0 8 10 6 23 -3 12 -5 28 -5 35 -1 17 -14 15 -42 -6z"/>
<path d="M5649 1966 c-23 -40 -40 -43 -117 -26 -58 14 -89 4 -100 -30 -9 -25
-8 -29 11 -34 12 -3 51 -6 85 -6 l64 0 -45 -50 c-31 -35 -46 -61 -50 -87 -6
-49 -1 -57 56 -93 65 -41 124 -54 213 -47 60 4 80 10 105 31 17 14 36 26 43
26 6 0 19 9 28 20 16 18 16 20 0 29 -16 10 -16 10 1 11 10 0 25 -7 34 -15 8
-9 18 -14 21 -11 10 10 -21 36 -51 44 -24 6 -33 16 -40 43 -5 18 -13 40 -19
47 -7 8 -7 16 1 26 10 12 8 17 -8 26 -14 7 -21 21 -21 40 0 21 -5 30 -16 30
-8 0 -22 7 -30 15 -14 13 -13 16 8 24 21 9 21 10 -9 10 -23 1 -33 -4 -33 -14
0 -8 -7 -15 -16 -15 -10 0 -14 6 -10 15 4 11 -2 15 -23 15 -16 0 -36 3 -45 6
-11 4 -22 -5 -37 -30z m82 -126 c10 -6 19 -17 19 -24 0 -8 7 -17 16 -20 12 -5
14 -14 9 -38 -17 -77 -85 -120 -99 -63 -3 13 -15 29 -26 35 -20 10 -19 12 6
60 22 42 33 54 52 59 2 1 12 -4 23 -9z"/>
<path d="M8284 1932 c-6 -4 -17 -18 -24 -32 -8 -15 -15 -20 -17 -13 -4 10 -8
9 -19 -1 -8 -8 -14 -19 -14 -25 0 -6 -6 -11 -14 -11 -19 0 -52 -47 -61 -88 -5
-27 -17 -38 -63 -62 -32 -16 -68 -36 -82 -44 -14 -8 -32 -17 -40 -21 -45 -18
-132 -80 -188 -134 -29 -28 -72 -60 -95 -70 -23 -11 -55 -34 -70 -50 -17 -18
-39 -31 -53 -31 -15 0 -24 -6 -24 -15 0 -8 -4 -15 -10 -15 -5 0 -10 -7 -10
-15 0 -8 -9 -20 -20 -27 -11 -7 -20 -17 -20 -23 0 -12 -74 -59 -108 -70 -14
-4 -21 -12 -18 -21 3 -9 -7 -17 -33 -24 -21 -5 -51 -20 -67 -33 -20 -15 -47
-24 -89 -27 -57 -5 -60 -7 -63 -33 -4 -33 -25 -45 -74 -43 -20 1 -34 -2 -32
-6 6 -9 0 -10 -68 -12 -26 -1 -42 2 -35 6 8 5 6 9 -5 13 -13 5 -15 10 -5 20 9
9 19 10 40 3 15 -6 31 -7 35 -4 18 19 -28 45 -164 91 -175 59 -189 66 -154 76
23 7 24 7 3 8 -35 2 -137 42 -150 60 -10 13 -14 14 -22 3 -6 -11 -25 -12 -83
-7 -59 6 -76 4 -86 -8 -11 -13 -6 -17 34 -31 26 -9 56 -16 66 -16 10 0 18 -4
18 -10 0 -5 7 -10 15 -10 8 0 48 -16 89 -36 88 -41 199 -77 241 -77 17 0 49 3
73 8 37 7 42 5 42 -11 0 -11 -7 -28 -15 -38 -15 -19 -15 -19 -52 1 -62 35
-103 38 -156 13 -26 -12 -47 -25 -47 -29 0 -4 -22 -15 -48 -24 -26 -10 -60
-29 -74 -42 -15 -14 -31 -25 -36 -25 -17 0 -23 32 -10 48 11 13 10 14 -9 4
-12 -7 -25 -12 -30 -12 -4 1 3 7 16 14 14 8 31 12 38 9 7 -3 23 7 35 22 17 22
27 26 59 23 43 -4 46 -1 24 28 -8 10 -15 25 -15 33 0 21 -32 40 -67 41 -34 0
-41 -8 -22 -27 6 -6 9 -21 7 -34 -2 -19 -9 -24 -33 -24 -16 0 -41 -6 -54 -14
-21 -12 -23 -11 -18 3 3 8 2 18 -2 20 -9 6 -78 -40 -99 -67 -8 -9 -38 -21 -68
-27 -50 -11 -57 -15 -71 -48 -8 -20 -18 -44 -22 -52 -4 -8 -6 -27 -6 -42 1
-15 -1 -25 -4 -23 -2 3 -15 -2 -28 -10 -21 -14 -26 -13 -60 5 -49 26 -73 26
-73 0 0 -11 7 -20 15 -20 8 0 15 -4 15 -10 0 -5 7 -10 15 -10 18 0 19 -23 3
-50 -11 -17 -10 -22 2 -30 12 -7 12 -12 1 -34 -8 -13 -11 -32 -8 -40 4 -9 2
-16 -3 -16 -6 0 -10 -9 -10 -20 0 -11 -11 -27 -25 -36 -20 -13 -23 -20 -14
-30 9 -11 3 -18 -25 -35 -20 -11 -36 -25 -36 -29 0 -17 75 -21 119 -5 24 8 64
14 90 14 25 -1 37 -3 26 -6 -35 -9 -41 -23 -9 -23 16 0 36 -5 44 -11 11 -7 3
-9 -30 -5 -39 5 -42 5 -20 -5 33 -15 297 -15 380 0 101 18 183 49 249 91 70
45 101 89 101 142 0 49 -27 115 -49 121 -12 3 -20 18 -24 43 -8 46 -4 51 28
36 22 -10 25 -9 25 7 0 19 18 31 49 31 23 0 62 -37 56 -53 -3 -7 4 -17 16 -22
27 -12 99 -137 100 -173 1 -17 3 -21 6 -9 5 20 23 23 23 4 0 -20 -145 -147
-168 -147 -6 0 -12 -4 -14 -9 -5 -14 -196 -107 -268 -130 -148 -49 -331 -78
-526 -85 -89 -3 -120 -8 -160 -26 -27 -13 -51 -24 -54 -24 -3 -1 -12 -6 -20
-11 -8 -5 -56 -8 -107 -7 -158 4 -344 66 -428 143 -113 103 -139 142 -125 190
15 52 12 89 -13 149 -15 37 -29 56 -42 58 -11 1 -47 7 -80 13 -71 11 -712 24
-749 15 -15 -4 -26 -14 -26 -24 0 -14 -4 -12 -20 8 -11 14 -20 30 -20 35 0 6
-22 34 -49 63 -32 36 -51 50 -56 42 -6 -9 -10 -9 -16 1 -5 8 -9 9 -9 3 0 -5
14 -20 30 -33 32 -23 32 -41 -1 -41 -20 0 -26 -24 -9 -35 16 -10 12 -21 -13
-32 -28 -13 -43 -6 -48 21 -4 21 -29 35 -29 16 0 -26 145 -150 175 -150 24 0
47 13 44 26 -1 5 0 18 1 29 1 15 4 13 11 -10 5 -16 7 -36 4 -42 -6 -18 -86
-16 -113 3 -20 14 -24 14 -38 0 -19 -19 -100 -22 -107 -3 -3 9 -9 7 -24 -5
-11 -10 -30 -18 -42 -18 -24 0 -84 43 -74 53 3 3 -4 15 -15 27 -16 18 -30 21
-78 20 -33 -1 -69 1 -81 5 -25 8 -28 0 -14 -37 7 -18 21 -27 61 -36 28 -7 58
-19 66 -27 9 -8 24 -15 34 -15 10 0 25 -11 34 -25 14 -22 24 -25 71 -25 44 0
55 3 60 19 4 14 18 21 53 25 81 10 205 4 242 -11 29 -13 75 -14 280 -8 135 4
290 9 345 10 55 2 129 6 164 10 55 7 66 5 77 -9 9 -13 10 -26 3 -45 -14 -40
-6 -185 11 -207 12 -13 12 -18 3 -21 -15 -5 -17 -29 -4 -37 17 -11 42 6 36 24
-6 20 19 45 35 35 6 -4 9 -13 6 -21 -3 -8 0 -11 10 -7 17 6 20 -37 3 -54 -21
-21 1 -52 56 -78 30 -14 57 -30 60 -35 3 -6 15 -10 27 -10 11 0 34 -10 51 -23
18 -12 39 -22 48 -23 39 -3 89 -16 89 -23 0 -12 56 -31 65 -23 6 6 45 10 100
10 124 -2 189 1 194 9 8 10 34 13 196 17 72 2 150 0 175 -5 32 -5 53 -4 73 6
20 10 27 10 27 2 0 -8 3 -7 9 1 6 10 10 8 14 -8 6 -24 -13 -36 -40 -25 -22 9
-278 9 -292 0 -6 -3 -11 -11 -11 -16 0 -15 102 -8 121 8 14 12 17 12 22 -2 6
-13 38 -15 237 -15 202 0 230 2 230 16 0 8 4 13 9 10 5 -4 16 13 24 36 11 33
19 43 36 42 23 -1 31 35 9 37 -7 1 -20 2 -28 3 -10 1 -15 11 -14 34 2 32 -9
42 -22 21 -4 -7 -26 -9 -57 -6 -39 3 -53 1 -68 -14 -16 -16 -19 -16 -19 -4 0
12 -12 9 -57 -14 -124 -64 -439 -78 -666 -29 l-49 10 27 14 c19 10 49 12 108
8 231 -16 347 -16 456 0 128 19 285 62 366 101 31 14 59 24 61 22 5 -5 -52
-42 -76 -49 -8 -3 30 -8 85 -11 63 -4 101 -3 103 3 2 6 11 10 20 10 15 0 15 2
2 10 -13 8 -13 10 2 10 21 0 64 42 73 70 3 11 13 26 21 34 8 8 18 38 22 68 l9
53 20 -45 c12 -25 50 -106 85 -180 35 -74 77 -163 93 -197 l29 -63 311 0 312
0 18 61 c10 37 14 75 10 95 -7 39 2 43 33 14 27 -25 37 -80 23 -121 -6 -18
-11 -36 -11 -40 0 -5 101 -9 225 -9 l225 0 0 179 0 179 -33 21 c-72 44 -113
95 -101 125 10 27 23 18 22 -16 -1 -25 7 -39 36 -64 20 -18 46 -34 56 -37 17
-4 20 0 20 33 l0 38 -39 -5 c-36 -5 -39 -3 -50 27 -15 44 -14 85 3 99 10 9 19
3 40 -29 14 -22 31 -40 36 -40 6 0 10 34 10 81 0 68 -2 80 -15 75 -8 -3 -15
-2 -15 3 0 5 7 14 15 21 12 10 15 40 15 152 0 78 -4 137 -9 134 -12 -8 -30 16
-40 51 -8 28 -7 29 20 25 28 -4 29 -3 29 43 0 42 -4 52 -40 86 -21 21 -52 57
-67 80 -15 23 -36 53 -45 67 -36 55 -58 154 -67 302 -4 80 -4 158 0 174 5 16
6 41 3 55 -4 20 -3 23 5 11 7 -10 11 -11 11 -2 0 6 7 12 15 12 8 0 15 5 15 12
0 6 7 20 17 30 16 18 8 24 -13 10z m-25 -624 c6 -16 7 -38 3 -50 -11 -30 -10
-37 11 -75 23 -43 21 -53 -6 -53 -15 0 -45 21 -81 55 -31 30 -61 55 -66 55
-16 0 -22 47 -10 72 6 12 35 44 63 70 l52 47 11 -47 c7 -26 17 -59 23 -74z"/>
<path d="M952 1513 c-7 -7 -12 -24 -11 -36 1 -12 -1 -30 -5 -39 -14 -41 -15
-48 -2 -48 8 0 17 6 19 13 4 8 6 7 6 -4 1 -8 -10 -26 -24 -39 -32 -30 -33 -61
-3 -57 15 1 24 -5 29 -23 4 -14 7 -20 8 -14 1 6 12 12 26 12 20 0 25 -6 25
-25 0 -14 4 -21 10 -18 6 3 10 -1 10 -10 0 -19 -21 -57 -37 -68 -7 -4 -13 -14
-13 -22 0 -7 6 -15 13 -18 6 -2 1 -2 -12 0 -27 5 -57 -27 -38 -39 9 -6 8 -8
-2 -8 -8 0 -2 -10 15 -25 39 -34 43 -32 73 35 10 22 11 21 6 -13 -4 -26 -3
-37 4 -32 7 4 11 -3 11 -17 0 -13 6 -30 13 -37 10 -11 9 -13 -5 -8 -10 4 -18
2 -18 -2 0 -5 5 -11 12 -13 7 -3 3 -14 -12 -31 -22 -26 -43 -36 -38 -19 2 4
-9 20 -23 36 -16 16 -25 36 -22 46 3 10 0 21 -6 24 -7 5 -11 -2 -11 -16 0 -49
-96 -148 -115 -118 -9 15 -40 12 -103 -11 -31 -12 -66 -21 -77 -21 -11 1 -22
-3 -25 -9 -7 -10 -40 -2 -40 10 0 4 48 22 107 41 59 18 115 42 126 53 23 23
14 36 -11 14 -16 -15 -21 -15 -47 -1 -29 15 -31 14 -51 -12 -15 -18 -33 -28
-53 -29 -71 -4 -79 -6 -84 -19 -4 -10 1 -12 16 -9 16 4 19 3 12 -6 -6 -6 -31
-13 -55 -16 -25 -2 -63 -13 -85 -25 -21 -11 -47 -20 -57 -20 -10 0 -18 -7 -18
-15 0 -30 -66 -48 -72 -19 -3 14 -6 14 -28 -3 -37 -28 -119 -59 -210 -80 l-80
-18 0 -47 c0 -44 2 -48 23 -48 13 0 37 7 54 15 29 15 47 19 183 48 36 8 83 24
105 35 22 12 45 22 52 22 18 0 16 -26 -4 -50 -21 -24 -43 -26 -43 -5 0 19 -2
19 -42 -4 -19 -11 -53 -19 -79 -19 -52 0 -93 -17 -83 -34 5 -7 -1 -9 -19 -4
-14 3 -29 2 -32 -4 -3 -5 -19 -10 -34 -10 -46 0 -81 -22 -81 -51 l0 -27 103
24 c119 28 369 102 379 112 3 4 -2 24 -12 45 l-19 38 27 10 c15 6 34 17 42 24
8 8 38 19 65 26 28 6 66 18 86 26 28 12 41 12 58 4 29 -16 26 -21 -8 -11 -24
7 -32 4 -51 -20 -21 -25 -59 -32 -44 -8 7 12 -50 1 -79 -14 -14 -7 -16 -12 -7
-23 10 -12 15 -12 36 2 14 9 27 13 31 9 7 -7 -26 -46 -40 -46 -18 0 -77 -32
-77 -42 0 -17 55 -1 199 59 145 60 189 83 158 83 -9 0 -17 4 -17 10 0 5 13 7
29 4 32 -7 126 42 192 100 52 45 148 111 159 109 5 -2 7 4 3 13 -4 11 0 15 13
12 13 -2 19 3 17 15 0 12 4 16 12 13 9 -3 12 0 8 10 -3 9 1 14 13 14 15 0 16
2 5 9 -11 7 -11 13 0 32 21 38 23 155 5 203 -17 44 -90 125 -102 113 -4 -4 1
-16 11 -27 26 -29 8 -25 -55 13 -30 18 -82 44 -115 59 -51 22 -62 23 -73 11z"/>
<path d="M6393 1461 c-126 -18 -143 -27 -124 -67 6 -15 10 -28 8 -30 -2 -2
-25 -7 -50 -10 -33 -5 -47 -3 -47 5 0 19 -33 49 -73 66 -72 30 -93 16 -75 -51
5 -22 12 -56 15 -77 5 -40 18 -44 39 -11 10 14 10 23 3 34 -9 12 -10 11 -5 -4
6 -16 4 -17 -10 -5 -14 12 -14 14 0 25 9 6 16 18 16 26 0 24 12 29 25 10 19
-27 10 -80 -17 -102 l-23 -19 65 -1 c36 -1 77 -3 93 -5 24 -3 26 -2 12 12 -23
22 -15 57 13 61 13 2 30 -2 38 -8 9 -8 43 -11 96 -9 46 2 115 3 153 4 39 1 75
2 81 3 17 3 27 52 14 67 -7 8 -9 23 -5 35 4 13 0 31 -9 45 -14 22 -24 25 -69
24 -28 -1 -102 -9 -164 -18z"/>
<path d="M5689 1210 c-192 -23 -401 -132 -479 -250 -8 -12 -22 -32 -31 -44
-24 -31 -41 -114 -34 -158 4 -22 9 -38 10 -36 4 3 12 40 22 90 5 28 29 55 39
45 3 -3 -1 -29 -10 -58 -11 -40 -12 -55 -4 -61 17 -10 23 -4 67 61 55 81 151
166 234 208 82 41 97 46 227 75 111 24 113 24 248 26 60 1 102 6 102 12 0 6
-19 10 -42 11 -37 1 -39 2 -18 9 14 4 18 8 9 9 -9 1 -31 -4 -49 -10 -28 -10
-34 -9 -42 5 -5 9 -20 16 -33 16 -14 0 -25 6 -25 13 0 8 -4 7 -10 -3 -5 -8
-10 -10 -10 -4 0 7 -16 15 -36 19 -21 3 -46 12 -58 19 -14 8 -39 10 -77 6z"/>
<path d="M75 1154 c-75 -11 -75 -11 -75 -58 0 -43 0 -43 41 -50 47 -7 46 -15
-3 -25 -23 -5 -34 -13 -36 -27 -3 -19 4 -22 59 -28 34 -3 67 -2 73 3 11 8 18
9 74 12 15 1 32 6 39 11 6 5 20 8 30 6 10 -1 23 1 30 5 6 4 14 3 18 -3 9 -15
34 -12 51 5 9 8 23 15 32 14 14 0 13 -2 -3 -9 -16 -7 -13 -9 16 -9 20 -1 38 2
42 5 3 3 32 7 64 9 32 2 78 8 103 13 44 11 100 -1 100 -20 0 -4 6 -5 14 -2 8
3 12 12 9 20 -3 8 1 14 8 14 7 0 21 8 31 17 13 11 22 14 26 7 4 -6 25 -11 47
-12 l40 -1 -29 16 c-17 9 -41 17 -55 18 -14 1 -51 10 -81 19 -114 36 -204 47
-420 51 -118 2 -228 1 -245 -1z"/>
<path d="M4820 990 c-7 -16 -22 -33 -34 -37 -11 -4 -130 -6 -262 -4 -133 2
-251 0 -263 -4 -18 -5 -21 -14 -21 -61 0 -33 -6 -64 -16 -79 l-16 -24 154 4
c86 2 192 11 243 21 55 10 169 19 295 23 201 6 205 6 208 28 5 33 -32 50 -138
62 -132 16 -145 20 -131 34 13 13 15 67 2 67 -5 0 -14 -13 -21 -30z"/>
<path d="M1150 930 c-47 -38 -96 -75 -110 -82 -14 -7 -40 -23 -58 -35 -109
-73 -392 -195 -584 -254 -152 -46 -350 -98 -375 -99 l-23 0 0 -230 0 -230 556
0 555 0 32 31 c21 20 28 33 20 36 -18 7 -16 21 7 50 11 15 20 20 20 12 0 -8
10 -3 25 13 14 16 22 33 19 42 -4 11 0 16 14 16 12 0 24 5 27 10 3 6 -1 10 -9
10 -20 0 -21 19 -2 26 17 6 34 47 38 89 1 17 11 45 20 63 23 41 25 179 4 225
-8 18 -16 58 -18 89 -5 62 -22 85 -83 109 -16 7 -32 14 -33 15 -2 1 3 17 11
36 23 52 47 128 39 128 -4 -1 -45 -32 -92 -70z"/>
</g>
</svg>
