<svg xmlns="http://www.w3.org/2000/svg" width="14.461" height="12.482" viewBox="0 0 14.461 12.482">
  <path id="Icon_awesome-sort-amount-down-alt" data-name="Icon awesome-sort-amount-down-alt" d="M6.779,4.033H8.586a.449.449,0,0,0,.452-.446V2.7a.449.449,0,0,0-.452-.446H6.779a.449.449,0,0,0-.452.446v.892A.449.449,0,0,0,6.779,4.033Zm0,3.566h3.615a.449.449,0,0,0,.452-.446V6.262a.449.449,0,0,0-.452-.446H6.779a.449.449,0,0,0-.452.446v.892A.449.449,0,0,0,6.779,7.6Zm7.231,5.35H6.779a.449.449,0,0,0-.452.446v.892a.449.449,0,0,0,.452.446h7.231a.449.449,0,0,0,.452-.446V13.4A.449.449,0,0,0,14.009,12.949ZM6.779,11.166H12.2a.449.449,0,0,0,.452-.446V9.829a.449.449,0,0,0-.452-.446H6.779a.449.449,0,0,0-.452.446v.892A.449.449,0,0,0,6.779,11.166Zm-1.808,0H3.615V2.7a.449.449,0,0,0-.452-.446h-.9a.449.449,0,0,0-.452.446v8.47H.452a.445.445,0,0,0-.319.761L2.393,14.6a.456.456,0,0,0,.639,0l2.26-2.675A.446.446,0,0,0,4.971,11.166Z" transform="translate(0 -2.25)" fill="#fff"/>
</svg>
