<svg xmlns="http://www.w3.org/2000/svg" width="25.417" height="25.517" viewBox="0 0 25.417 25.517">
  <g id="standard" transform="translate(-1)">
    <path id="Path_2574" data-name="Path 2574" d="M97.7,101.53a.747.747,0,0,1-.334-.079l-7.64-3.82-7.64,3.82A.748.748,0,0,1,81,100.782V80.748A.748.748,0,0,1,81.748,80H97.7a.748.748,0,0,1,.748.748v20.035a.748.748,0,0,1-.748.748Z" transform="translate(-76.013 -76.013)" fill="#6ba7ff"/>
    <path id="Path_2575" data-name="Path 2575" d="M264.721,100.782V80.748a.748.748,0,0,0-.748-.748H256V97.631l7.64,3.82a.747.747,0,0,0,1.082-.669Z" transform="translate(-242.292 -76.013)" fill="#2681ff"/>
    <path id="Path_2576" data-name="Path 2576" d="M3.243,51.5h-1.5a.748.748,0,0,1,0-1.5h1.5a.748.748,0,1,1,0,1.5Z" transform="translate(0 -47.508)" fill="#bedceb"/>
    <path id="Path_2577" data-name="Path 2577" d="M46,20.748v2.99a.748.748,0,0,0,.748.748H66.184a.748.748,0,0,0,.748-.748v-2.99A.748.748,0,0,0,66.184,20H46.748A.748.748,0,0,0,46,20.748Z" transform="translate(-42.757 -19.003)" fill="#c6865c"/>
    <path id="Path_2578" data-name="Path 2578" d="M146.731,152.463a5.731,5.731,0,1,1,5.731-5.731A5.738,5.738,0,0,1,146.731,152.463Z" transform="translate(-133.023 -133.973)" fill="#dcf0ff"/>
    <path id="Path_2579" data-name="Path 2579" d="M31.748,6.479A.748.748,0,0,1,31,5.731V.748a.748.748,0,0,1,1.5,0V5.731A.748.748,0,0,1,31.748,6.479Z" transform="translate(-28.505)" fill="#dcf0ff"/>
    <path id="Path_2580" data-name="Path 2580" d="M265.718,20H256v4.485h9.718a.748.748,0,0,0,.748-.748v-2.99A.748.748,0,0,0,265.718,20Z" transform="translate(-242.292 -19.003)" fill="#b46e3d"/>
    <path id="Path_2581" data-name="Path 2581" d="M261.731,146.731A5.738,5.738,0,0,0,256,141v11.463A5.738,5.738,0,0,0,261.731,146.731Z" transform="translate(-242.292 -133.973)" fill="#bedceb"/>
    <path id="Path_2582" data-name="Path 2582" d="M453.243,51.5h-1.5a.748.748,0,0,1,0-1.5h1.5a.748.748,0,0,1,0,1.5Z" transform="translate(-427.573 -47.508)" fill="#a5bfce"/>
    <path id="Path_2583" data-name="Path 2583" d="M451.748,6.479A.748.748,0,0,1,451,5.731V.748a.748.748,0,0,1,1.5,0V5.731A.748.748,0,0,1,451.748,6.479Z" transform="translate(-427.573)" fill="#bedceb"/>
    <path id="Path_2584" data-name="Path 2584" d="M195.778,197.235a.747.747,0,0,1-.348-.086l-1.192-.627-1.192.627a.748.748,0,0,1-1.085-.788l.228-1.328-.965-.94a.748.748,0,0,1,.414-1.275l1.333-.194.6-1.208a.748.748,0,0,1,1.341,0l.6,1.208,1.333.194a.748.748,0,0,1,.414,1.275l-.964.94.228,1.328a.748.748,0,0,1-.737.874Z" transform="translate(-180.529 -181.481)" fill="#ffeb3c"/>
    <path id="Path_2585" data-name="Path 2585" d="M257.192,197.149a.748.748,0,0,0,1.085-.788l-.228-1.328.965-.94a.748.748,0,0,0-.414-1.275l-1.333-.194-.6-1.208A.748.748,0,0,0,256,191v5.522Z" transform="translate(-242.291 -181.481)" fill="#ffd228"/>
  </g>
</svg>
