<?xml version="1.0" standalone="no"?>
<!DOCTYPE svg PUBLIC "-//W3C//DTD SVG 20010904//EN"
 "http://www.w3.org/TR/2001/REC-SVG-20010904/DTD/svg10.dtd">
<svg version="1.0" xmlns="http://www.w3.org/2000/svg"
 width="157.000000pt" height="201.000000pt" viewBox="0 0 157.000000 201.000000"
 preserveAspectRatio="xMidYMid meet">
<metadata>
Created by potrace 1.16, written by Peter Selinger 2001-2019
</metadata>
<g transform="translate(0.000000,201.000000) scale(0.100000,-0.100000)"
fill="#000000" stroke="none">
<path d="M664 1937 c-131 -63 -190 -228 -125 -354 107 -210 414 -191 487 30
31 94 7 199 -61 270 -48 49 -99 71 -180 75 -58 2 -79 -1 -121 -21z"/>
<path d="M150 1719 c-60 -24 -91 -84 -75 -146 4 -17 78 -99 191 -213 l184
-186 0 -497 c0 -541 1 -547 56 -583 38 -26 149 -25 188 1 50 33 56 63 56 300
l0 216 28 -3 27 -3 5 -233 5 -234 32 -28 c58 -52 172 -49 224 6 l24 26 3 516
2 517 186 186 c199 199 213 220 190 289 -15 47 -58 75 -111 75 -44 0 -46 -2
-223 -177 l-178 -178 -185 0 -184 0 -165 166 c-187 188 -217 208 -280 183z"/>
</g>
</svg>
