<svg width="31" height="30" viewBox="0 0 31 30" fill="none" xmlns="http://www.w3.org/2000/svg">
<path d="M15.5 18.8182C17.684 18.8182 19.4545 17.1087 19.4545 15C19.4545 12.8913 17.684 11.1818 15.5 11.1818C13.316 11.1818 11.5455 12.8913 11.5455 15C11.5455 17.1087 13.316 18.8182 15.5 18.8182Z" stroke="white" stroke-width="2" stroke-linecap="round" stroke-linejoin="round"/>
<path d="M25.2545 18.8182C25.0791 19.2021 25.0267 19.6279 25.1043 20.0407C25.1818 20.4536 25.3857 20.8346 25.6895 21.1345L25.7686 21.2109C26.0138 21.4473 26.2082 21.728 26.3409 22.0371C26.4736 22.3461 26.5418 22.6773 26.5418 23.0118C26.5418 23.3463 26.4736 23.6776 26.3409 23.9866C26.2082 24.2956 26.0138 24.5763 25.7686 24.8127C25.5238 25.0494 25.233 25.2371 24.913 25.3652C24.5929 25.4933 24.2499 25.5593 23.9034 25.5593C23.557 25.5593 23.2139 25.4933 22.8938 25.3652C22.5738 25.2371 22.283 25.0494 22.0382 24.8127L21.9591 24.7364C21.6484 24.443 21.2538 24.2461 20.8262 24.1713C20.3986 24.0964 19.9576 24.1469 19.56 24.3164C19.1701 24.4777 18.8376 24.7456 18.6034 25.087C18.3692 25.4285 18.2435 25.8286 18.2418 26.2382V26.4545C18.2418 27.1296 17.9641 27.7771 17.4696 28.2545C16.9752 28.7318 16.3047 29 15.6055 29C14.9062 29 14.2357 28.7318 13.7413 28.2545C13.2469 27.7771 12.9691 27.1296 12.9691 26.4545V26.34C12.9589 25.9187 12.8177 25.5102 12.5638 25.1674C12.3099 24.8247 11.9551 24.5636 11.5455 24.4182C11.1479 24.2488 10.7068 24.1982 10.2792 24.2731C9.85161 24.3479 9.45703 24.5448 9.14636 24.8382L9.06727 24.9145C8.82243 25.1512 8.53166 25.339 8.21162 25.4671C7.89157 25.5952 7.5485 25.6611 7.20205 25.6611C6.85559 25.6611 6.51253 25.5952 6.19248 25.4671C5.87243 25.339 5.58167 25.1512 5.33682 24.9145C5.0917 24.6781 4.89724 24.3974 4.76457 24.0884C4.6319 23.7794 4.56361 23.4481 4.56361 23.1136C4.56361 22.7791 4.6319 22.4479 4.76457 22.1389C4.89724 21.8299 5.0917 21.5491 5.33682 21.3127L5.41591 21.2364C5.7198 20.9364 5.92365 20.5554 6.00119 20.1426C6.07872 19.7297 6.02638 19.3039 5.85091 18.92C5.68381 18.5436 5.40636 18.2225 5.0527 17.9964C4.69905 17.7703 4.28463 17.6489 3.86045 17.6473H3.63636C2.93716 17.6473 2.26659 17.3791 1.77217 16.9017C1.27776 16.4244 1 15.7769 1 15.1018C1 14.4267 1.27776 13.7793 1.77217 13.3019C2.26659 12.8245 2.93716 12.5564 3.63636 12.5564H3.755C4.19131 12.5465 4.61446 12.4102 4.96944 12.165C5.32442 11.9199 5.59481 11.5773 5.74545 11.1818C5.92092 10.7979 5.97327 10.3721 5.89573 9.95925C5.8182 9.54638 5.61434 9.16541 5.31045 8.86545L5.23136 8.78909C4.98624 8.55269 4.79179 8.27195 4.65912 7.96294C4.52644 7.65393 4.45815 7.32269 4.45815 6.98818C4.45815 6.65367 4.52644 6.32244 4.65912 6.01342C4.79179 5.70441 4.98624 5.42368 5.23136 5.18727C5.47621 4.95061 5.76697 4.76286 6.08702 4.63476C6.40707 4.50666 6.75013 4.44072 7.09659 4.44072C7.44305 4.44072 7.78611 4.50666 8.10616 4.63476C8.42621 4.76286 8.71697 4.95061 8.96182 5.18727L9.04091 5.26364C9.35158 5.55705 9.74616 5.75387 10.1738 5.82873C10.6014 5.90359 11.0424 5.85306 11.44 5.68364H11.5455C11.9353 5.5223 12.2678 5.25442 12.5021 4.91296C12.7363 4.5715 12.8619 4.17136 12.8636 3.76182V3.54545C12.8636 2.87036 13.1414 2.22291 13.6358 1.74555C14.1302 1.26818 14.8008 1 15.5 1C16.1992 1 16.8698 1.26818 17.3642 1.74555C17.8586 2.22291 18.1364 2.87036 18.1364 3.54545V3.66C18.1381 4.06955 18.2637 4.46968 18.498 4.81114C18.7322 5.1526 19.0647 5.42048 19.4545 5.58182C19.8521 5.75124 20.2932 5.80178 20.7208 5.72691C21.1484 5.65205 21.543 5.45523 21.8536 5.16182L21.9327 5.08545C22.1776 4.84879 22.4683 4.66104 22.7884 4.53294C23.1084 4.40484 23.4515 4.33891 23.798 4.33891C24.1444 4.33891 24.4875 4.40484 24.8075 4.53294C25.1276 4.66104 25.4183 4.84879 25.6632 5.08545C25.9083 5.32186 26.1028 5.60259 26.2354 5.91161C26.3681 6.22062 26.4364 6.55185 26.4364 6.88636C26.4364 7.22088 26.3681 7.55211 26.2354 7.86112C26.1028 8.17013 25.9083 8.45087 25.6632 8.68727L25.5841 8.76364C25.2802 9.06359 25.0763 9.44457 24.9988 9.85743C24.9213 10.2703 24.9736 10.6961 25.1491 11.08V11.1818C25.3162 11.5583 25.5936 11.8793 25.9473 12.1054C26.301 12.3316 26.7154 12.4529 27.1395 12.4545H27.3636C28.0628 12.4545 28.7334 12.7227 29.2278 13.2001C29.7222 13.6775 30 14.3249 30 15C30 15.6751 29.7222 16.3225 29.2278 16.7999C28.7334 17.2773 28.0628 17.5455 27.3636 17.5455H27.245C26.8208 17.5471 26.4064 17.6684 26.0528 17.8946C25.6991 18.1207 25.4216 18.4417 25.2545 18.8182Z" stroke="white" stroke-width="2" stroke-linecap="round" stroke-linejoin="round"/>
</svg>
