<svg width="23" height="23" viewBox="0 0 23 23" fill="none" xmlns="http://www.w3.org/2000/svg">
<path d="M17.798 7.14326L18.3078 6.63348C19.1524 5.78884 20.5219 5.78884 21.3665 6.63348C22.2112 7.47811 22.2112 8.84754 21.3665 9.69214L20.8567 10.202M17.798 7.14326C17.798 7.14326 17.8618 8.22655 18.8176 9.18239C19.7735 10.1382 20.8567 10.202 20.8567 10.202M17.798 7.14326L13.1113 11.8299C12.7939 12.1473 12.6352 12.3061 12.4987 12.4811C12.3377 12.6875 12.1997 12.911 12.087 13.1472C11.9916 13.3477 11.9205 13.5605 11.7786 13.9864L11.3241 15.35L11.177 15.7911M20.8567 10.202L16.1701 14.8886C15.8526 15.2061 15.6939 15.3648 15.5189 15.5013C15.3124 15.6623 15.089 15.8003 14.8528 15.913C14.6523 16.0084 14.4395 16.0795 14.0136 16.2214L12.65 16.6759L12.2089 16.823M11.177 15.7911L11.0299 16.2323C10.9601 16.4418 11.0146 16.673 11.1708 16.8292C11.327 16.9854 11.5582 17.0399 11.7677 16.9701L12.2089 16.823M11.177 15.7911L12.2089 16.823" stroke="currentColor"/>
<path d="M7 13H9" stroke="currentColor" stroke-linecap="round"/>
<path d="M7 8H14" stroke="currentColor" stroke-linecap="round"/>
<path d="M7 17H8" stroke="currentColor" stroke-linecap="round"/>
<path d="M1 13.6V9.4C1 5.4402 1 3.46031 2.30174 2.23015C3.6035 1 5.69862 1 9.88889 1H12.1111C16.3013 1 18.3966 1 19.6982 2.23015M21 13.6C21 17.5598 21 19.5397 19.6982 20.7698M19.6982 20.7698C18.3966 22 16.3013 22 12.1111 22H9.88889C5.69862 22 3.6035 22 2.30174 20.7698M19.6982 20.7698C20.7461 19.7796 20.9504 18.3036 20.9903 15.7" stroke="currentColor" stroke-linecap="round"/>
</svg>
