<svg xmlns="http://www.w3.org/2000/svg" width="60" height="61" viewBox="0 0 60 61">
  <g id="Path_3150" data-name="Path 3150" fill="#fff">
    <path d="M 30 59.5 C 26.15185928344727 59.5 22.41963005065918 58.74666976928711 18.90698051452637 57.26094055175781 C 15.51338958740234 55.82558059692383 12.46533012390137 53.77042007446289 9.84745979309082 51.15253829956055 C 7.229579925537109 48.53467178344727 5.17441987991333 45.48661041259766 3.739059925079346 42.09302139282227 C 2.253329992294312 38.58037185668945 1.5 34.84814071655273 1.5 31 L 1.5 30 C 1.5 26.15185928344727 2.253329992294312 22.41963005065918 3.739059925079346 18.90698051452637 C 5.17441987991333 15.51338958740234 7.229579925537109 12.46533012390137 9.84745979309082 9.84745979309082 C 12.46533012390137 7.229579925537109 15.51338958740234 5.17441987991333 18.90698051452637 3.739059925079346 C 22.41963005065918 2.253329992294312 26.15185928344727 1.5 30 1.5 C 33.84814071655273 1.5 37.58037185668945 2.253329992294312 41.09302139282227 3.739059925079346 C 44.48661041259766 5.17441987991333 47.53467178344727 7.229579925537109 50.15253829956055 9.84745979309082 C 52.77042007446289 12.46533012390137 54.82558059692383 15.51338958740234 56.26094055175781 18.90698051452637 C 57.74666976928711 22.41963005065918 58.5 26.15185928344727 58.5 30 L 58.5 31 C 58.5 34.84814071655273 57.74666976928711 38.58037185668945 56.26094055175781 42.09302139282227 C 54.82558059692383 45.48661041259766 52.77042007446289 48.53467178344727 50.15253829956055 51.15253829956055 C 47.53467178344727 53.77042007446289 44.48661041259766 55.82558059692383 41.09302139282227 57.26094055175781 C 37.58037185668945 58.74666976928711 33.84814071655273 59.5 30 59.5 Z" stroke="none"/>
    <path d="M 30 3 C 26.35369873046875 3 22.81806564331055 3.713455200195312 19.49129867553711 5.120567321777344 C 16.27652359008789 6.480300903320312 13.38872146606445 8.427509307861328 10.90811157226562 10.90811157226562 C 8.427509307861328 13.38872146606445 6.480300903320312 16.27652359008789 5.120567321777344 19.49129867553711 C 3.713455200195312 22.81806564331055 3 26.35369873046875 3 30 L 3 31 C 3 34.64630126953125 3.713455200195312 38.18193054199219 5.120567321777344 41.50869750976562 C 6.480300903320312 44.72348022460938 8.427509307861328 47.61127853393555 10.90811157226562 50.09188842773438 C 13.38872146606445 52.57248687744141 16.27652359008789 54.51969909667969 19.49129867553711 55.87943267822266 C 22.81806564331055 57.28654479980469 26.35369873046875 58 30 58 C 33.64630126953125 58 37.18193054199219 57.28654479980469 40.50869750976562 55.87943267822266 C 43.72348022460938 54.51969909667969 46.61127853393555 52.57248687744141 49.09188842773438 50.09188842773438 C 51.57248687744141 47.61127853393555 53.51969909667969 44.72348022460938 54.87943267822266 41.50869750976562 C 56.28654479980469 38.18193054199219 57 34.64630126953125 57 31 L 57 30 C 57 26.35369873046875 56.28654479980469 22.81806564331055 54.87943267822266 19.49129867553711 C 53.51969909667969 16.27652359008789 51.57248687744141 13.38872146606445 49.09188842773438 10.90811157226562 C 46.61127853393555 8.427509307861328 43.72348022460938 6.480300903320312 40.50869750976562 5.120567321777344 C 37.18193054199219 3.713455200195312 33.64630126953125 3 30 3 M 30 0 C 46.56854248046875 0 60 13.43145370483398 60 30 L 60 31 C 60 47.56854248046875 46.56854248046875 61 30 61 C 13.43145370483398 61 0 47.56854248046875 0 31 L 0 30 C 0 13.43145370483398 13.43145370483398 0 30 0 Z" stroke="none" fill="#1f73b3"/>
  </g>
</svg>
