<svg width="23" height="28" viewBox="0 0 23 28" fill="none" xmlns="http://www.w3.org/2000/svg">
<path d="M17.798 9.14326L18.3078 8.63348C19.1524 7.78884 20.5219 7.78884 21.3665 8.63348C22.2112 9.47811 22.2112 10.8475 21.3665 11.6921L20.8567 12.202M17.798 9.14326C17.798 9.14326 17.8618 10.2265 18.8176 11.1824C19.7735 12.1382 20.8567 12.202 20.8567 12.202M17.798 9.14326L13.1113 13.8299C12.7939 14.1473 12.6352 14.3061 12.4987 14.4811C12.3377 14.6875 12.1997 14.911 12.087 15.1472C11.9916 15.3477 11.9205 15.5605 11.7786 15.9864L11.3241 17.35L11.177 17.7911M20.8567 12.202L16.1701 16.8886C15.8526 17.2061 15.6939 17.3648 15.5189 17.5013C15.3124 17.6623 15.089 17.8003 14.8528 17.913C14.6523 18.0084 14.4395 18.0795 14.0136 18.2214L12.65 18.6759L12.2089 18.823M11.177 17.7911L11.0299 18.2323C10.9601 18.4418 11.0146 18.673 11.1708 18.8292C11.327 18.9854 11.5582 19.0399 11.7677 18.9701L12.2089 18.823M11.177 17.7911L12.2089 18.823" stroke="white"/>
<path d="M7 15H9" stroke="white" stroke-linecap="round"/>
<path d="M7 10H14" stroke="white" stroke-linecap="round"/>
<path d="M7 19H8" stroke="white" stroke-linecap="round"/>
<path d="M1 15.6V11.4C1 7.4402 1 5.46031 2.30174 4.23015C3.6035 3 5.69862 3 9.88889 3H12.1111C16.3013 3 18.3966 3 19.6982 4.23015M21 15.6C21 19.5598 21 21.5397 19.6982 22.7698M19.6982 22.7698C18.3966 24 16.3013 24 12.1111 24H9.88889C5.69862 24 3.6035 24 2.30174 22.7698M19.6982 22.7698C20.7461 21.7796 20.9504 20.3036 20.9903 17.7" stroke="white" stroke-linecap="round"/>
</svg>
