<svg xmlns="http://www.w3.org/2000/svg" width="36" height="36" viewBox="0 0 36 36"><defs><style>.a{fill:#2b9ef5;}.b{fill:#f4f4f4;}</style></defs><g transform="translate(-235 -598)"><circle class="a" cx="18" cy="18" r="18" transform="translate(235 598)"/><path class="b" d="M19.1,7.487c.014.18.014.36.014.541A12.028,12.028,0,0,1,6.7,19.856,12.773,12.773,0,0,1,0,17.99a9.465,9.465,0,0,0,1.053.051,9.014,9.014,0,0,0,5.416-1.776A4.349,4.349,0,0,1,2.39,13.382a5.766,5.766,0,0,0,.824.064A4.828,4.828,0,0,0,4.362,13.3a4.214,4.214,0,0,1-3.5-4.08V9.173A4.558,4.558,0,0,0,2.836,9.7,4.107,4.107,0,0,1,.891,6.238a3.979,3.979,0,0,1,.594-2.1,12.612,12.612,0,0,0,8.995,4.35,4.482,4.482,0,0,1-.108-.952,4.262,4.262,0,0,1,4.362-4.157,4.455,4.455,0,0,1,3.187,1.313,8.851,8.851,0,0,0,2.769-1,4.189,4.189,0,0,1-1.918,2.291,9.087,9.087,0,0,0,2.512-.644A9.15,9.15,0,0,1,19.1,7.487Z" transform="translate(242.518 604.517)"/></g></svg>