<svg xmlns="http://www.w3.org/2000/svg" width="46.452" height="37.855" viewBox="0 0 46.452 37.855">
  <g id="Group_4255" data-name="Group 4255" transform="translate(0 0)">
    <path id="Path_3007" data-name="Path 3007" d="M1793.542-43.006c-.774.894-1.507,1.841-2.321,2.681-.654.68-1.427,1.241-2.108,1.868a.921.921,0,0,0-.293.6c-.013,9.845-3.9,17.743-11.9,23.506a24.6,24.6,0,0,1-11.379,4.3,28.045,28.045,0,0,1-11.526-.827,26.115,26.115,0,0,1-6.737-3.015c-.053-.027-.08-.08-.187-.16a19.507,19.507,0,0,0,13.954-3.935,9.835,9.835,0,0,1-8.885-6.67,10.6,10.6,0,0,0,4.2-.173,9.644,9.644,0,0,1-7.5-9.472,9.734,9.734,0,0,0,4.242,1.134,9.625,9.625,0,0,1-4.122-6.777,9.244,9.244,0,0,1,1.228-5.937,27.259,27.259,0,0,0,19.7,9.965,11.418,11.418,0,0,1-.107-3.682,9.62,9.62,0,0,1,6.83-7.7,9.485,9.485,0,0,1,9.325,2.4.779.779,0,0,0,.587.16,18.118,18.118,0,0,0,5.256-1.961c.12-.067.24-.12.454-.227a9.928,9.928,0,0,1-3.935,5.163,17.761,17.761,0,0,0,5.109-1.361C1793.476-43.086,1793.5-43.046,1793.542-43.006Z" transform="translate(-1747.09 47.655)" fill="#fff"/>
  </g>
</svg>
