<svg xmlns="http://www.w3.org/2000/svg" width="42.105" height="30" viewBox="0 0 42.105 30"><defs><style>.a{fill:none;}.b{fill:#00cdac;fill-rule:evenodd;}</style></defs><g transform="translate(0 0)"><rect class="a" width="42" height="30" transform="translate(0.105 0)"/><path class="b" d="M46.614,24.065c10.277,0,15.868-8.463,15.868-15.868V7.441A12.284,12.284,0,0,0,65.2,4.569a12.545,12.545,0,0,1-3.174.907,5.88,5.88,0,0,0,2.418-3.023,13.862,13.862,0,0,1-3.476,1.36A5.4,5.4,0,0,0,56.891,2,5.678,5.678,0,0,0,51.3,7.592,2.946,2.946,0,0,0,51.45,8.8,15.625,15.625,0,0,1,39.965,2.907a5.788,5.788,0,0,0-.756,2.871,6,6,0,0,0,2.418,4.685,5.1,5.1,0,0,1-2.569-.756h0a5.523,5.523,0,0,0,4.534,5.441,4.659,4.659,0,0,1-1.511.151,2.572,2.572,0,0,1-1.058-.151,5.725,5.725,0,0,0,5.289,3.929A11.41,11.41,0,0,1,39.36,21.5,4.184,4.184,0,0,1,38,21.344a14.265,14.265,0,0,0,8.614,2.72" transform="translate(-38 0.61)"/></g></svg>