<svg xmlns="http://www.w3.org/2000/svg" width="27.139" height="27.139" viewBox="0 0 27.139 27.139"><defs><style>.a{fill:#fff;}</style></defs><path class="a" d="M.563,14.132A13.57,13.57,0,1,1,14.132,27.7,13.567,13.567,0,0,1,.563,14.132ZM8.42,15.713l3.961-4.131v9.991a1.31,1.31,0,0,0,1.313,1.313h.875a1.31,1.31,0,0,0,1.313-1.313V11.582l3.961,4.131a1.315,1.315,0,0,0,1.877.022l.6-.6a1.308,1.308,0,0,0,0-1.855L15.062,6.018a1.308,1.308,0,0,0-1.855,0L5.941,13.279a1.308,1.308,0,0,0,0,1.855l.6.6A1.321,1.321,0,0,0,8.42,15.713Z" transform="translate(-0.563 -0.563)"/></svg>