<svg xmlns="http://www.w3.org/2000/svg" width="50.87" height="50.87" viewBox="0 0 50.87 50.87">
  <path id="Icon_simple-whatsapp" data-name="Icon simple-whatsapp" d="M37.089,30.484c-.638-.318-3.745-1.838-4.324-2.048s-1-.318-1.426.318-1.634,2.043-2,2.463-.74.445-1.369.159a17.2,17.2,0,0,1-5.093-3.148,19.23,19.23,0,0,1-3.519-4.388c-.369-.636-.04-.986.276-1.3.288-.286.638-.731.956-1.109a5.373,5.373,0,0,0,.63-1.051,1.165,1.165,0,0,0-.053-1.111c-.159-.318-1.424-3.434-1.954-4.676-.509-1.238-1.032-1.081-1.424-1.081-.365-.032-.786-.032-1.21-.032a2.389,2.389,0,0,0-1.689.761,7.076,7.076,0,0,0-2.215,5.246c0,3.084,2.268,6.073,2.584,6.518.316.413,4.462,6.772,10.81,9.506,1.513.636,2.692,1.017,3.612,1.333a8.769,8.769,0,0,0,3.985.256c1.217-.193,3.745-1.528,4.273-3.023a5.247,5.247,0,0,0,.382-3.02c-.157-.286-.572-.445-1.208-.731M25.564,46.1h-.034a21.2,21.2,0,0,1-10.715-2.925l-.763-.454L6.1,44.789l2.13-7.726-.507-.795A21.022,21.022,0,0,1,40.469,10.335a20.747,20.747,0,0,1,6.166,14.816A21.048,21.048,0,0,1,25.577,46.1M43.494,7.31A25.736,25.736,0,0,0,25.531,0,25.2,25.2,0,0,0,3.595,37.809L0,50.87l13.428-3.5a25.567,25.567,0,0,0,12.1,3.067h.013A25.308,25.308,0,0,0,50.87,25.221,25,25,0,0,0,43.462,7.393" fill="#4a4a4a"/>
</svg>
