<svg xmlns="http://www.w3.org/2000/svg" width="36" height="36" viewBox="0 0 36 36"><defs><style>.a{fill:#0ecf48;}.b{fill:#f4f4f4;}</style></defs><g transform="translate(0.282 0.108)"><circle class="a" cx="18" cy="18" r="18" transform="translate(-0.282 -0.108)"/><path class="b" d="M18.607,5.43A10.848,10.848,0,0,0,1.539,18.517L0,24.135l5.75-1.509a10.812,10.812,0,0,0,5.183,1.319h0A10.949,10.949,0,0,0,21.885,13.1,10.887,10.887,0,0,0,18.607,5.43ZM10.938,22.117a9,9,0,0,1-4.592-1.255l-.327-.2-3.41.894.909-3.327L3.3,17.892A9.031,9.031,0,1,1,20.053,13.1a9.114,9.114,0,0,1-9.115,9.018Zm4.944-6.751c-.269-.137-1.6-.791-1.851-.879s-.43-.137-.611.137-.7.879-.86,1.065-.318.205-.586.068a7.376,7.376,0,0,1-3.688-3.224c-.278-.479.278-.445.8-1.48a.5.5,0,0,0-.024-.474c-.068-.137-.611-1.47-.835-2.013s-.445-.454-.611-.464-.337-.01-.518-.01a1,1,0,0,0-.723.337,3.045,3.045,0,0,0-.948,2.262,5.309,5.309,0,0,0,1.1,2.8,12.109,12.109,0,0,0,4.631,4.094,5.3,5.3,0,0,0,3.253.679,2.775,2.775,0,0,0,1.827-1.29,2.266,2.266,0,0,0,.156-1.29C16.331,15.567,16.15,15.5,15.881,15.366Z" transform="translate(7.562 4.147)"/></g></svg>