<svg xmlns="http://www.w3.org/2000/svg" width="29.638" height="29.638" viewBox="0 0 29.638 29.638">
  <path id="Icon_ionic-logo-whatsapp" data-name="Icon ionic-logo-whatsapp" d="M17.338,2.25A14.494,14.494,0,0,0,2.788,16.688a14.288,14.288,0,0,0,2.088,7.455L2.25,31.888l8.055-2.559A14.574,14.574,0,0,0,31.888,16.688,14.494,14.494,0,0,0,17.338,2.25Zm7.235,19.92A3.758,3.758,0,0,1,22,23.829c-.682.036-.7.529-4.422-1.087s-5.958-5.547-6.134-5.8a7.135,7.135,0,0,1-1.373-3.867,4.123,4.123,0,0,1,1.416-3.025,1.425,1.425,0,0,1,1.008-.424c.293,0,.483-.009.7,0s.542-.045.824.7.955,2.59,1.042,2.778a.674.674,0,0,1,.007.646,2.527,2.527,0,0,1-.394.6c-.194.208-.408.466-.582.625-.193.176-.395.369-.192.746a11.134,11.134,0,0,0,1.97,2.629,10.152,10.152,0,0,0,2.917,1.94c.365.2.583.177.809-.061s.968-1.042,1.23-1.4.507-.289.843-.154,2.127,1.1,2.492,1.293.608.3.7.456A3.055,3.055,0,0,1,24.573,22.17Z" transform="translate(-2.25 -2.25)" fill="#d0d0d0"/>
</svg>
