<svg xmlns="http://www.w3.org/2000/svg" width="43.702" height="30.661" viewBox="0 0 43.702 30.661">
  <g id="Group_4256" data-name="Group 4256" transform="translate(0 0)">
    <path id="Path_3008" data-name="Path 3008" d="M1858.078-39.57a5.539,5.539,0,0,0-4.643-4.843,22.722,22.722,0,0,0-3.162-.374c-4.482-.2-8.965-.36-13.461-.534v.133c-1.014,0-2.028-.013-3.055,0a121.669,121.669,0,0,0-12.847.654,5.569,5.569,0,0,0-4.936,4.149,16.561,16.561,0,0,0-.427,2.268,67.817,67.817,0,0,0-.44,10.272,47.512,47.512,0,0,0,.707,7.778,5.516,5.516,0,0,0,4.723,4.656,40.5,40.5,0,0,0,4.375.44c4.576.147,9.138.293,13.7.307a121.786,121.786,0,0,0,13.594-.56,7.306,7.306,0,0,0,3.322-.961,5.761,5.761,0,0,0,2.615-4.576c.254-2.575.507-5.163.587-7.751A52.009,52.009,0,0,0,1858.078-39.57ZM1832.6-23.388V-36.462c3.8,2.188,7.537,4.349,11.353,6.537C1840.135-27.724,1836.386-25.576,1832.6-23.388Z" transform="translate(-1815.077 45.32)" fill="#fff"/>
    <path id="Path_3009" data-name="Path 3009" d="M1839.563-32.143c-3.815,2.2-7.564,4.349-11.353,6.537V-38.68C1832.012-36.492,1835.747-34.331,1839.563-32.143Z" transform="translate(-1810.689 47.538)" fill="#484848"/>
  </g>
</svg>
